<svg width="104" height="108" viewBox="0 0 104 108" fill="none" xmlns="http://www.w3.org/2000/svg">
<g clip-path="url(#clip0)">
<path d="M103.989 63.0467L103.225 47.5034C103.148 45.953 102.544 44.4756 101.526 43.3449C100.507 42.209 99.1284 41.483 97.6464 41.3003C95.3939 41.0191 93.2474 42.0091 91.9149 43.7567C88.9982 43.712 86.383 45.7625 85.6698 48.7585L85.6367 48.888C83.0389 49.1766 80.7964 51.1305 80.1468 53.8512L76.5817 67.7768L74.409 69.5316L75.3613 63.5456C75.4174 63.1872 75.446 62.8271 75.446 62.4753C75.446 60.2617 74.3828 58.2094 72.6018 56.9856C69.7227 55.0084 65.9102 55.7558 63.9216 58.6885L63.1968 59.7594C59.8091 64.7593 57.6131 70.607 56.8467 76.6702L55.6783 85.9172L53.1815 97.6971C53.0066 98.5223 53.487 99.3445 54.2725 99.5645L79.288 106.569C79.4186 106.606 79.5518 106.624 79.6847 106.624C79.9607 106.624 80.2345 106.546 80.475 106.395C80.8311 106.17 81.083 105.804 81.1726 105.382L83.6115 93.8749L90.1788 85.0646C90.6937 84.3737 90.5721 83.38 89.9066 82.8453C89.2416 82.3107 88.2845 82.4367 87.7695 83.1279L81.6125 91.3879L58.8652 85.0177L59.8678 77.082C60.5704 71.5239 62.5832 66.1635 65.6892 61.5796L66.4136 60.5093C67.4461 58.9865 69.4257 58.5982 70.9207 59.6248C71.8466 60.261 72.3991 61.3267 72.3991 62.4757C72.3991 62.6577 72.3841 62.8469 72.3546 63.034L70.7682 73.0049C70.6658 73.6475 70.9533 74.2893 71.4921 74.6224C72.0308 74.9555 72.7115 74.9116 73.2063 74.5117L90.0799 60.8831C90.3507 60.6643 90.5424 60.357 90.6243 60.0111L93.6897 47.0252C94.0851 45.3465 95.6297 44.2355 97.2852 44.4425C98.0544 44.5372 98.7692 44.9137 99.299 45.5041C99.8284 46.0924 100.142 46.8609 100.183 47.6665L100.946 63.2083C101.013 64.5661 100.608 65.9068 99.8048 66.9832L91.4989 78.1249C90.984 78.8157 91.1057 79.8094 91.7711 80.3444C92.436 80.8789 93.3931 80.7527 93.9082 80.0619L102.214 68.9205C103.462 67.2459 104.093 65.1599 103.989 63.0467ZM78.54 103.083L56.4697 96.9029L58.3261 88.1447L80.3964 94.325L78.54 103.083ZM83.095 54.6502C83.0976 54.6405 83.0998 54.6306 83.1023 54.6207C83.3292 53.6595 83.939 52.8836 84.7287 52.4352L81.9016 63.48L80.5561 64.5667L83.095 54.6502ZM87.7913 58.7233L85.8758 60.2705L88.618 49.5577C88.6206 49.5476 88.6231 49.5373 88.6255 49.5272C88.877 48.4596 89.5936 47.6236 90.5095 47.2085L87.7913 58.7233Z" fill="url(#paint0_linear)"/>
<path d="M48.3199 85.9125L47.1525 76.671C46.3867 70.6082 44.1907 64.7601 40.8019 59.7591L40.0764 58.6884C38.0894 55.7563 34.2767 55.0083 31.3967 56.9853C29.3141 58.415 28.2312 60.9919 28.6381 63.5499L29.5899 69.5324L27.4177 67.7778L23.8522 53.8507C23.2024 51.13 20.9611 49.1769 18.3627 48.8882L18.3296 48.7588C17.6156 45.7599 14.9955 43.7085 12.0838 43.7558C10.7509 42.009 8.60528 41.0197 6.35382 41.2994C3.27889 41.6827 0.932771 44.292 0.774941 47.5038L0.0111837 63.0456C-0.0928173 65.1598 0.537283 67.246 1.78509 68.92L20.3881 93.8776L22.8264 105.382C22.916 105.804 23.1681 106.17 23.5239 106.395C23.7644 106.546 24.0381 106.624 24.3143 106.624C24.447 106.624 24.5804 106.606 24.7108 106.57L49.7263 99.5647C50.512 99.3447 50.9924 98.5224 50.8175 97.6972L48.3199 85.9125ZM20.8969 54.6209C20.8991 54.6308 20.9016 54.6405 20.9042 54.6504L23.4433 64.5681L22.0982 63.4816L19.2707 52.4359C20.0602 52.8846 20.67 53.66 20.8969 54.6209ZM15.3737 49.5269C15.3761 49.537 15.3786 49.5471 15.3812 49.5575L18.1238 60.2715L16.2083 58.7243L13.4909 47.2076C14.4044 47.6229 15.122 48.4589 15.3737 49.5269ZM3.05403 63.2069L3.81758 47.6651C3.89964 45.9962 5.11881 44.6402 6.71661 44.4413C6.84884 44.4249 6.98047 44.4167 7.11067 44.4167C8.60914 44.4167 9.94612 45.4804 10.3105 47.0251L13.3749 60.0118C13.4566 60.358 13.6485 60.6653 13.9193 60.8841L30.7922 74.5122C31.2873 74.9122 31.9675 74.9561 32.5064 74.623C33.0453 74.2899 33.3327 73.648 33.2306 73.0055L31.6441 63.0344C31.4327 61.7057 31.9951 60.3675 33.0768 59.625C34.5726 58.5981 36.5529 58.9867 37.5846 60.5094L38.31 61.5802C41.4164 66.1643 43.4294 71.5249 44.1312 77.0825L45.1336 85.0185L39.8519 86.4974L22.3854 91.3885L4.19438 66.9834C3.39223 65.9072 2.9872 64.566 3.05403 63.2069ZM25.4589 103.083L23.6026 94.325L45.6731 88.1446L47.5295 96.9028L25.4589 103.083Z" fill="url(#paint1_linear)"/>
<path d="M46.7678 17.8899C46.7688 18.0031 46.7733 18.1167 46.782 18.23L47.1601 23.3086C47.3552 25.9313 49.4925 27.9673 52.0253 27.944L52.4776 27.9399C55.0104 27.9166 57.1131 25.8416 57.2646 23.2158L57.5576 18.131C57.6375 16.7472 57.1557 15.376 56.2357 14.3707C55.3157 13.3653 54.0222 12.7959 52.6866 12.8081L51.5632 12.8185C50.2276 12.8307 48.9438 13.4239 48.0408 14.446C47.2117 15.3842 46.7572 16.6233 46.7678 17.8899ZM52.7177 16.5553C53.062 16.5522 53.3824 16.6931 53.6194 16.9523C53.8364 17.1896 53.9547 17.4938 53.9574 17.8176C53.9576 17.8475 53.9569 17.8775 53.9553 17.9078L53.6622 22.9925C53.6237 23.6597 53.0895 24.187 52.446 24.1929L51.9938 24.1971C51.3503 24.203 50.8073 23.6856 50.7577 23.0192L50.3796 17.9406C50.353 17.5849 50.4666 17.2428 50.6994 16.9791C50.9323 16.7156 51.2501 16.5688 51.5943 16.5656L52.7177 16.5553Z" fill="url(#paint2_linear)"/>
<path d="M38.8661 31.7343C41.0482 30.3991 41.8696 27.5111 40.7369 25.1582L38.5421 20.6028C37.9446 19.3623 36.8671 18.4255 35.5863 18.0327C34.3055 17.6396 32.9107 17.818 31.7599 18.522L30.792 19.1142C29.6413 19.8182 28.815 20.9984 28.5252 22.3524C28.4454 22.7254 28.4077 23.104 28.4109 23.4814C28.4192 24.4737 28.71 25.4541 29.2571 26.2828L32.0301 30.4845C33.462 32.6542 36.2934 33.308 38.4762 31.9727L38.8661 31.7343ZM35.0069 28.366L32.2336 24.1644C32.0392 23.8696 31.9727 23.5149 32.0477 23.1657C32.1224 22.8166 32.3271 22.5244 32.6236 22.3431L33.5915 21.7509C33.8883 21.5693 34.2334 21.5252 34.5636 21.6266C34.8938 21.7278 35.1607 21.9599 35.3147 22.2798L37.5095 26.8353C37.5954 27.0134 37.637 27.2036 37.6385 27.3917C37.6423 27.8354 37.4234 28.2681 37.034 28.5062L37.0338 28.5062L36.6446 28.7444C36.0903 29.0834 35.3707 28.9173 35.0069 28.366Z" fill="url(#paint3_linear)"/>
<path d="M65.8363 20.3545L63.7188 24.9495C63.393 25.6565 63.2415 26.4078 63.2478 27.1488C63.2625 28.8945 64.1527 30.5815 65.7003 31.4905L66.0939 31.7218C68.2987 33.017 71.1186 32.3116 72.5134 30.1163L75.2153 25.8646C75.9509 24.7069 76.1935 23.2692 75.8807 21.9214C75.5681 20.5729 74.722 19.4082 73.5595 18.7252L72.5818 18.1508C71.4193 17.4678 70.0219 17.3149 68.748 17.7312C67.4743 18.1471 66.413 19.1033 65.8363 20.3545ZM70.8052 21.412L71.783 21.9865C72.0825 22.1626 72.2921 22.451 72.3727 22.7986C72.3952 22.8955 72.4069 22.9934 72.4077 23.0903C72.4098 23.3404 72.3404 23.5853 72.2039 23.8004L69.502 28.0522C69.1475 28.61 68.4314 28.7892 67.8712 28.4603L67.4776 28.229C66.9174 27.8998 66.6961 27.1698 66.974 26.567L69.0915 21.972C69.2401 21.6494 69.5027 21.4126 69.8314 21.3055C70.1596 21.198 70.5056 21.2359 70.8052 21.412Z" fill="url(#paint4_linear)"/>
</g>
<defs>
<linearGradient id="paint0_linear" x1="78.5728" y1="41.2529" x2="78.5728" y2="106.624" gradientUnits="userSpaceOnUse">
<stop stop-color="#8151FF"/>
<stop offset="1" stop-color="#D821EF"/>
</linearGradient>
<linearGradient id="paint1_linear" x1="25.4267" y1="41.2524" x2="25.4267" y2="106.624" gradientUnits="userSpaceOnUse">
<stop stop-color="#8151FF"/>
<stop offset="1" stop-color="#D821EF"/>
</linearGradient>
<linearGradient id="paint2_linear" x1="57.5872" y1="20.328" x2="46.789" y2="20.4183" gradientUnits="userSpaceOnUse">
<stop stop-color="#8151FF"/>
<stop offset="1" stop-color="#D821EF"/>
</linearGradient>
<linearGradient id="paint3_linear" x1="41.2264" y1="25.1905" x2="28.4262" y2="25.2986" gradientUnits="userSpaceOnUse">
<stop stop-color="#8151FF"/>
<stop offset="1" stop-color="#D821EF"/>
</linearGradient>
<linearGradient id="paint4_linear" x1="76.0295" y1="24.874" x2="63.2295" y2="24.9821" gradientUnits="userSpaceOnUse">
<stop stop-color="#8151FF"/>
<stop offset="1" stop-color="#D821EF"/>
</linearGradient>
<clipPath id="clip0">
<rect width="104" height="108" fill="white"/>
</clipPath>
</defs>
</svg>
