<svg width="92" height="92" viewBox="0 0 92 92" fill="none" xmlns="http://www.w3.org/2000/svg">
<g clip-path="url(#clip0)">
<path d="M19.0549 47.4354C18.5286 47.9617 18.5286 48.815 19.0549 49.3412C19.5813 49.8675 20.4346 49.8675 20.9607 49.3412C22.1729 48.129 24.1451 48.1292 25.3571 49.3412C25.6202 49.6044 25.9652 49.7359 26.31 49.7359C26.6548 49.7359 26.9998 49.6044 27.2629 49.3412C27.7892 48.8149 27.7892 47.9615 27.2629 47.4354C24.9999 45.1724 21.3179 45.1724 19.0549 47.4354Z" fill="url(#paint0_linear)"/>
<path d="M53.8953 49.3412C55.1075 48.1292 57.0796 48.1292 58.2917 49.3412C58.5548 49.6042 58.8998 49.7359 59.2446 49.7359C59.5894 49.7359 59.9344 49.6044 60.1975 49.3412C60.7238 48.8149 60.7238 47.9615 60.1975 47.4354C57.9345 45.1724 54.2523 45.1724 51.9894 47.4354C51.4631 47.9617 51.4631 48.815 51.9894 49.3412C52.5157 49.8675 53.369 49.8675 53.8953 49.3412Z" fill="url(#paint1_linear)"/>
<path d="M39.6262 48.8289C30.7113 48.8289 23.4584 55.4384 23.4584 63.5624C23.4584 67.4894 25.1816 70.6224 28.442 72.6227C31.178 74.3014 35.0454 75.1887 39.6262 75.1887C44.2071 75.1887 48.0745 74.3014 50.8104 72.6227C54.0709 70.6224 55.7941 67.4894 55.7941 63.5624C55.7941 55.4384 48.5413 48.8289 39.6262 48.8289ZM39.6262 72.4933C34.5948 72.4933 26.1537 71.3331 26.1537 63.5624C26.1537 56.9246 32.1975 51.5242 39.6262 51.5242C47.0549 51.5242 53.0988 56.9246 53.0988 63.5624C53.0988 71.3331 44.6579 72.4933 39.6262 72.4933Z" fill="url(#paint2_linear)"/>
<path d="M92 21.943C92 17.1924 90.5041 12.6721 87.6742 8.8708C87.2294 8.27369 86.3851 8.15007 85.7883 8.59444C85.1912 9.03899 85.0676 9.88317 85.512 10.4803C87.9931 13.8128 89.3045 17.7765 89.3045 21.943C89.3045 32.5437 80.6801 41.1679 70.0796 41.1679C59.4799 41.1679 50.8564 32.5436 50.8564 21.943C50.8564 11.3433 59.4799 2.71987 70.0796 2.71987C74.457 2.71987 78.5799 4.15271 82.0026 6.8635C82.5863 7.32548 83.4337 7.22719 83.8959 6.64374C84.358 6.06029 84.2595 5.21269 83.6761 4.75053C79.7723 1.65881 75.0708 0.0245361 70.0796 0.0245361C58.9221 0.0245361 49.6854 8.40487 48.3322 19.2015C47.1202 19.0444 45.8916 18.9544 44.6631 18.9359C44.1426 18.9285 43.6218 18.9213 43.1011 18.9177C42.737 18.9168 42.3969 19.0563 42.1421 19.3091C41.8873 19.5621 41.7441 19.9064 41.7441 20.2654V24.5747H37.5083V20.2654C37.5083 19.9064 37.365 19.5621 37.1102 19.3091C36.8556 19.0561 36.5176 18.9183 36.1513 18.9177C35.6307 18.9215 35.11 18.9287 34.5878 18.9359C29.1202 19.0175 23.7833 20.4933 19.0837 23.2137C15.3375 19.6721 11.0809 18.6922 7.95573 18.5422C3.99772 18.3526 1.01434 19.4124 0.889101 19.4575C0.355604 19.6507 0 20.1572 0 20.7249C0 28.7767 3.1548 34.6686 5.74969 38.154C4.00886 42.1463 3.11778 46.3931 3.10053 50.7902C3.08077 55.7439 3.2114 60.7473 3.48902 65.6615C3.58551 67.378 3.90482 69.0723 4.43814 70.6976C4.62447 71.2652 5.15168 71.6255 5.71842 71.6255C5.85768 71.6255 5.99927 71.6038 6.13889 71.558C6.84615 71.326 7.23122 70.5645 6.99924 69.8574C6.53906 68.4551 6.2636 66.9924 6.18022 65.51C5.90566 60.6494 5.77628 55.7006 5.79587 50.801C5.80988 47.2358 6.45263 43.78 7.7047 40.4984C8.47179 41.3156 9.00421 41.7677 9.08992 41.8392C9.34167 42.0489 9.64696 42.1512 9.95063 42.1512C10.3359 42.1512 10.7184 41.9864 10.9851 41.6678C11.462 41.0978 11.3865 40.2484 10.8175 39.7703C10.7386 39.704 3.14132 33.1899 2.71384 21.7333C3.77904 21.4706 5.68392 21.1193 7.92284 21.2393C12.4249 21.4814 16.1273 23.4358 18.927 27.0483C19.383 27.6364 20.2294 27.7439 20.8177 27.288C21.406 26.832 21.5133 25.9854 21.0574 25.3973C21.0213 25.3506 20.9842 25.3066 20.948 25.2604C25.1232 22.9554 29.819 21.7027 34.6268 21.6309C34.6889 21.63 34.7509 21.6291 34.8131 21.6282V25.9222C34.8131 26.6665 35.4165 27.2699 36.1608 27.2699H43.0919C43.8362 27.2699 44.4396 26.6665 44.4396 25.9222V21.6282C44.5012 21.6291 44.5627 21.63 44.6241 21.6307C45.809 21.6487 46.9944 21.7378 48.1617 21.8963C48.1617 21.9117 48.1611 21.9272 48.1611 21.9428C48.1611 34.0298 57.9937 43.8631 70.0796 43.8631C70.9187 43.8631 71.7465 43.814 72.5616 43.7216C73.1442 46.0238 73.4459 48.3995 73.4559 50.8008C73.4755 55.6697 73.3463 60.6185 73.0718 65.5096C72.5792 74.2339 65.6278 81.1501 56.9023 81.5975C45.4385 82.1855 33.8133 82.1855 22.3495 81.5975C17.0566 81.3266 12.2744 78.6747 9.22882 74.3221C8.80224 73.7122 7.96219 73.5637 7.35197 73.9906C6.74211 74.4174 6.59368 75.2576 7.02045 75.8674C8.07989 77.3815 9.32208 78.7164 10.7062 79.8535C9.93554 82.2523 9.49296 84.6894 9.39162 87.1118C9.32729 88.634 10.0115 90.0948 11.2219 91.0199C12.0436 91.6479 13.0404 91.976 14.0492 91.976C14.5208 91.976 14.9952 91.9043 15.4556 91.7579C18.299 90.8544 22.1763 88.8487 24.8986 84.4152C29.7915 84.6269 34.7087 84.734 39.6261 84.734C44.5443 84.734 49.4622 84.6269 54.3559 84.4152C57.0764 88.8487 60.9537 90.8546 63.7967 91.7577C64.2571 91.9041 64.7315 91.976 65.2032 91.976C66.2112 91.976 67.2072 91.6481 68.0286 91.0204C69.2393 90.0956 69.9238 88.6343 69.8595 87.1124C69.7579 84.6878 69.3164 82.252 68.5479 79.8574C72.7025 76.4593 75.4393 71.3984 75.7631 65.6613C76.0406 60.7161 76.1714 55.7126 76.1516 50.7899C76.1408 48.2354 75.8253 45.7074 75.2206 43.2528C84.8351 40.9334 92 32.2598 92 21.943ZM14.6391 89.1892C14.0229 89.3853 13.3737 89.2719 12.8585 88.8784C12.3391 88.4814 12.0571 87.8789 12.0846 87.225C12.1644 85.3175 12.4823 83.3964 13.0262 81.4935C15.636 83.067 18.6045 84.0246 21.7397 84.2586C19.5376 87.128 16.751 88.5184 14.6391 89.1892ZM67.1663 87.2258C67.1938 87.8793 66.9117 88.482 66.392 88.8789C65.8774 89.272 65.229 89.3853 64.6134 89.1892C62.5021 88.5184 59.7158 87.1284 57.5148 84.2596C60.6901 84.0217 63.6507 83.0421 66.2261 81.4928C66.769 83.3937 67.0863 85.3151 67.1663 87.2258Z" fill="url(#paint3_linear)"/>
<path d="M70.0803 6.70404C61.6775 6.70404 54.8414 13.5401 54.8414 21.9431C54.8414 30.3461 61.6775 37.1822 70.0803 37.1822C78.4831 37.1822 85.3194 30.3461 85.3194 21.9431C85.3194 13.5401 78.4831 6.70404 70.0803 6.70404ZM70.0803 34.4868C63.1637 34.4868 57.5368 28.8599 57.5368 21.9431C57.5368 15.0263 63.1637 9.39937 70.0803 9.39937C76.9969 9.39937 82.624 15.0263 82.624 21.9431C82.624 28.8599 76.9969 34.4868 70.0803 34.4868Z" fill="url(#paint4_linear)"/>
<path d="M72.3172 20.5637C70.5925 20.0616 68.6807 19.4521 67.5761 18.7386C67.059 18.4046 67.0628 17.8684 67.1111 17.5784C67.2124 16.9706 67.7114 16.2244 68.8082 15.9524C71.2159 15.3551 72.7664 16.4316 72.8526 16.4934C73.4445 16.9342 74.2826 16.8167 74.7302 16.2275C75.1805 15.6349 75.065 14.7894 74.4722 14.3391C74.4014 14.2852 73.2275 13.4148 71.314 13.153V12.4242C71.314 11.6799 70.7106 11.0765 69.9663 11.0765C69.2221 11.0765 68.6187 11.6799 68.6187 12.4242V13.2364C68.4674 13.2657 68.3146 13.2978 68.1589 13.3365C66.2112 13.8196 64.7563 15.3107 64.4523 17.1354C64.1928 18.6915 64.8294 20.1734 66.1135 21.0027C67.2389 21.7295 68.8178 22.3521 71.5636 23.1515C72.9923 23.5673 73.7272 24.4099 73.5798 25.4629C73.3556 27.0667 71.5469 27.9413 69.9588 27.9501C68.1269 27.9609 67.4042 27.8933 65.8538 27.0579C65.1987 26.7049 64.3813 26.95 64.0282 27.6051C63.6751 28.2604 63.92 29.0778 64.5753 29.4307C66.1557 30.2823 67.2437 30.5482 68.6187 30.6211V31.4619C68.6187 32.2062 69.2221 32.8096 69.9663 32.8096C70.7106 32.8096 71.314 32.2062 71.314 31.4619V30.525C74.2012 30.0084 75.9596 27.9073 76.2491 25.8362C76.5862 23.4268 75.0427 21.3572 72.3172 20.5637Z" fill="url(#paint5_linear)"/>
<path d="M34.3888 55.8883C31.9577 55.8883 30.0533 58.6851 30.0533 62.2557C30.0533 65.8263 31.9579 68.6231 34.3888 68.6231C36.8198 68.6231 38.7243 65.8263 38.7243 62.2557C38.7243 58.6851 36.82 55.8883 34.3888 55.8883ZM34.3888 65.9276C33.7359 65.9276 32.7487 64.4632 32.7487 62.2555C32.7487 60.0479 33.7359 58.5834 34.3888 58.5834C35.0418 58.5834 36.029 60.0479 36.029 62.2555C36.029 64.4632 35.0418 65.9276 34.3888 65.9276Z" fill="url(#paint6_linear)"/>
<path d="M44.8638 55.8883C42.4326 55.8883 40.5283 58.6851 40.5283 62.2557C40.5283 65.8263 42.4328 68.6231 44.8638 68.6231C47.2948 68.6231 49.1993 65.8263 49.1993 62.2557C49.1993 58.6851 47.295 55.8883 44.8638 55.8883ZM44.8638 65.9276C44.2108 65.9276 43.2236 64.4632 43.2236 62.2555C43.2236 60.0479 44.2108 58.5834 44.8638 58.5834C45.5168 58.5834 46.504 60.0479 46.504 62.2555C46.504 64.4632 45.5168 65.9276 44.8638 65.9276Z" fill="url(#paint7_linear)"/>
</g>
<defs>
<linearGradient id="paint0_linear" x1="23.1589" y1="45.7382" x2="23.1589" y2="49.7359" gradientUnits="userSpaceOnUse">
<stop stop-color="#8151FF"/>
<stop offset="1" stop-color="#C51BE0"/>
</linearGradient>
<linearGradient id="paint1_linear" x1="56.0934" y1="45.7382" x2="56.0934" y2="49.7359" gradientUnits="userSpaceOnUse">
<stop stop-color="#8151FF"/>
<stop offset="1" stop-color="#C51BE0"/>
</linearGradient>
<linearGradient id="paint2_linear" x1="39.6262" y1="48.8289" x2="39.6262" y2="75.1887" gradientUnits="userSpaceOnUse">
<stop stop-color="#8151FF"/>
<stop offset="1" stop-color="#C51BE0"/>
</linearGradient>
<linearGradient id="paint3_linear" x1="46" y1="0.0245361" x2="46" y2="91.976" gradientUnits="userSpaceOnUse">
<stop stop-color="#8151FF"/>
<stop offset="1" stop-color="#C51BE0"/>
</linearGradient>
<linearGradient id="paint4_linear" x1="70.0804" y1="6.70404" x2="70.0804" y2="37.1822" gradientUnits="userSpaceOnUse">
<stop stop-color="#8151FF"/>
<stop offset="1" stop-color="#C51BE0"/>
</linearGradient>
<linearGradient id="paint5_linear" x1="70.0808" y1="11.0765" x2="70.0808" y2="32.8096" gradientUnits="userSpaceOnUse">
<stop stop-color="#8151FF"/>
<stop offset="1" stop-color="#C51BE0"/>
</linearGradient>
<linearGradient id="paint6_linear" x1="34.3888" y1="55.8883" x2="34.3888" y2="68.6231" gradientUnits="userSpaceOnUse">
<stop stop-color="#8151FF"/>
<stop offset="1" stop-color="#C51BE0"/>
</linearGradient>
<linearGradient id="paint7_linear" x1="44.8638" y1="55.8883" x2="44.8638" y2="68.6231" gradientUnits="userSpaceOnUse">
<stop stop-color="#8151FF"/>
<stop offset="1" stop-color="#C51BE0"/>
</linearGradient>
<clipPath id="clip0">
<rect width="92" height="92" fill="white"/>
</clipPath>
</defs>
</svg>
