<svg width="95" height="95" viewBox="0 0 95 95" fill="none" xmlns="http://www.w3.org/2000/svg">
<path d="M91.5237 67.6381L84.9945 65.2263L83.4318 62.0638L76.0161 59.3243L64.5126 64.2438L60.7676 60.4988H29.9654L22.9485 64.8781H20.5276V67.6604H21.9564V74.989H24.7386V67.0405L30.7622 63.2811H59.6152L64.4924 68.1591L64.3011 73.5732H53.584L53 73.5001H52L50.8018 73.5732H40.1433V76.3555H64.4323C68.9579 74.399 65.1809 76.0187 84.1919 67.8957L89.5199 69.8639L91.2038 73.2715L79.2838 78.3715L78.5 78.5001L77.5 79.0001L76.7221 79.4677L47.6613 91.9015L23.5358 85.224H20.5276V88.0063H23.1579L47.8592 94.8433L95.0001 74.6737L91.5237 67.6381ZM67.2752 72.0981V67.0064L66.6321 66.3633L76.0912 62.3181L81.4282 64.2896L82.144 65.738L67.2752 72.0981Z" fill="url(#paint0_linear)"/>
<path d="M0 78.6003H2.78226V60.4655H13.5719V89.9169H2.78226V81.3825H0V92.6991H16.3541V57.6832H0V78.6003Z" fill="url(#paint1_linear)"/>
<path d="M47.4101 11.2881C37.8208 11.2881 30.0193 19.0896 30.0193 28.6789C30.0193 38.2682 37.8208 46.0697 47.4101 46.0697C56.9995 46.0697 64.8009 38.2682 64.8009 28.6789C64.8009 19.0896 56.9995 11.2881 47.4101 11.2881ZM47.4101 43.2876C39.3549 43.2876 32.8016 36.7343 32.8016 28.6791C32.8016 20.6239 39.3549 14.0705 47.4101 14.0705C55.4653 14.0705 62.0187 20.6239 62.0187 28.6791C62.0187 36.7343 55.4653 43.2876 47.4101 43.2876Z" fill="url(#paint2_linear)"/>
<path d="M47.4105 57.1992C63.0485 57.1992 75.6857 44.6567 75.9266 29.1239C76.042 21.6923 73.3122 14.6161 68.2405 9.19865L66.2095 11.1001C75.6736 21.2093 75.449 37.0383 65.6087 46.8785C55.5519 56.9369 39.2707 56.9382 29.2106 46.8785C19.1521 36.8198 19.1507 20.5403 29.2106 10.4802C38.8048 0.88618 54.1599 0.410969 64.309 9.26673L66.1383 7.17038C54.8961 -2.63969 37.8831 -2.12701 27.2433 8.51273C16.1236 19.6325 16.1236 37.7259 27.2433 48.8457C32.6302 54.2324 39.7925 57.1992 47.4105 57.1992Z" fill="url(#paint3_linear)"/>
<path d="M48.8013 17.6306H46.019V20.3953H42.5727V30.0701H49.4653V34.1804H42.5727V36.9627H46.019V39.7275H48.8013V36.9627H52.2476V27.2879H45.355V23.1775H52.2476V20.3953H48.8013V17.6306Z" fill="url(#paint4_linear)"/>
<defs>
<linearGradient id="paint0_linear" x1="57.7638" y1="59.3243" x2="57.7638" y2="94.8433" gradientUnits="userSpaceOnUse">
<stop stop-color="#8151FF"/>
<stop offset="1" stop-color="#DF26FD"/>
</linearGradient>
<linearGradient id="paint1_linear" x1="8.17707" y1="57.6832" x2="8.17707" y2="92.6991" gradientUnits="userSpaceOnUse">
<stop stop-color="#8151FF"/>
<stop offset="1" stop-color="#DF26FD"/>
</linearGradient>
<linearGradient id="paint2_linear" x1="47.4101" y1="11.2881" x2="47.4101" y2="46.0697" gradientUnits="userSpaceOnUse">
<stop stop-color="#8151FF"/>
<stop offset="1" stop-color="#DF26FD"/>
</linearGradient>
<linearGradient id="paint3_linear" x1="47.4168" y1="0.157104" x2="47.4168" y2="57.1992" gradientUnits="userSpaceOnUse">
<stop stop-color="#8151FF"/>
<stop offset="1" stop-color="#DF26FD"/>
</linearGradient>
<linearGradient id="paint4_linear" x1="47.4101" y1="17.6306" x2="47.4101" y2="39.7275" gradientUnits="userSpaceOnUse">
<stop stop-color="#8151FF"/>
<stop offset="1" stop-color="#DF26FD"/>
</linearGradient>
</defs>
</svg>
