<svg width="192" height="82" viewBox="0 0 192 82" fill="none" xmlns="http://www.w3.org/2000/svg">
<path d="M147.569 8.81696L140.043 6.39096C136.982 5.40375 134.029 6.66832 133.448 9.21553C133.448 9.21586 133.448 9.21635 133.448 9.21667L130.967 20.0992C130.386 22.6463 132.396 25.5115 135.457 26.4988C135.458 26.499 135.458 26.4991 135.459 26.4993L136.36 26.7899C140.017 27.9764 142.676 31.1389 142.721 34.3565C142.771 39.2649 141.43 43.8886 138.815 47.8244L138.325 48.5619C136.746 50.9634 133.324 51.8536 129.93 50.7459C126.869 49.7587 123.916 51.0233 123.335 53.5704C123.335 53.5709 123.334 53.5712 123.334 53.5716L120.853 64.4531C120.275 67.0006 122.285 69.8638 125.345 70.8531L132.872 73.2796C136.096 74.3285 139.437 74.2654 142.152 73.1044C143.261 72.6274 144.24 71.9805 145.053 71.1883C158.896 57.6485 163.39 37.9426 157.197 17.9427C155.93 13.8338 152.195 10.2945 147.569 8.81696ZM133.182 20.8133L135.663 9.93082C135.955 8.67686 137.226 7.91073 138.758 8.06462L135.06 24.2827C133.672 23.4951 132.901 22.0708 133.182 20.8133ZM123.069 65.1678L123.073 65.1723L125.554 54.2898C125.836 53.0294 127.112 52.26 128.649 52.4236L124.948 68.6371C123.56 67.8496 122.789 66.4252 123.069 65.1678ZM155.026 18.1278C161.03 37.5077 156.677 56.6038 143.265 69.7252C140.94 72.0022 137.074 72.6663 133.294 71.4377L127.142 69.4522L130.904 52.9498C134.838 53.7545 138.528 52.5116 140.327 49.7757L140.818 49.0392C143.603 44.8474 145.03 39.9226 144.975 34.6946C144.917 30.7062 141.737 26.7625 137.251 25.1148L140.998 8.67884L147.148 10.6616C150.934 11.8705 153.989 14.7661 155.026 18.1278Z" fill="url(#paint0_linear)"/>
<path d="M36.7296 12.6916L43.8968 9.2627C46.8123 7.86751 49.8798 8.70301 50.7485 11.1289C50.7486 11.1292 50.7487 11.1296 50.7488 11.13L54.4579 21.4943C55.3264 23.9202 53.667 27.0178 50.7516 28.413C50.7511 28.4132 50.7507 28.4134 50.7501 28.4137L49.8916 28.8245C46.4096 30.4982 44.1435 33.978 44.4697 37.1502C44.9853 41.9868 46.8448 46.3508 49.886 49.8613L50.4563 50.519C52.2954 52.6634 55.7838 53.0656 59.0148 51.5058C61.9303 50.1106 64.9978 50.9461 65.8666 53.3719C65.8667 53.3723 65.8668 53.3727 65.8669 53.3731L69.5765 63.7364C70.4412 66.1631 68.7826 69.2585 65.8688 70.6556L58.7001 74.0853C55.6299 75.5637 52.3175 75.9641 49.4963 75.1977C48.3445 74.8819 47.3008 74.3809 46.4051 73.7139C31.1472 62.3078 24.4294 43.5404 28.2534 23.0039C29.0345 18.7855 32.3217 14.786 36.7296 12.6916ZM52.348 22.5037L48.639 12.1394C48.2059 10.9459 46.8603 10.368 45.3616 10.7316L50.8891 26.1775C52.1718 25.2104 52.7709 23.7021 52.348 22.5037ZM67.4652 64.7465L67.4625 64.7514L63.7535 54.387C63.3293 53.1859 61.978 52.6054 60.4761 52.9792L66.0062 68.4202C67.2889 67.4531 67.888 65.9449 67.4652 64.7465ZM30.4233 22.8855C26.7154 42.7856 33.2229 60.9726 48.0065 72.0267C50.5688 73.9454 54.4707 74.0637 58.0698 72.3314L63.9291 69.526L58.3047 53.8092C54.5048 55.1456 50.7106 54.4335 48.6151 51.9906L48.0443 51.3338C44.8053 47.5949 42.8255 42.9467 42.2776 37.7951C41.876 33.8625 44.5683 29.5418 48.8178 27.2994L43.216 11.646L37.3583 14.4484C33.7519 16.162 31.0624 19.4342 30.4233 22.8855Z" fill="url(#paint1_linear)"/>
<path d="M119.446 41.8291L120.125 42.5634L120.882 41.8633L120.159 41.128L119.446 41.8291ZM114.95 35.8303C114.563 35.4365 113.929 35.4312 113.536 35.8184C113.142 36.2056 113.137 36.8388 113.524 37.2326L114.95 35.8303ZM85.8754 42.8291H119.446V40.8291H85.8754V42.8291ZM120.159 41.128L114.95 35.8303L113.524 37.2326L118.733 42.5303L120.159 41.128ZM114.916 47.3795L120.125 42.5634L118.767 41.0948L113.558 45.9109L114.916 47.3795Z" fill="#8151FF"/>
<path d="M67.3535 28.3438L66.6747 29.078L65.9174 28.378L66.6405 27.6426L67.3535 28.3438ZM71.8498 22.3449C72.237 21.9512 72.8702 21.9458 73.264 22.3331C73.6578 22.7203 73.6631 23.3534 73.2759 23.7472L71.8498 22.3449ZM100.924 29.3438H67.3535V27.3438H100.924V29.3438ZM66.6405 27.6426L71.8498 22.3449L73.2759 23.7472L68.0665 29.0449L66.6405 27.6426ZM71.884 33.8941L66.6747 29.078L68.0324 27.6095L73.2417 32.4256L71.884 33.8941Z" fill="#8151FF"/>
<defs>
<linearGradient id="paint0_linear" x1="119.133" y1="13.6252" x2="144.234" y2="72.2127" gradientUnits="userSpaceOnUse">
<stop stop-color="#8151FF"/>
<stop offset="1" stop-color="#E818EC"/>
</linearGradient>
<linearGradient id="paint1_linear" x1="65.4219" y1="13.486" x2="48.6664" y2="74.9715" gradientUnits="userSpaceOnUse">
<stop stop-color="#8151FF"/>
<stop offset="1" stop-color="#E818EC"/>
</linearGradient>
</defs>
</svg>
