<svg width="80" height="80" viewBox="0 0 80 80" fill="none" xmlns="http://www.w3.org/2000/svg">
<g clip-path="url(#clip0)">
<path d="M79.8663 37.0408C79.9126 36.9156 79.9393 36.7846 79.9452 36.651C79.9452 36.5102 79.9223 36.3701 79.8787 36.2365L79.7757 35.9451C78.6859 25.4119 73.4571 15.7431 65.2385 9.06598C64.6512 8.58755 64.0372 8.15541 63.4232 7.71218C63.3926 7.68676 63.3763 7.65091 63.343 7.62679C63.3098 7.60267 63.2831 7.60528 63.255 7.58768C56.46 2.71675 48.3137 0.0906261 39.953 0.0749828C39.6089 0.0749828 39.2628 0.0749828 39.0053 0.101707C34.5457 0.188397 30.1342 1.03705 25.9607 2.61115C22.3426 -0.211159 17.4312 -0.722826 13.3086 1.29321C9.1859 3.30924 6.57412 7.50034 6.58064 12.089C6.66081 13.6156 7.01539 15.1147 7.62874 16.5141C6.26647 18.3764 5.06715 20.352 4.04447 22.4202C4.02426 22.4521 4.01253 22.4866 3.99493 22.5199C-5.46927 42.089 2.40583 65.6355 21.739 75.5729C41.0715 85.5109 64.8024 78.2114 75.2078 59.1259C78.0575 53.8756 79.6773 48.0465 79.9438 42.0792C79.9856 41.4352 79.9999 40.7789 79.9999 40.1219C79.9999 39.0875 79.9465 38.0622 79.8663 37.0408ZM75.9874 30.1903C75.8179 30.0397 75.6615 29.8657 75.4842 29.7269C73.74 28.4024 71.763 27.4149 69.6558 26.8159C67.7368 26.3342 65.7312 26.3134 63.8026 26.7547C62.162 27.1262 60.4608 27.1347 58.8163 26.7794C55.625 26.0826 53.1032 25.5332 51.7657 23.3972C49.85 20.3266 50.7482 16.011 52.7695 14.4923C53.4356 14.0327 54.2575 13.8574 55.0534 14.0047C56.4691 14.1207 57.892 13.8809 59.1917 13.3079C60.5748 12.66 61.8035 11.7247 62.7962 10.5632C63.0484 10.7581 63.315 10.9334 63.562 11.1348C69.586 16.039 73.929 22.7004 75.9874 30.1903ZM18.5947 2.74477C23.7524 2.75325 27.9311 6.93197 27.939 12.089C27.939 16.082 21.9417 25.2236 18.5947 29.8579C15.4211 25.569 12.6633 20.9868 10.3598 16.1739C9.73211 14.8957 9.35537 13.5093 9.25043 12.089C9.2563 6.93066 13.4363 2.75064 18.5947 2.74477ZM2.57595 40.1219C2.58117 37.6346 2.83211 35.1532 3.32487 32.7148C3.46762 34.5704 3.70944 36.2215 3.92584 37.6535C4.75298 43.1267 5.53449 48.2864 9.56851 53.0048C11.2554 54.9928 14.0803 58.3163 18.448 58.8078C22.8158 59.2993 28.2851 56.7866 29.8651 56.0044L30.4712 55.6987C31.3108 55.1701 32.2702 54.8631 33.2603 54.8057C34.9491 54.9589 36.5135 55.758 37.628 57.0362C39.9061 59.558 40.4843 63.7687 38.8652 66.0467C38.3463 66.7233 37.63 67.2213 36.8146 67.4716C35.4191 67.9383 34.2328 68.884 33.4669 70.1414C32.3386 72.1841 32.1288 74.6095 32.8901 76.8159C15.3096 73.4095 2.60333 58.0295 2.57595 40.1219ZM39.953 77.4989C38.6631 77.4989 37.3745 77.4325 36.0911 77.3001C35.9816 77.16 35.8799 77.014 35.7867 76.8621C34.8846 75.1935 34.8748 73.184 35.7613 71.5069C36.243 70.7417 36.9893 70.1805 37.8575 69.9302C39.1305 69.4915 40.2411 68.6761 41.0409 67.5928C43.3626 64.3279 42.7056 58.6716 39.6128 55.2502C38.0041 53.4109 35.728 52.2898 33.2896 52.1359H33.2303C31.8244 52.1783 30.4543 52.5863 29.2537 53.3203L28.684 53.6084C25.7672 55.0462 21.6171 56.4678 18.7446 56.1445C15.4295 55.7736 13.1274 53.0608 11.6002 51.2645C8.05958 47.1262 7.36671 42.5472 6.5663 37.2481C5.70722 32.7148 5.67333 28.0641 6.46462 23.5184C7.17965 22.0708 7.98723 20.6707 8.88346 19.3267C8.92779 19.4153 8.97667 19.5059 9.01708 19.5939C9.10247 19.7634 9.19046 19.9316 9.28367 20.101C9.41729 20.3533 9.55091 20.6055 9.68453 20.8597C9.77644 21.0305 9.86964 21.2013 9.96481 21.3734C10.1062 21.6269 10.249 21.8805 10.393 22.134C10.4895 22.3022 10.5853 22.471 10.6831 22.6392C10.8317 22.8927 10.9803 23.145 11.1302 23.3972C11.2287 23.5628 11.3264 23.727 11.4262 23.8913C11.5839 24.1579 11.7429 24.4075 11.902 24.665C11.9926 24.811 12.0819 24.9589 12.1686 25.103C12.3661 25.4198 12.5622 25.7268 12.7584 26.0377C12.8106 26.1178 12.8627 26.2019 12.9136 26.2808C13.158 26.6595 13.4005 27.0291 13.6384 27.3895C13.729 27.5231 13.817 27.6568 13.9056 27.7904C14.0523 28.0107 14.1989 28.231 14.3417 28.4415L14.6585 28.905C14.7732 29.0744 14.8892 29.2439 15.0013 29.4055L15.3213 29.8657C15.4204 30.0091 15.5195 30.1493 15.614 30.2835C15.7085 30.4184 15.8154 30.571 15.9145 30.7085C16.0129 30.846 16.08 30.9418 16.1589 31.0527L16.4255 31.4209L16.6432 31.7227L16.8557 32.0154L17.0291 32.25L17.192 32.4716L17.2891 32.6053C17.4084 32.7669 17.499 32.8881 17.5244 32.9214C17.776 33.2577 18.1717 33.4559 18.5921 33.4559C19.0125 33.4559 19.4082 33.2577 19.6597 32.9214C20.7802 31.4359 30.6088 18.259 30.6088 12.089C30.6088 11.6993 30.5846 11.3121 30.5475 10.9275C30.5358 10.8089 30.5169 10.6903 30.5019 10.5716C30.4673 10.3044 30.4263 10.0372 30.3689 9.77058C30.3435 9.63696 30.3154 9.51181 30.2861 9.3834C30.2242 9.11617 30.1525 8.84958 30.071 8.58234C30.0378 8.47544 30.0098 8.36724 29.9746 8.2623C29.8546 7.90446 29.7197 7.55053 29.5665 7.20638C29.5372 7.14055 29.502 7.07276 29.4714 7.01279C29.3377 6.73512 29.2048 6.46006 29.0509 6.19152C28.9845 6.07159 28.9108 5.95556 28.8391 5.83759C28.7107 5.62705 28.5771 5.41978 28.4383 5.21577C28.3555 5.09714 28.2714 4.97851 28.1847 4.86184C28.1391 4.80317 28.1006 4.7406 28.0511 4.68324C30.8284 3.7479 33.7087 3.15085 36.6295 2.90512C34.5483 6.83355 33.8684 10.4674 34.6454 13.7179C35.2248 15.8949 36.3244 17.8992 37.8497 19.5581C39.1057 21.1133 40.0091 22.2344 39.953 24.0647C39.8383 27.9357 35.4667 31.1582 33.8124 32.3758C31.6425 33.9382 29.2172 35.1095 26.6445 35.8382C24.2198 36.6301 22.1281 37.3132 21.3284 39.7001C20.5377 42.8523 21.8361 46.1595 24.5607 47.9311C26.1934 48.813 28.1176 48.9831 29.88 48.4011C31.8107 47.9526 33.8065 47.8568 35.7711 48.1195C38.3072 48.4787 40.494 48.787 41.5311 50.2392C42.1464 51.1067 42.1144 52.0036 41.9945 53.6488C41.7207 55.9777 41.9573 58.3385 42.6867 60.567C43.2955 62.3934 44.2152 65.1512 46.4248 65.4692C46.5682 65.4921 46.7136 65.5038 46.8582 65.5038C48.4219 65.5038 49.3788 64.1233 50.3852 62.671C50.8297 62.029 51.3199 61.3362 51.9071 60.6407C54.6545 65.0795 57.4455 68.7837 57.5752 68.9597C57.8275 69.296 58.2231 69.4935 58.6429 69.4935C59.0633 69.4935 59.4589 69.296 59.7112 68.9597C62.6072 65.0814 65.247 61.0168 67.6124 56.7937C69.2523 57.2689 70.814 57.9807 72.248 58.9069C65.569 70.4203 53.2635 77.5048 39.953 77.4989ZM64.8689 41.1726C66.8524 42.9416 67.9865 45.4732 67.9858 48.1312C67.9858 49.0913 67.5961 50.9946 65.7449 54.6095C63.6318 58.5262 61.2592 62.2963 58.6416 65.8949C57.3855 64.1448 55.2242 61.0383 53.2903 57.7734C52.2122 55.9835 51.2495 54.1278 50.4067 52.2161C49.779 50.9379 49.4022 49.5515 49.2973 48.1312C49.3032 42.9729 53.4832 38.7928 58.6416 38.787C58.9303 38.787 59.2165 38.8 59.5013 38.8261C61.4971 39.0066 63.3808 39.8305 64.8689 41.1726ZM77.2832 41.9417C77.0531 47.0193 75.7736 51.9938 73.5242 56.5519C72.0616 55.627 70.4855 54.8931 68.8364 54.3677C69.8676 52.4377 70.4875 50.3135 70.6556 48.1312C70.6446 43.5504 68.0399 39.371 63.9316 37.3426L63.8475 37.3054C63.549 37.1614 63.2459 37.0264 62.9363 36.9052C62.7238 36.8224 62.5035 36.7579 62.2858 36.6888C62.1522 36.6484 62.0323 36.5982 61.9025 36.5552C61.5584 36.4574 61.2084 36.3779 60.8564 36.3121H60.8388C60.6257 36.2723 60.4093 36.2508 60.1929 36.2228C56.7605 35.7476 53.2909 36.7885 50.687 39.0744C48.0823 41.3609 46.6008 44.6662 46.6275 48.1312C46.7311 49.9107 47.1802 51.6536 47.9494 53.2616C48.6976 54.9654 49.5417 56.6256 50.4777 58.2336C49.6434 59.1467 48.8795 60.1212 48.1918 61.1491C47.8249 61.7781 47.3614 62.3451 46.8185 62.8301C46.5513 62.7897 46.0565 62.22 45.2164 59.7223C44.6037 57.8262 44.4114 55.8186 44.6545 53.841C45.0013 52.0649 44.6604 50.2235 43.7016 48.6892C41.9971 46.3055 39.0216 45.8858 36.1263 45.4751C33.8756 45.1675 31.5878 45.2705 29.3742 45.7782C27.6665 46.1048 26.8739 46.2267 25.9673 45.6616C24.311 44.5261 23.4832 42.5179 23.858 40.5449C24.2146 39.4772 25.2829 39.0914 27.4625 38.3757C30.3089 37.559 32.9918 36.2554 35.393 34.5222C37.338 33.0954 42.4683 29.3091 42.6228 24.1435C42.7082 21.3173 41.2944 19.5737 39.9276 17.8882C38.6644 16.535 37.7454 14.8983 37.2474 13.1156C36.5382 10.1415 37.4169 6.65365 39.7999 2.74477H39.953C47.3021 2.7552 54.4863 4.92702 60.6107 8.98972C59.9035 9.77775 59.0476 10.4178 58.0914 10.8734C57.1607 11.2762 56.1432 11.4353 55.1336 11.3362C53.7296 11.1628 52.3125 11.5272 51.166 12.3563C48.139 14.635 46.7826 20.4458 49.5033 24.8097C51.4398 27.9025 54.7477 28.6234 58.36 29.4108C60.3043 29.8214 62.3138 29.8129 64.2549 29.3853C65.8127 29.0138 67.437 29.0184 68.9922 29.4003C70.7423 29.9048 72.3849 30.7274 73.8384 31.8257C75.348 33.0778 76.4925 34.7125 77.1528 36.5591C77.2623 37.7382 77.3301 38.9206 77.3301 40.1219C77.3301 40.7189 77.3184 41.3231 77.278 41.9417H77.2832Z" fill="url(#paint0_linear)"/>
<path d="M18.5947 16.0937C21.5435 16.0937 23.9343 13.7035 23.9343 10.7541C23.9343 7.80537 21.5435 5.41455 18.5947 5.41455C15.6459 5.41455 13.2551 7.80537 13.2551 10.7541C13.2551 13.7035 15.6459 16.0937 18.5947 16.0937ZM18.5947 8.08434C20.0691 8.08434 21.2645 9.27975 21.2645 10.7541C21.2645 12.2285 20.0691 13.4239 18.5947 13.4239C17.1203 13.4239 15.9249 12.2285 15.9249 10.7541C15.9249 9.27975 17.1203 8.08434 18.5947 8.08434Z" fill="url(#paint1_linear)"/>
<path d="M53.302 46.7964C53.302 49.7458 55.6928 52.136 58.6416 52.136C61.5904 52.136 63.9812 49.7458 63.9812 46.7964C63.9812 43.8476 61.5904 41.4568 58.6416 41.4568C55.6928 41.4568 53.302 43.8476 53.302 46.7964ZM61.3114 46.7964C61.3114 48.2708 60.116 49.4662 58.6416 49.4662C57.1672 49.4662 55.9718 48.2708 55.9718 46.7964C55.9718 45.322 57.1672 44.1266 58.6416 44.1266C60.116 44.1266 61.3114 45.322 61.3114 46.7964Z" fill="url(#paint2_linear)"/>
</g>
<defs>
<linearGradient id="paint0_linear" x1="39.9959" y1="0.0731201" x2="39.9959" y2="80.0105" gradientUnits="userSpaceOnUse">
<stop offset="0.166667" stop-color="#8151FF"/>
<stop offset="1" stop-color="#F12FF5"/>
</linearGradient>
<linearGradient id="paint1_linear" x1="18.5947" y1="5.41455" x2="18.5947" y2="16.0937" gradientUnits="userSpaceOnUse">
<stop offset="0.166667" stop-color="#8151FF"/>
<stop offset="1" stop-color="#F12FF5"/>
</linearGradient>
<linearGradient id="paint2_linear" x1="58.6416" y1="41.4568" x2="58.6416" y2="52.136" gradientUnits="userSpaceOnUse">
<stop offset="0.166667" stop-color="#8151FF"/>
<stop offset="1" stop-color="#F12FF5"/>
</linearGradient>
<clipPath id="clip0">
<rect width="80" height="80" fill="white"/>
</clipPath>
</defs>
</svg>
