<svg width="91" height="91" viewBox="0 0 91 91" fill="none" xmlns="http://www.w3.org/2000/svg">
<path d="M23.4591 36.7228C22.9284 37.532 22.437 38.38 21.9987 39.2429L24.5611 40.5442C24.9514 39.7752 25.3892 39.02 25.8621 38.2993L23.4591 36.7228Z" fill="url(#paint0_linear)"/>
<path d="M67.5529 36.7371L65.1489 38.3113C65.6211 39.0327 66.0582 39.7879 66.4472 40.5553L69.0104 39.2563C68.5737 38.3946 68.0831 37.5468 67.5529 36.7371Z" fill="url(#paint1_linear)"/>
<path d="M44.0765 24.8486L44.0527 24.85L44.2081 27.7197L44.2484 27.7172C45.1021 27.6713 45.9632 27.6719 46.8056 27.7179L46.9613 24.8482C46.017 24.7969 45.071 24.7954 44.0765 24.8486Z" fill="url(#paint2_linear)"/>
<path d="M24.5408 61.7252L21.9761 63.0214C22.4119 63.8843 22.9014 64.7327 23.4311 65.5426L25.8367 63.9711C25.3652 63.2493 24.9294 62.4939 24.5408 61.7252Z" fill="url(#paint3_linear)"/>
<path d="M66.427 61.7833C66.036 62.5511 65.5975 63.306 65.1233 64.0274L67.5247 65.6057C68.0566 64.7963 68.549 63.949 68.9878 63.0874L66.427 61.7833Z" fill="url(#paint4_linear)"/>
<path d="M46.844 76.0805L46.7841 74.5857L46.7322 74.5884C45.8761 74.6335 45.013 74.6323 44.1681 74.5852L44.0083 77.4545C44.4944 77.4817 44.989 77.4954 45.4785 77.4954C45.9504 77.4954 46.4301 77.4826 46.9041 77.4574L46.942 77.4549L46.844 76.0805Z" fill="url(#paint5_linear)"/>
<path d="M65.6741 33.0099L63.6421 30.9779L49.4143 45.2057C48.3754 44.4285 47.0865 43.9676 45.692 43.9676C42.2587 43.9676 39.4656 46.7607 39.4656 50.194C39.4656 53.6273 42.2587 56.4204 45.692 56.4204C49.1253 56.4204 51.9182 53.6273 51.9182 50.194C51.9182 49.1978 51.6818 48.2562 51.264 47.4203L65.6741 33.0099ZM45.6916 53.5464C43.843 53.5464 42.339 52.0423 42.339 50.1938C42.339 48.3452 43.8432 46.8412 45.6916 46.8412C47.5402 46.8412 49.0442 48.3454 49.0442 50.1938C49.0442 52.0423 47.5402 53.5464 45.6916 53.5464Z" fill="url(#paint6_linear)"/>
<path d="M75.5297 25.1992C74.9513 24.533 74.3522 23.8889 73.7345 23.266L76.1528 20.8475L78.1854 22.8805L81.2308 19.8323C82.5889 18.4767 83.3366 16.6724 83.3366 14.7518C83.3366 12.8312 82.5889 11.0268 81.2319 9.6723C80.829 9.26956 80.3799 8.91516 79.8943 8.61745C77.0552 6.8817 73.4269 7.3159 71.0737 9.67195L68.0238 12.7187L70.0569 14.7518L66.9977 17.8109C62.6601 15.0189 57.8005 13.0797 52.684 12.1442V10.4415H56.5156V0H34.4842V10.441H38.3158V12.1437C29.4785 13.7597 21.4047 18.364 15.4704 25.199C9.20043 32.4207 5.74741 41.6718 5.74741 51.2472C5.74741 73.167 23.5804 91 45.5 91C67.4196 91 85.2526 73.167 85.2526 51.2474C85.2526 41.672 81.7996 32.4209 75.5297 25.1992ZM73.1057 11.7038C74.518 10.2898 76.6933 10.0287 78.394 11.0684C78.6853 11.2474 78.9567 11.4614 79.2008 11.7054C80.0148 12.5177 80.463 13.5995 80.463 14.7518C80.463 15.9038 80.0148 16.9857 79.1993 17.7996L78.1845 18.8153L72.0891 12.7196L73.1057 11.7038ZM72.0887 16.7835L74.1206 18.8153L71.6376 21.2984C71.6238 21.2864 71.6095 21.2753 71.5959 21.2633C71.2535 20.9654 70.907 20.673 70.5554 20.3876C70.5332 20.3696 70.5106 20.3517 70.4884 20.3337C70.128 20.0424 69.7639 19.7561 69.3943 19.4779L72.0887 16.7835ZM37.3578 7.5674V2.87361H53.642V7.56722H52.6842H38.3158H37.3578V7.5674ZM45.5 88.1264C25.1649 88.1264 8.62102 71.5825 8.62102 51.2474C8.62102 33.1468 22.0967 17.4697 39.9663 14.7816L41.1894 14.5975V10.441H49.8104V14.5975L51.0336 14.7816C68.9032 17.4697 82.3788 33.1468 82.3788 51.2474C82.379 71.5825 65.8351 88.1264 45.5 88.1264Z" fill="url(#paint7_linear)"/>
<path d="M45.5 18.1041C27.2776 18.1041 12.4526 32.9291 12.4526 51.1515C12.4526 69.3739 27.2776 84.1989 45.5 84.1989C63.7224 84.1989 78.5474 69.3739 78.5474 51.1515C78.5474 32.9291 63.7224 18.1041 45.5 18.1041ZM45.5 81.3251C28.8621 81.3251 15.3264 67.7892 15.3264 51.1515C15.3264 34.5138 28.8621 20.9777 45.5 20.9777C62.1379 20.9777 75.6736 34.5136 75.6736 51.1513C75.6736 67.7891 62.1379 81.3251 45.5 81.3251Z" fill="url(#paint8_linear)"/>
<defs>
<linearGradient id="paint0_linear" x1="23.9304" y1="36.7228" x2="23.9304" y2="40.5442" gradientUnits="userSpaceOnUse">
<stop offset="0.255208" stop-color="#8151FF"/>
<stop offset="1" stop-color="#FC1FE6"/>
</linearGradient>
<linearGradient id="paint1_linear" x1="67.0796" y1="36.7371" x2="67.0796" y2="40.5553" gradientUnits="userSpaceOnUse">
<stop offset="0.255208" stop-color="#8151FF"/>
<stop offset="1" stop-color="#FC1FE6"/>
</linearGradient>
<linearGradient id="paint2_linear" x1="45.507" y1="24.8092" x2="45.507" y2="27.7197" gradientUnits="userSpaceOnUse">
<stop offset="0.255208" stop-color="#8151FF"/>
<stop offset="1" stop-color="#FC1FE6"/>
</linearGradient>
<linearGradient id="paint3_linear" x1="23.9064" y1="61.7252" x2="23.9064" y2="65.5426" gradientUnits="userSpaceOnUse">
<stop offset="0.255208" stop-color="#8151FF"/>
<stop offset="1" stop-color="#FC1FE6"/>
</linearGradient>
<linearGradient id="paint4_linear" x1="67.0555" y1="61.7833" x2="67.0555" y2="65.6057" gradientUnits="userSpaceOnUse">
<stop offset="0.255208" stop-color="#8151FF"/>
<stop offset="1" stop-color="#FC1FE6"/>
</linearGradient>
<linearGradient id="paint5_linear" x1="45.4751" y1="74.5852" x2="45.4751" y2="77.4954" gradientUnits="userSpaceOnUse">
<stop offset="0.255208" stop-color="#8151FF"/>
<stop offset="1" stop-color="#FC1FE6"/>
</linearGradient>
<linearGradient id="paint6_linear" x1="52.5699" y1="30.9779" x2="52.5699" y2="56.4204" gradientUnits="userSpaceOnUse">
<stop offset="0.255208" stop-color="#8151FF"/>
<stop offset="1" stop-color="#FC1FE6"/>
</linearGradient>
<linearGradient id="paint7_linear" x1="45.5" y1="0" x2="45.5" y2="91" gradientUnits="userSpaceOnUse">
<stop offset="0.255208" stop-color="#8151FF"/>
<stop offset="1" stop-color="#FC1FE6"/>
</linearGradient>
<linearGradient id="paint8_linear" x1="45.5" y1="18.1041" x2="45.5" y2="84.1989" gradientUnits="userSpaceOnUse">
<stop offset="0.255208" stop-color="#8151FF"/>
<stop offset="1" stop-color="#FC1FE6"/>
</linearGradient>
</defs>
</svg>
