<svg width="232" height="262" viewBox="0 0 232 262" fill="none" xmlns="http://www.w3.org/2000/svg">
<circle cx="137.441" cy="5.23949" r="5.23949" fill="#CBBBF8" fill-opacity="0.2"/>
<circle cx="137.441" cy="47.1553" r="5.23949" fill="#CBBBF8" fill-opacity="0.2"/>
<circle cx="182.5" cy="5.23949" r="5.23949" fill="#CBBBF8" fill-opacity="0.2"/>
<circle cx="182.5" cy="47.1553" r="5.23949" fill="#CBBBF8" fill-opacity="0.2"/>
<circle cx="224.416" cy="5.23949" r="5.23949" fill="#CBBBF8" fill-opacity="0.2"/>
<circle cx="224.416" cy="47.1553" r="5.23949" fill="#CBBBF8" fill-opacity="0.2"/>
<circle cx="138.489" cy="89.0713" r="5.23949" fill="#CBBBF8" fill-opacity="0.2"/>
<circle cx="138.489" cy="130.987" r="5.23949" fill="#CBBBF8" fill-opacity="0.2"/>
<circle cx="183.549" cy="89.0713" r="5.23949" fill="#CBBBF8" fill-opacity="0.2"/>
<circle cx="183.549" cy="130.987" r="5.23949" fill="#CBBBF8" fill-opacity="0.2"/>
<circle cx="225.464" cy="89.0713" r="5.23949" fill="#CBBBF8" fill-opacity="0.2"/>
<circle cx="225.464" cy="130.987" r="5.23949" fill="#CBBBF8" fill-opacity="0.2"/>
<circle cx="138.738" cy="130.96" r="5.23949" fill="#CBBBF8" fill-opacity="0.2"/>
<circle cx="138.737" cy="172.876" r="5.23949" fill="#CBBBF8" fill-opacity="0.2"/>
<circle cx="183.796" cy="130.96" r="5.23949" fill="#CBBBF8" fill-opacity="0.2"/>
<circle cx="183.796" cy="172.876" r="5.23949" fill="#CBBBF8" fill-opacity="0.2"/>
<circle cx="225.712" cy="130.96" r="5.23949" fill="#CBBBF8" fill-opacity="0.2"/>
<circle cx="225.712" cy="172.876" r="5.23949" fill="#CBBBF8" fill-opacity="0.2"/>
<circle cx="139.785" cy="214.792" r="5.23949" fill="#CBBBF8" fill-opacity="0.2"/>
<circle cx="139.785" cy="256.708" r="5.23949" fill="#CBBBF8" fill-opacity="0.2"/>
<circle cx="184.844" cy="214.792" r="5.23949" fill="#CBBBF8" fill-opacity="0.2"/>
<circle cx="184.844" cy="256.708" r="5.23949" fill="#CBBBF8" fill-opacity="0.2"/>
<circle cx="226.76" cy="214.792" r="5.23949" fill="#CBBBF8" fill-opacity="0.2"/>
<circle cx="226.76" cy="256.708" r="5.23949" fill="#CBBBF8" fill-opacity="0.2"/>
<circle cx="5.23991" cy="5.23949" r="5.23949" fill="#CBBBF8" fill-opacity="0.2"/>
<circle cx="5.23946" cy="47.1553" r="5.23949" fill="#CBBBF8" fill-opacity="0.2"/>
<circle cx="50.299" cy="5.23949" r="5.23949" fill="#CBBBF8" fill-opacity="0.2"/>
<circle cx="50.299" cy="47.1553" r="5.23949" fill="#CBBBF8" fill-opacity="0.2"/>
<circle cx="92.2151" cy="5.23949" r="5.23949" fill="#CBBBF8" fill-opacity="0.2"/>
<circle cx="92.2151" cy="47.1553" r="5.23949" fill="#CBBBF8" fill-opacity="0.2"/>
<circle cx="6.28749" cy="89.0713" r="5.23949" fill="#CBBBF8" fill-opacity="0.2"/>
<circle cx="6.28749" cy="130.987" r="5.23949" fill="#CBBBF8" fill-opacity="0.2"/>
<circle cx="51.347" cy="89.0713" r="5.23949" fill="#CBBBF8" fill-opacity="0.2"/>
<circle cx="51.347" cy="130.987" r="5.23949" fill="#CBBBF8" fill-opacity="0.2"/>
<circle cx="93.2631" cy="89.0713" r="5.23949" fill="#CBBBF8" fill-opacity="0.2"/>
<circle cx="93.2631" cy="130.987" r="5.23949" fill="#CBBBF8" fill-opacity="0.2"/>
<circle cx="6.53587" cy="130.96" r="5.23949" fill="#CBBBF8" fill-opacity="0.2"/>
<circle cx="6.53548" cy="172.876" r="5.23949" fill="#CBBBF8" fill-opacity="0.2"/>
<circle cx="51.5954" cy="130.96" r="5.23949" fill="#CBBBF8" fill-opacity="0.2"/>
<circle cx="51.5954" cy="172.876" r="5.23949" fill="#CBBBF8" fill-opacity="0.2"/>
<circle cx="93.5111" cy="130.96" r="5.23949" fill="#CBBBF8" fill-opacity="0.2"/>
<circle cx="93.5111" cy="172.876" r="5.23949" fill="#CBBBF8" fill-opacity="0.2"/>
<circle cx="7.58372" cy="214.792" r="5.23949" fill="#CBBBF8" fill-opacity="0.2"/>
<circle cx="7.58336" cy="256.708" r="5.23949" fill="#CBBBF8" fill-opacity="0.2"/>
<circle cx="52.6429" cy="214.792" r="5.23949" fill="#CBBBF8" fill-opacity="0.2"/>
<circle cx="52.6429" cy="256.708" r="5.23949" fill="#CBBBF8" fill-opacity="0.2"/>
<circle cx="94.5591" cy="214.792" r="5.23949" fill="#CBBBF8" fill-opacity="0.2"/>
<circle cx="94.5591" cy="256.708" r="5.23949" fill="#CBBBF8" fill-opacity="0.2"/>
</svg>
