<svg width="695" height="507" viewBox="0 0 695 507" fill="none" xmlns="http://www.w3.org/2000/svg">
<path d="M195.085 426.139L222.925 426.24L222.831 452.16L194.992 452.059L195.085 426.139ZM260.321 296.535L288.401 296.636L372.655 425.582L373.12 296.943L393.52 297.017L392.957 452.776L364.877 452.674L280.631 321.568L280.157 452.368L259.758 452.294L260.321 296.535ZM433.758 297.162L538.397 297.541L538.338 313.861L456.978 313.567L456.794 364.446L530.234 364.712L530.175 381.032L456.735 380.766L456.533 436.686L540.292 436.989L540.233 453.309L433.194 452.921L433.758 297.162ZM611.316 314.125L558.516 313.934L558.575 297.614L687.455 298.08L687.396 314.4L634.836 314.21L634.331 453.649L610.811 453.564L611.316 314.125Z" fill="#FC08F2" fill-opacity="0.7"/>
<path d="M184.085 412.139L211.925 412.24L211.831 438.16L183.992 438.059L184.085 412.139ZM249.321 282.535L277.401 282.636L361.655 411.582L362.12 282.943L382.52 283.017L381.957 438.776L353.877 438.674L269.631 307.568L269.157 438.368L248.758 438.294L249.321 282.535ZM422.758 283.162L527.397 283.541L527.338 299.861L445.978 299.567L445.794 350.446L519.234 350.712L519.175 367.032L445.735 366.766L445.533 422.686L529.292 422.989L529.233 439.309L422.194 438.921L422.758 283.162ZM600.316 300.125L547.516 299.934L547.575 283.614L676.455 284.08L676.396 300.4L623.836 300.21L623.331 439.649L599.811 439.564L600.316 300.125Z" fill="white"/>
<rect x="274" y="442" width="21" height="21" fill="#B106AA"/>
<rect x="253" y="459" width="21" height="26" fill="#B106AA"/>
<rect x="269" y="438" width="21" height="21" fill="white"/>
<rect x="248" y="459" width="21" height="21" fill="white"/>
<rect x="345" y="313" width="26" height="26" fill="#040407"/>
<rect x="582" y="375" width="26" height="26" fill="#350348"/>
<rect x="387" y="323" width="26" height="26" fill="#B207AD"/>
<rect x="624" y="385" width="26" height="26" fill="#C008CC"/>
<rect x="374" y="313" width="26" height="26" fill="white"/>
<rect x="611" y="375" width="26" height="26" fill="white"/>
<path d="M59.256 100.771L6.45637 100.58L6.51543 84.2604L135.395 84.7268L135.336 101.047L82.7759 100.856L82.2712 240.296L58.7514 240.21L59.256 100.771ZM150.461 163.262L217.181 163.503L217.118 180.783L150.399 180.542L150.461 163.262ZM247.32 85.1318L270.6 85.2161L270.036 240.975L246.756 240.891L247.32 85.1318ZM349.679 161.823L294.995 85.3044L321.635 85.4008L362.937 145.791L404.675 85.7013L431.315 85.7977L376.079 161.918L433.151 241.565L406.511 241.469L362.821 177.95L318.672 241.151L292.032 241.055L349.679 161.823Z" fill="#FC08F2" fill-opacity="0.7"/>
<path d="M59.256 85.7714L6.45637 85.5803L6.51543 69.2604L135.395 69.7268L135.336 86.0467L82.7759 85.8565L82.2712 225.296L58.7514 225.21L59.256 85.7714Z" fill="#8151FF"/>
<path d="M150.461 148.262L217.181 148.503L217.118 165.783L150.399 165.542L150.461 148.262ZM247.32 70.1318L270.6 70.2161L270.036 225.975L246.756 225.891L247.32 70.1318ZM349.679 146.823L294.995 70.3044L321.635 70.4008L362.937 130.791L404.675 70.7013L431.315 70.7977L376.079 146.918L433.151 226.565L406.511 226.469L362.821 162.95L318.672 226.151L292.032 226.055L349.679 146.823Z" fill="white"/>
<rect x="408" y="71" width="32" height="22" fill="white"/>
<rect x="257" y="133" width="32" height="22" fill="white"/>
<rect x="231" y="133" width="26" height="22" fill="#12101E"/>
<rect x="41.9999" y="177" width="26" height="26" fill="#06060B"/>
<rect x="82" y="187" width="24" height="25" fill="#C008CC"/>
<rect x="58" y="222" width="24" height="56" fill="#8151FF"/>
<rect x="70.9999" y="177" width="26" height="26" fill="#8151FF"/>
</svg>
