<svg width="21" height="15" viewBox="0 0 21 15" fill="none" xmlns="http://www.w3.org/2000/svg">
<path d="M19.25 0H1.75001C0.784834 0 0 0.727763 0 1.62276V12.982C0 13.8769 0.784834 14.6047 1.75001 14.6047H19.25C20.2152 14.6047 21 13.8769 21 12.9819V1.62276C21 0.727763 20.2152 0 19.25 0ZM1.75001 0.81136H19.25C19.3145 0.81136 19.3713 0.833153 19.4318 0.845476C17.9167 2.13126 12.893 6.39294 11.1349 7.86174C10.9974 7.97664 10.7756 8.11371 10.5 8.11371C10.2245 8.11371 10.0027 7.97664 9.86471 7.86136C8.10682 6.39279 3.08278 2.13088 1.56795 0.845552C1.62857 0.833229 1.6855 0.81136 1.75001 0.81136ZM0.874986 12.9819V1.62276C0.874986 1.54327 0.900826 1.47116 0.923959 1.39851C2.08355 2.38266 5.58891 5.35624 7.86183 7.27284C5.59629 9.07739 2.09003 12.1599 0.921211 13.1934C0.90058 13.1244 0.874986 13.0569 0.874986 12.9819ZM19.25 13.7933H1.75001C1.68012 13.7933 1.61798 13.7708 1.55273 13.7563C2.76052 12.6886 6.28909 9.58841 8.5148 7.8228C8.80495 8.06686 9.06999 8.28939 9.27892 8.46396C9.63953 8.76587 10.0616 8.92511 10.5 8.92511C10.9384 8.92511 11.3605 8.76583 11.7206 8.46434C11.9296 8.28969 12.1949 8.06697 12.4852 7.8228C14.711 9.58822 18.2391 12.6882 19.4473 13.7563C19.382 13.7708 19.32 13.7933 19.25 13.7933ZM20.125 12.9819C20.125 13.0569 20.0994 13.1244 20.0788 13.1934C18.9096 12.1594 15.4037 9.0772 13.1382 7.27288C15.4112 5.35628 18.916 2.38296 20.076 1.39844C20.0992 1.47108 20.125 1.54323 20.125 1.62272V12.9819Z" fill="#8151FF"/>
</svg>
