<svg width="27" height="27" viewBox="0 0 27 27" fill="none" xmlns="http://www.w3.org/2000/svg">
<g clip-path="url(#clip0)">
<path d="M0.708441 20.8308L6.17334 17.1863C6.86685 16.7276 7.79647 16.8785 8.30919 17.5332L9.90105 19.58C10.1056 19.8497 10.4775 19.9279 10.7735 19.7635L11.0763 19.5966C12.0801 19.0495 13.3291 18.3683 15.8455 15.8509C18.362 13.3335 19.0446 12.0836 19.5917 11.0816L19.7578 10.7788C19.9244 10.4829 19.8477 10.1095 19.5778 9.90326L17.5324 8.31186C16.878 7.7991 16.7268 6.86974 17.1851 6.17602L20.8295 0.711123C21.2992 0.00469228 22.2414 -0.207374 22.9684 0.229676L25.2537 1.60241C25.9717 2.02454 26.4985 2.70819 26.7236 3.51011C27.5465 6.50846 26.9274 11.6831 19.3046 19.3068C13.2409 25.3701 8.72667 27.0007 5.62393 27.0007C4.90985 27.0037 4.19857 26.9108 3.50922 26.7244C2.70715 26.4996 2.02339 25.9728 1.60152 25.2545L0.227417 22.9707C-0.210266 22.2435 0.00169563 21.3007 0.708441 20.8308ZM1.00271 22.509L2.37365 24.7942C2.67657 25.3126 3.16835 25.6938 3.74597 25.8579C6.51395 26.6178 11.3498 25.9884 18.668 18.6702C25.9862 11.352 26.6156 6.51658 25.8556 3.74817C25.6913 3.16987 25.3097 2.67745 24.7907 2.37407L22.5054 1.00312C22.19 0.813307 21.781 0.905314 21.5772 1.21187L19.5975 4.18411L17.9359 6.67629C17.7369 6.9772 17.8023 7.3805 18.0862 7.60317L20.132 9.19456C20.7546 9.67063 20.9324 10.532 20.5491 11.2157L20.3866 11.5108C19.8116 12.5655 19.0967 13.8775 16.4866 16.4871C13.8765 19.0967 12.565 19.8117 11.5108 20.3867L11.2152 20.5495C10.5316 20.9328 9.67016 20.7551 9.19409 20.1325L7.6027 18.0866C7.37998 17.8029 6.97684 17.7376 6.67582 17.9364L1.2114 21.5808C0.904636 21.7844 0.812628 22.1936 1.00271 22.509Z" fill="white"/>
</g>
<defs>
<clipPath id="clip0">
<rect width="27" height="27" fill="white" transform="matrix(-1 0 0 1 26.9999 0)"/>
</clipPath>
</defs>
</svg>
