<svg width="1115" height="744" viewBox="0 0 1115 744" fill="none" xmlns="http://www.w3.org/2000/svg">
<mask id="mask0" mask-type="alpha" maskUnits="userSpaceOnUse" x="287" y="0" width="316" height="294">
<rect x="287" width="315.746" height="293.1" fill="url(#paint0_linear)" fill-opacity="0.2"/>
</mask>
<g mask="url(#mask0)">
<path d="M288.834 77.4415L398.16 0.629938L422.994 0.629935L288.834 96.9187L288.834 77.4415Z" fill="#562FCD"/>
<path d="M290.148 32.11L334.85 2.51849L360.034 2.5185L290.148 49.7388L290.148 32.11Z" fill="#562FCD"/>
<rect x="279.445" y="128.841" width="270.729" height="16.3697" transform="rotate(-35 279.445 128.841)" fill="#562FCD"/>
<path d="M267.482 185.063L575.413 -32.9265L584.802 -19.5172L276.872 198.472L267.482 185.063Z" fill="#562FCD"/>
<path d="M279.445 224.541L615.078 -17.1866L624.467 -3.77729L288.834 237.95L279.445 224.541Z" fill="#562FCD"/>
<path d="M283.222 273.65L616.967 38.8478L626.356 52.2571L292.611 287.059L283.222 273.65Z" fill="#562FCD"/>
<path d="M321.053 300.134L635.171 76.1826L644.56 89.5919L330.443 313.543L321.053 300.134Z" fill="#562FCD"/>
<path d="M394.717 294.075L616.486 138.791L625.875 152.201L404.106 307.485L394.717 294.075Z" fill="#562FCD"/>
<rect x="470.844" y="292.538" width="270.729" height="16.3697" transform="rotate(-35 470.844 292.538)" fill="#562FCD"/>
<rect x="533.804" y="297.575" width="270.729" height="16.3697" transform="rotate(-35 533.804 297.575)" fill="#562FCD"/>
</g>
<mask id="mask1" mask-type="alpha" maskUnits="userSpaceOnUse" x="287" y="450" width="316" height="294">
<rect x="287" y="450" width="315.746" height="293.1" fill="url(#paint1_linear)" fill-opacity="0.2"/>
</mask>
<g mask="url(#mask1)">
<path d="M288.834 527.442L398.16 450.63L422.994 450.63L288.834 546.919L288.834 527.442Z" fill="#562FCD"/>
<path d="M290.148 482.11L334.85 452.518L360.034 452.519L290.148 499.739L290.148 482.11Z" fill="#562FCD"/>
<rect x="279.445" y="578.841" width="270.729" height="16.3697" transform="rotate(-35 279.445 578.841)" fill="#562FCD"/>
<path d="M267.482 635.063L575.413 417.074L584.802 430.483L276.872 648.472L267.482 635.063Z" fill="#562FCD"/>
<path d="M279.445 674.541L615.078 432.813L624.467 446.223L288.834 687.95L279.445 674.541Z" fill="#562FCD"/>
<path d="M283.222 723.65L616.967 488.848L626.356 502.257L292.611 737.059L283.222 723.65Z" fill="#562FCD"/>
<path d="M321.053 750.134L635.171 526.183L644.56 539.592L330.443 763.543L321.053 750.134Z" fill="#562FCD"/>
<path d="M394.717 744.075L616.486 588.791L625.875 602.201L404.106 757.485L394.717 744.075Z" fill="#562FCD"/>
<rect x="470.844" y="742.538" width="270.729" height="16.3697" transform="rotate(-35 470.844 742.538)" fill="#562FCD"/>
<rect x="533.804" y="747.575" width="270.729" height="16.3697" transform="rotate(-35 533.804 747.575)" fill="#562FCD"/>
</g>
<circle cx="999.656" cy="99.2007" r="6.2007" fill="#CBBBF8" fill-opacity="0.05"/>
<circle cx="999.655" cy="148.806" r="6.2007" fill="#CBBBF8" fill-opacity="0.05"/>
<circle cx="1052.98" cy="99.2007" r="6.2007" fill="#CBBBF8" fill-opacity="0.05"/>
<circle cx="1052.98" cy="148.806" r="6.2007" fill="#CBBBF8" fill-opacity="0.05"/>
<circle cx="1102.59" cy="99.2007" r="6.2007" fill="#CBBBF8" fill-opacity="0.05"/>
<circle cx="1102.59" cy="148.806" r="6.2007" fill="#CBBBF8" fill-opacity="0.05"/>
<circle cx="1000.9" cy="198.412" r="6.2007" fill="#CBBBF8" fill-opacity="0.05"/>
<circle cx="1000.9" cy="248.018" r="6.2007" fill="#CBBBF8" fill-opacity="0.05"/>
<circle cx="1054.22" cy="198.412" r="6.2007" fill="#CBBBF8" fill-opacity="0.05"/>
<circle cx="1054.22" cy="248.018" r="6.2007" fill="#CBBBF8" fill-opacity="0.05"/>
<circle cx="1103.83" cy="198.412" r="6.2007" fill="#CBBBF8" fill-opacity="0.05"/>
<circle cx="1103.83" cy="248.018" r="6.2007" fill="#CBBBF8" fill-opacity="0.05"/>
<circle cx="1001.19" cy="247.986" r="6.2007" fill="#CBBBF8" fill-opacity="0.05"/>
<circle cx="1001.19" cy="297.591" r="6.2007" fill="#CBBBF8" fill-opacity="0.05"/>
<circle cx="1054.51" cy="247.986" r="6.2007" fill="#CBBBF8" fill-opacity="0.05"/>
<circle cx="1054.51" cy="297.591" r="6.2007" fill="#CBBBF8" fill-opacity="0.05"/>
<circle cx="1104.12" cy="247.986" r="6.2007" fill="#CBBBF8" fill-opacity="0.05"/>
<circle cx="1104.12" cy="297.591" r="6.2007" fill="#CBBBF8" fill-opacity="0.05"/>
<circle cx="1002.43" cy="347.197" r="6.2007" fill="#CBBBF8" fill-opacity="0.05"/>
<circle cx="1002.43" cy="396.802" r="6.2007" fill="#CBBBF8" fill-opacity="0.05"/>
<circle cx="1055.76" cy="347.197" r="6.2007" fill="#CBBBF8" fill-opacity="0.05"/>
<circle cx="1055.76" cy="396.802" r="6.2007" fill="#CBBBF8" fill-opacity="0.05"/>
<circle cx="1105.36" cy="347.197" r="6.2007" fill="#CBBBF8" fill-opacity="0.05"/>
<circle cx="1105.36" cy="396.802" r="6.2007" fill="#CBBBF8" fill-opacity="0.05"/>
<circle cx="843.201" cy="99.2007" r="6.2007" fill="#CBBBF8" fill-opacity="0.05"/>
<circle cx="843.201" cy="148.806" r="6.2007" fill="#CBBBF8" fill-opacity="0.05"/>
<circle cx="896.527" cy="99.2007" r="6.2007" fill="#CBBBF8" fill-opacity="0.05"/>
<circle cx="896.527" cy="148.806" r="6.2007" fill="#CBBBF8" fill-opacity="0.05"/>
<circle cx="946.133" cy="99.2007" r="6.2007" fill="#CBBBF8" fill-opacity="0.05"/>
<circle cx="946.133" cy="148.806" r="6.2007" fill="#CBBBF8" fill-opacity="0.05"/>
<circle cx="844.441" cy="198.412" r="6.2007" fill="#CBBBF8" fill-opacity="0.05"/>
<circle cx="844.441" cy="248.018" r="6.2007" fill="#CBBBF8" fill-opacity="0.05"/>
<circle cx="897.767" cy="198.412" r="6.2007" fill="#CBBBF8" fill-opacity="0.05"/>
<circle cx="897.767" cy="248.018" r="6.2007" fill="#CBBBF8" fill-opacity="0.05"/>
<circle cx="947.373" cy="198.412" r="6.2007" fill="#CBBBF8" fill-opacity="0.05"/>
<circle cx="947.373" cy="248.018" r="6.2007" fill="#CBBBF8" fill-opacity="0.05"/>
<circle cx="844.735" cy="247.986" r="6.2007" fill="#CBBBF8" fill-opacity="0.05"/>
<circle cx="844.734" cy="297.591" r="6.2007" fill="#CBBBF8" fill-opacity="0.05"/>
<circle cx="898.061" cy="247.986" r="6.2007" fill="#CBBBF8" fill-opacity="0.05"/>
<circle cx="898.061" cy="297.591" r="6.2007" fill="#CBBBF8" fill-opacity="0.05"/>
<circle cx="947.666" cy="247.986" r="6.2007" fill="#CBBBF8" fill-opacity="0.05"/>
<circle cx="947.666" cy="297.591" r="6.2007" fill="#CBBBF8" fill-opacity="0.05"/>
<circle cx="845.975" cy="347.197" r="6.2007" fill="#CBBBF8" fill-opacity="0.05"/>
<circle cx="845.975" cy="396.802" r="6.2007" fill="#CBBBF8" fill-opacity="0.05"/>
<circle cx="899.301" cy="347.197" r="6.2007" fill="#CBBBF8" fill-opacity="0.05"/>
<circle cx="899.301" cy="396.802" r="6.2007" fill="#CBBBF8" fill-opacity="0.05"/>
<circle cx="948.907" cy="347.197" r="6.2007" fill="#CBBBF8" fill-opacity="0.05"/>
<circle cx="948.907" cy="396.802" r="6.2007" fill="#CBBBF8" fill-opacity="0.05"/>
<circle cx="1002.66" cy="423.201" r="6.2007" fill="#CBBBF8" fill-opacity="0.05"/>
<circle cx="1002.66" cy="472.806" r="6.2007" fill="#CBBBF8" fill-opacity="0.05"/>
<circle cx="1055.98" cy="423.201" r="6.2007" fill="#CBBBF8" fill-opacity="0.05"/>
<circle cx="1055.98" cy="472.806" r="6.2007" fill="#CBBBF8" fill-opacity="0.05"/>
<circle cx="1105.59" cy="423.201" r="6.2007" fill="#CBBBF8" fill-opacity="0.05"/>
<circle cx="1105.59" cy="472.806" r="6.2007" fill="#CBBBF8" fill-opacity="0.05"/>
<circle cx="1003.9" cy="522.412" r="6.2007" fill="#CBBBF8" fill-opacity="0.05"/>
<circle cx="1003.9" cy="572.018" r="6.2007" fill="#CBBBF8" fill-opacity="0.05"/>
<circle cx="1057.22" cy="522.412" r="6.2007" fill="#CBBBF8" fill-opacity="0.05"/>
<circle cx="1057.22" cy="572.018" r="6.2007" fill="#CBBBF8" fill-opacity="0.05"/>
<circle cx="1106.83" cy="522.412" r="6.2007" fill="#CBBBF8" fill-opacity="0.05"/>
<circle cx="1106.83" cy="572.018" r="6.2007" fill="#CBBBF8" fill-opacity="0.05"/>
<circle cx="1004.19" cy="571.986" r="6.2007" fill="#CBBBF8" fill-opacity="0.05"/>
<circle cx="1004.19" cy="621.591" r="6.2007" fill="#CBBBF8" fill-opacity="0.05"/>
<circle cx="1057.51" cy="571.986" r="6.2007" fill="#CBBBF8" fill-opacity="0.05"/>
<circle cx="1057.51" cy="621.591" r="6.2007" fill="#CBBBF8" fill-opacity="0.05"/>
<circle cx="1107.12" cy="571.986" r="6.2007" fill="#CBBBF8" fill-opacity="0.05"/>
<circle cx="1107.12" cy="621.591" r="6.2007" fill="#CBBBF8" fill-opacity="0.05"/>
<circle cx="1005.43" cy="671.197" r="6.2007" fill="#CBBBF8" fill-opacity="0.05"/>
<circle cx="1005.43" cy="720.802" r="6.2007" fill="#CBBBF8" fill-opacity="0.05"/>
<circle cx="1058.76" cy="671.197" r="6.2007" fill="#CBBBF8" fill-opacity="0.05"/>
<circle cx="1058.76" cy="720.802" r="6.2007" fill="#CBBBF8" fill-opacity="0.05"/>
<circle cx="1108.36" cy="671.197" r="6.2007" fill="#CBBBF8" fill-opacity="0.05"/>
<circle cx="1108.36" cy="720.802" r="6.2007" fill="#CBBBF8" fill-opacity="0.05"/>
<circle cx="846.201" cy="423.201" r="6.2007" fill="#CBBBF8" fill-opacity="0.05"/>
<circle cx="846.201" cy="472.806" r="6.2007" fill="#CBBBF8" fill-opacity="0.05"/>
<circle cx="899.527" cy="423.201" r="6.2007" fill="#CBBBF8" fill-opacity="0.05"/>
<circle cx="899.527" cy="472.806" r="6.2007" fill="#CBBBF8" fill-opacity="0.05"/>
<circle cx="949.133" cy="423.201" r="6.2007" fill="#CBBBF8" fill-opacity="0.05"/>
<circle cx="949.133" cy="472.806" r="6.2007" fill="#CBBBF8" fill-opacity="0.05"/>
<circle cx="847.441" cy="522.412" r="6.2007" fill="#CBBBF8" fill-opacity="0.05"/>
<circle cx="847.441" cy="572.018" r="6.2007" fill="#CBBBF8" fill-opacity="0.05"/>
<circle cx="900.767" cy="522.412" r="6.2007" fill="#CBBBF8" fill-opacity="0.05"/>
<circle cx="900.767" cy="572.018" r="6.2007" fill="#CBBBF8" fill-opacity="0.05"/>
<circle cx="950.373" cy="522.412" r="6.2007" fill="#CBBBF8" fill-opacity="0.05"/>
<circle cx="950.373" cy="572.018" r="6.2007" fill="#CBBBF8" fill-opacity="0.05"/>
<circle cx="847.735" cy="571.986" r="6.2007" fill="#CBBBF8" fill-opacity="0.05"/>
<circle cx="847.734" cy="621.591" r="6.2007" fill="#CBBBF8" fill-opacity="0.05"/>
<circle cx="901.061" cy="571.986" r="6.2007" fill="#CBBBF8" fill-opacity="0.05"/>
<circle cx="901.061" cy="621.591" r="6.2007" fill="#CBBBF8" fill-opacity="0.05"/>
<circle cx="950.666" cy="571.986" r="6.2007" fill="#CBBBF8" fill-opacity="0.05"/>
<circle cx="950.666" cy="621.591" r="6.2007" fill="#CBBBF8" fill-opacity="0.05"/>
<circle cx="848.975" cy="671.197" r="6.2007" fill="#CBBBF8" fill-opacity="0.05"/>
<circle cx="848.975" cy="720.802" r="6.2007" fill="#CBBBF8" fill-opacity="0.05"/>
<circle cx="902.301" cy="671.197" r="6.2007" fill="#CBBBF8" fill-opacity="0.05"/>
<circle cx="902.301" cy="720.802" r="6.2007" fill="#CBBBF8" fill-opacity="0.05"/>
<circle cx="951.907" cy="671.197" r="6.2007" fill="#CBBBF8" fill-opacity="0.05"/>
<circle cx="951.907" cy="720.802" r="6.2007" fill="#CBBBF8" fill-opacity="0.05"/>
<circle cx="162.656" cy="101.201" r="6.2007" fill="#CBBBF8" fill-opacity="0.05"/>
<circle cx="162.655" cy="150.806" r="6.2007" fill="#CBBBF8" fill-opacity="0.05"/>
<circle cx="215.981" cy="101.201" r="6.2007" fill="#CBBBF8" fill-opacity="0.05"/>
<circle cx="215.981" cy="150.806" r="6.2007" fill="#CBBBF8" fill-opacity="0.05"/>
<circle cx="265.587" cy="101.201" r="6.2007" fill="#CBBBF8" fill-opacity="0.05"/>
<circle cx="265.587" cy="150.806" r="6.2007" fill="#CBBBF8" fill-opacity="0.05"/>
<circle cx="163.896" cy="200.412" r="6.2007" fill="#CBBBF8" fill-opacity="0.05"/>
<circle cx="163.895" cy="250.018" r="6.2007" fill="#CBBBF8" fill-opacity="0.05"/>
<circle cx="217.222" cy="200.412" r="6.2007" fill="#CBBBF8" fill-opacity="0.05"/>
<circle cx="217.222" cy="250.018" r="6.2007" fill="#CBBBF8" fill-opacity="0.05"/>
<circle cx="266.827" cy="200.412" r="6.2007" fill="#CBBBF8" fill-opacity="0.05"/>
<circle cx="266.827" cy="250.018" r="6.2007" fill="#CBBBF8" fill-opacity="0.05"/>
<circle cx="164.189" cy="249.986" r="6.2007" fill="#CBBBF8" fill-opacity="0.05"/>
<circle cx="164.188" cy="299.591" r="6.2007" fill="#CBBBF8" fill-opacity="0.05"/>
<circle cx="217.514" cy="249.986" r="6.2007" fill="#CBBBF8" fill-opacity="0.05"/>
<circle cx="217.514" cy="299.591" r="6.2007" fill="#CBBBF8" fill-opacity="0.05"/>
<circle cx="267.12" cy="249.986" r="6.2007" fill="#CBBBF8" fill-opacity="0.05"/>
<circle cx="267.12" cy="299.591" r="6.2007" fill="#CBBBF8" fill-opacity="0.05"/>
<circle cx="165.429" cy="349.197" r="6.2007" fill="#CBBBF8" fill-opacity="0.05"/>
<circle cx="165.429" cy="398.802" r="6.2007" fill="#CBBBF8" fill-opacity="0.05"/>
<circle cx="218.755" cy="349.197" r="6.2007" fill="#CBBBF8" fill-opacity="0.05"/>
<circle cx="218.755" cy="398.802" r="6.2007" fill="#CBBBF8" fill-opacity="0.05"/>
<circle cx="268.361" cy="349.197" r="6.2007" fill="#CBBBF8" fill-opacity="0.05"/>
<circle cx="268.361" cy="398.802" r="6.2007" fill="#CBBBF8" fill-opacity="0.05"/>
<circle cx="6.20119" cy="101.201" r="6.2007" fill="#CBBBF8" fill-opacity="0.05"/>
<circle cx="6.2007" cy="150.806" r="6.2007" fill="#CBBBF8" fill-opacity="0.05"/>
<circle cx="59.5266" cy="101.201" r="6.2007" fill="#CBBBF8" fill-opacity="0.05"/>
<circle cx="59.5266" cy="150.806" r="6.2007" fill="#CBBBF8" fill-opacity="0.05"/>
<circle cx="109.133" cy="101.201" r="6.2007" fill="#CBBBF8" fill-opacity="0.05"/>
<circle cx="109.133" cy="150.806" r="6.2007" fill="#CBBBF8" fill-opacity="0.05"/>
<circle cx="7.44094" cy="200.412" r="6.2007" fill="#CBBBF8" fill-opacity="0.05"/>
<circle cx="7.44094" cy="250.018" r="6.2007" fill="#CBBBF8" fill-opacity="0.05"/>
<circle cx="60.7669" cy="200.412" r="6.2007" fill="#CBBBF8" fill-opacity="0.05"/>
<circle cx="60.7669" cy="250.018" r="6.2007" fill="#CBBBF8" fill-opacity="0.05"/>
<circle cx="110.373" cy="200.412" r="6.2007" fill="#CBBBF8" fill-opacity="0.05"/>
<circle cx="110.373" cy="250.018" r="6.2007" fill="#CBBBF8" fill-opacity="0.05"/>
<circle cx="7.73488" cy="249.986" r="6.2007" fill="#CBBBF8" fill-opacity="0.05"/>
<circle cx="7.73464" cy="299.591" r="6.2007" fill="#CBBBF8" fill-opacity="0.05"/>
<circle cx="61.0611" cy="249.986" r="6.2007" fill="#CBBBF8" fill-opacity="0.05"/>
<circle cx="61.0611" cy="299.591" r="6.2007" fill="#CBBBF8" fill-opacity="0.05"/>
<circle cx="110.667" cy="249.986" r="6.2007" fill="#CBBBF8" fill-opacity="0.05"/>
<circle cx="110.667" cy="299.591" r="6.2007" fill="#CBBBF8" fill-opacity="0.05"/>
<circle cx="8.97561" cy="349.197" r="6.2007" fill="#CBBBF8" fill-opacity="0.05"/>
<circle cx="8.97487" cy="398.802" r="6.2007" fill="#CBBBF8" fill-opacity="0.05"/>
<circle cx="62.3008" cy="349.197" r="6.2007" fill="#CBBBF8" fill-opacity="0.05"/>
<circle cx="62.3008" cy="398.802" r="6.2007" fill="#CBBBF8" fill-opacity="0.05"/>
<circle cx="111.907" cy="349.197" r="6.2007" fill="#CBBBF8" fill-opacity="0.05"/>
<circle cx="111.907" cy="398.802" r="6.2007" fill="#CBBBF8" fill-opacity="0.05"/>
<circle cx="165.656" cy="425.201" r="6.2007" fill="#CBBBF8" fill-opacity="0.05"/>
<circle cx="165.655" cy="474.806" r="6.2007" fill="#CBBBF8" fill-opacity="0.05"/>
<circle cx="218.981" cy="425.201" r="6.2007" fill="#CBBBF8" fill-opacity="0.05"/>
<circle cx="218.981" cy="474.806" r="6.2007" fill="#CBBBF8" fill-opacity="0.05"/>
<circle cx="268.587" cy="425.201" r="6.2007" fill="#CBBBF8" fill-opacity="0.05"/>
<circle cx="268.587" cy="474.806" r="6.2007" fill="#CBBBF8" fill-opacity="0.05"/>
<circle cx="166.896" cy="524.412" r="6.2007" fill="#CBBBF8" fill-opacity="0.05"/>
<circle cx="166.895" cy="574.018" r="6.2007" fill="#CBBBF8" fill-opacity="0.05"/>
<circle cx="220.222" cy="524.412" r="6.2007" fill="#CBBBF8" fill-opacity="0.05"/>
<circle cx="220.222" cy="574.018" r="6.2007" fill="#CBBBF8" fill-opacity="0.05"/>
<circle cx="269.827" cy="524.412" r="6.2007" fill="#CBBBF8" fill-opacity="0.05"/>
<circle cx="269.827" cy="574.018" r="6.2007" fill="#CBBBF8" fill-opacity="0.05"/>
<circle cx="167.189" cy="573.986" r="6.2007" fill="#CBBBF8" fill-opacity="0.05"/>
<circle cx="167.188" cy="623.591" r="6.2007" fill="#CBBBF8" fill-opacity="0.05"/>
<circle cx="220.514" cy="573.986" r="6.2007" fill="#CBBBF8" fill-opacity="0.05"/>
<circle cx="220.514" cy="623.591" r="6.2007" fill="#CBBBF8" fill-opacity="0.05"/>
<circle cx="270.12" cy="573.986" r="6.2007" fill="#CBBBF8" fill-opacity="0.05"/>
<circle cx="270.12" cy="623.591" r="6.2007" fill="#CBBBF8" fill-opacity="0.05"/>
<circle cx="168.429" cy="673.197" r="6.2007" fill="#CBBBF8" fill-opacity="0.05"/>
<circle cx="168.429" cy="722.802" r="6.2007" fill="#CBBBF8" fill-opacity="0.05"/>
<circle cx="221.755" cy="673.197" r="6.2007" fill="#CBBBF8" fill-opacity="0.05"/>
<circle cx="221.755" cy="722.802" r="6.2007" fill="#CBBBF8" fill-opacity="0.05"/>
<circle cx="271.361" cy="673.197" r="6.2007" fill="#CBBBF8" fill-opacity="0.05"/>
<circle cx="271.361" cy="722.802" r="6.2007" fill="#CBBBF8" fill-opacity="0.05"/>
<circle cx="9.20119" cy="425.201" r="6.2007" fill="#CBBBF8" fill-opacity="0.05"/>
<circle cx="9.2007" cy="474.806" r="6.2007" fill="#CBBBF8" fill-opacity="0.05"/>
<circle cx="62.5266" cy="425.201" r="6.2007" fill="#CBBBF8" fill-opacity="0.05"/>
<circle cx="62.5266" cy="474.806" r="6.2007" fill="#CBBBF8" fill-opacity="0.05"/>
<circle cx="112.133" cy="425.201" r="6.2007" fill="#CBBBF8" fill-opacity="0.05"/>
<circle cx="112.133" cy="474.806" r="6.2007" fill="#CBBBF8" fill-opacity="0.05"/>
<circle cx="10.4409" cy="524.412" r="6.2007" fill="#CBBBF8" fill-opacity="0.05"/>
<circle cx="10.4409" cy="574.018" r="6.2007" fill="#CBBBF8" fill-opacity="0.05"/>
<circle cx="63.7669" cy="524.412" r="6.2007" fill="#CBBBF8" fill-opacity="0.05"/>
<circle cx="63.7669" cy="574.018" r="6.2007" fill="#CBBBF8" fill-opacity="0.05"/>
<circle cx="113.373" cy="524.412" r="6.2007" fill="#CBBBF8" fill-opacity="0.05"/>
<circle cx="113.373" cy="574.018" r="6.2007" fill="#CBBBF8" fill-opacity="0.05"/>
<circle cx="10.7349" cy="573.986" r="6.2007" fill="#CBBBF8" fill-opacity="0.05"/>
<circle cx="10.7346" cy="623.591" r="6.2007" fill="#CBBBF8" fill-opacity="0.05"/>
<circle cx="64.0611" cy="573.986" r="6.2007" fill="#CBBBF8" fill-opacity="0.05"/>
<circle cx="64.0611" cy="623.591" r="6.2007" fill="#CBBBF8" fill-opacity="0.05"/>
<circle cx="113.667" cy="573.986" r="6.2007" fill="#CBBBF8" fill-opacity="0.05"/>
<circle cx="113.667" cy="623.591" r="6.2007" fill="#CBBBF8" fill-opacity="0.05"/>
<circle cx="11.9756" cy="673.197" r="6.2007" fill="#CBBBF8" fill-opacity="0.05"/>
<circle cx="11.9749" cy="722.802" r="6.2007" fill="#CBBBF8" fill-opacity="0.05"/>
<circle cx="65.3008" cy="673.197" r="6.2007" fill="#CBBBF8" fill-opacity="0.05"/>
<circle cx="65.3008" cy="722.802" r="6.2007" fill="#CBBBF8" fill-opacity="0.05"/>
<circle cx="114.907" cy="673.197" r="6.2007" fill="#CBBBF8" fill-opacity="0.05"/>
<circle cx="114.907" cy="722.802" r="6.2007" fill="#CBBBF8" fill-opacity="0.05"/>
<circle cx="790.656" cy="99.2007" r="6.2007" fill="#CBBBF8" fill-opacity="0.05"/>
<circle cx="790.655" cy="148.806" r="6.2007" fill="#CBBBF8" fill-opacity="0.05"/>
<circle cx="843.981" cy="99.2007" r="6.2007" fill="#CBBBF8" fill-opacity="0.05"/>
<circle cx="843.981" cy="148.806" r="6.2007" fill="#CBBBF8" fill-opacity="0.05"/>
<circle cx="893.587" cy="99.2007" r="6.2007" fill="#CBBBF8" fill-opacity="0.05"/>
<circle cx="893.587" cy="148.806" r="6.2007" fill="#CBBBF8" fill-opacity="0.05"/>
<circle cx="791.896" cy="198.412" r="6.2007" fill="#CBBBF8" fill-opacity="0.05"/>
<circle cx="791.895" cy="248.018" r="6.2007" fill="#CBBBF8" fill-opacity="0.05"/>
<circle cx="845.222" cy="198.412" r="6.2007" fill="#CBBBF8" fill-opacity="0.05"/>
<circle cx="845.222" cy="248.018" r="6.2007" fill="#CBBBF8" fill-opacity="0.05"/>
<circle cx="894.827" cy="198.412" r="6.2007" fill="#CBBBF8" fill-opacity="0.05"/>
<circle cx="894.827" cy="248.018" r="6.2007" fill="#CBBBF8" fill-opacity="0.05"/>
<circle cx="792.189" cy="247.986" r="6.2007" fill="#CBBBF8" fill-opacity="0.05"/>
<circle cx="792.189" cy="297.591" r="6.2007" fill="#CBBBF8" fill-opacity="0.05"/>
<circle cx="845.515" cy="247.986" r="6.2007" fill="#CBBBF8" fill-opacity="0.05"/>
<circle cx="845.515" cy="297.591" r="6.2007" fill="#CBBBF8" fill-opacity="0.05"/>
<circle cx="895.121" cy="247.986" r="6.2007" fill="#CBBBF8" fill-opacity="0.05"/>
<circle cx="895.121" cy="297.591" r="6.2007" fill="#CBBBF8" fill-opacity="0.05"/>
<circle cx="793.43" cy="347.197" r="6.2007" fill="#CBBBF8" fill-opacity="0.05"/>
<circle cx="793.429" cy="396.802" r="6.2007" fill="#CBBBF8" fill-opacity="0.05"/>
<circle cx="846.755" cy="347.197" r="6.2007" fill="#CBBBF8" fill-opacity="0.05"/>
<circle cx="846.755" cy="396.802" r="6.2007" fill="#CBBBF8" fill-opacity="0.05"/>
<circle cx="896.361" cy="347.197" r="6.2007" fill="#CBBBF8" fill-opacity="0.05"/>
<circle cx="896.361" cy="396.802" r="6.2007" fill="#CBBBF8" fill-opacity="0.05"/>
<circle cx="634.201" cy="99.2007" r="6.2007" fill="#CBBBF8" fill-opacity="0.05"/>
<circle cx="634.201" cy="148.806" r="6.2007" fill="#CBBBF8" fill-opacity="0.05"/>
<circle cx="687.527" cy="99.2007" r="6.2007" fill="#CBBBF8" fill-opacity="0.05"/>
<circle cx="687.527" cy="148.806" r="6.2007" fill="#CBBBF8" fill-opacity="0.05"/>
<circle cx="737.133" cy="99.2007" r="6.2007" fill="#CBBBF8" fill-opacity="0.05"/>
<circle cx="737.133" cy="148.806" r="6.2007" fill="#CBBBF8" fill-opacity="0.05"/>
<circle cx="635.441" cy="198.412" r="6.2007" fill="#CBBBF8" fill-opacity="0.05"/>
<circle cx="635.441" cy="248.018" r="6.2007" fill="#CBBBF8" fill-opacity="0.05"/>
<circle cx="688.767" cy="198.412" r="6.2007" fill="#CBBBF8" fill-opacity="0.05"/>
<circle cx="688.767" cy="248.018" r="6.2007" fill="#CBBBF8" fill-opacity="0.05"/>
<circle cx="738.373" cy="198.412" r="6.2007" fill="#CBBBF8" fill-opacity="0.05"/>
<circle cx="738.373" cy="248.018" r="6.2007" fill="#CBBBF8" fill-opacity="0.05"/>
<circle cx="635.735" cy="247.986" r="6.2007" fill="#CBBBF8" fill-opacity="0.05"/>
<circle cx="635.734" cy="297.591" r="6.2007" fill="#CBBBF8" fill-opacity="0.05"/>
<circle cx="689.061" cy="247.986" r="6.2007" fill="#CBBBF8" fill-opacity="0.05"/>
<circle cx="689.061" cy="297.591" r="6.2007" fill="#CBBBF8" fill-opacity="0.05"/>
<circle cx="738.666" cy="247.986" r="6.2007" fill="#CBBBF8" fill-opacity="0.05"/>
<circle cx="738.666" cy="297.591" r="6.2007" fill="#CBBBF8" fill-opacity="0.05"/>
<circle cx="636.975" cy="347.197" r="6.2007" fill="#CBBBF8" fill-opacity="0.05"/>
<circle cx="636.975" cy="396.802" r="6.2007" fill="#CBBBF8" fill-opacity="0.05"/>
<circle cx="690.301" cy="347.197" r="6.2007" fill="#CBBBF8" fill-opacity="0.05"/>
<circle cx="690.301" cy="396.802" r="6.2007" fill="#CBBBF8" fill-opacity="0.05"/>
<circle cx="739.907" cy="347.197" r="6.2007" fill="#CBBBF8" fill-opacity="0.05"/>
<circle cx="739.907" cy="396.802" r="6.2007" fill="#CBBBF8" fill-opacity="0.05"/>
<circle cx="793.656" cy="423.201" r="6.2007" fill="#CBBBF8" fill-opacity="0.05"/>
<circle cx="793.655" cy="472.806" r="6.2007" fill="#CBBBF8" fill-opacity="0.05"/>
<circle cx="846.981" cy="423.201" r="6.2007" fill="#CBBBF8" fill-opacity="0.05"/>
<circle cx="846.981" cy="472.806" r="6.2007" fill="#CBBBF8" fill-opacity="0.05"/>
<circle cx="896.587" cy="423.201" r="6.2007" fill="#CBBBF8" fill-opacity="0.05"/>
<circle cx="896.587" cy="472.806" r="6.2007" fill="#CBBBF8" fill-opacity="0.05"/>
<circle cx="794.896" cy="522.412" r="6.2007" fill="#CBBBF8" fill-opacity="0.05"/>
<circle cx="794.895" cy="572.018" r="6.2007" fill="#CBBBF8" fill-opacity="0.05"/>
<circle cx="848.222" cy="522.412" r="6.2007" fill="#CBBBF8" fill-opacity="0.05"/>
<circle cx="848.222" cy="572.018" r="6.2007" fill="#CBBBF8" fill-opacity="0.05"/>
<circle cx="897.827" cy="522.412" r="6.2007" fill="#CBBBF8" fill-opacity="0.05"/>
<circle cx="897.827" cy="572.018" r="6.2007" fill="#CBBBF8" fill-opacity="0.05"/>
<circle cx="795.189" cy="571.986" r="6.2007" fill="#CBBBF8" fill-opacity="0.05"/>
<circle cx="795.189" cy="621.591" r="6.2007" fill="#CBBBF8" fill-opacity="0.05"/>
<circle cx="848.515" cy="571.986" r="6.2007" fill="#CBBBF8" fill-opacity="0.05"/>
<circle cx="848.515" cy="621.591" r="6.2007" fill="#CBBBF8" fill-opacity="0.05"/>
<circle cx="898.121" cy="571.986" r="6.2007" fill="#CBBBF8" fill-opacity="0.05"/>
<circle cx="898.121" cy="621.591" r="6.2007" fill="#CBBBF8" fill-opacity="0.05"/>
<circle cx="796.43" cy="671.197" r="6.2007" fill="#CBBBF8" fill-opacity="0.05"/>
<circle cx="796.429" cy="720.802" r="6.2007" fill="#CBBBF8" fill-opacity="0.05"/>
<circle cx="849.755" cy="671.197" r="6.2007" fill="#CBBBF8" fill-opacity="0.05"/>
<circle cx="849.755" cy="720.802" r="6.2007" fill="#CBBBF8" fill-opacity="0.05"/>
<circle cx="899.361" cy="671.197" r="6.2007" fill="#CBBBF8" fill-opacity="0.05"/>
<circle cx="899.361" cy="720.802" r="6.2007" fill="#CBBBF8" fill-opacity="0.05"/>
<circle cx="637.201" cy="423.201" r="6.2007" fill="#CBBBF8" fill-opacity="0.05"/>
<circle cx="637.201" cy="472.806" r="6.2007" fill="#CBBBF8" fill-opacity="0.05"/>
<circle cx="690.527" cy="423.201" r="6.2007" fill="#CBBBF8" fill-opacity="0.05"/>
<circle cx="690.527" cy="472.806" r="6.2007" fill="#CBBBF8" fill-opacity="0.05"/>
<circle cx="740.133" cy="423.201" r="6.2007" fill="#CBBBF8" fill-opacity="0.05"/>
<circle cx="740.133" cy="472.806" r="6.2007" fill="#CBBBF8" fill-opacity="0.05"/>
<circle cx="638.441" cy="522.412" r="6.2007" fill="#CBBBF8" fill-opacity="0.05"/>
<circle cx="638.441" cy="572.018" r="6.2007" fill="#CBBBF8" fill-opacity="0.05"/>
<circle cx="691.767" cy="522.412" r="6.2007" fill="#CBBBF8" fill-opacity="0.05"/>
<circle cx="691.767" cy="572.018" r="6.2007" fill="#CBBBF8" fill-opacity="0.05"/>
<circle cx="741.373" cy="522.412" r="6.2007" fill="#CBBBF8" fill-opacity="0.05"/>
<circle cx="741.373" cy="572.018" r="6.2007" fill="#CBBBF8" fill-opacity="0.05"/>
<circle cx="638.735" cy="571.986" r="6.2007" fill="#CBBBF8" fill-opacity="0.05"/>
<circle cx="638.734" cy="621.591" r="6.2007" fill="#CBBBF8" fill-opacity="0.05"/>
<circle cx="692.061" cy="571.986" r="6.2007" fill="#CBBBF8" fill-opacity="0.05"/>
<circle cx="692.061" cy="621.591" r="6.2007" fill="#CBBBF8" fill-opacity="0.05"/>
<circle cx="741.666" cy="571.986" r="6.2007" fill="#CBBBF8" fill-opacity="0.05"/>
<circle cx="741.666" cy="621.591" r="6.2007" fill="#CBBBF8" fill-opacity="0.05"/>
<circle cx="639.975" cy="671.197" r="6.2007" fill="#CBBBF8" fill-opacity="0.05"/>
<circle cx="639.975" cy="720.802" r="6.2007" fill="#CBBBF8" fill-opacity="0.05"/>
<circle cx="693.301" cy="671.197" r="6.2007" fill="#CBBBF8" fill-opacity="0.05"/>
<circle cx="693.301" cy="720.802" r="6.2007" fill="#CBBBF8" fill-opacity="0.05"/>
<circle cx="742.907" cy="671.197" r="6.2007" fill="#CBBBF8" fill-opacity="0.05"/>
<circle cx="742.907" cy="720.802" r="6.2007" fill="#CBBBF8" fill-opacity="0.05"/>
<defs>
<linearGradient id="paint0_linear" x1="422.751" y1="163.905" x2="406.574" y2="-34.658" gradientUnits="userSpaceOnUse">
<stop stop-color="#5931D1"/>
<stop offset="1" stop-color="#110C2F"/>
</linearGradient>
<linearGradient id="paint1_linear" x1="422.751" y1="613.905" x2="406.574" y2="415.342" gradientUnits="userSpaceOnUse">
<stop stop-color="#5931D1"/>
<stop offset="1" stop-color="#110C2F"/>
</linearGradient>
</defs>
</svg>
