<svg width="1346" height="1204" viewBox="0 0 1346 1204" fill="none" xmlns="http://www.w3.org/2000/svg">
<g filter="url(#filter0_f)">
<ellipse cx="673" cy="602" rx="423" ry="352" fill="url(#paint0_linear)" fill-opacity="0.3"/>
</g>
<mask id="mask0" mask-type="alpha" maskUnits="userSpaceOnUse" x="463" y="230" width="316" height="294">
<rect x="463" y="230" width="315.746" height="293.1" fill="url(#paint1_linear)" fill-opacity="0.2"/>
</mask>
<g mask="url(#mask0)">
<path d="M464.834 307.442L574.16 230.63L598.994 230.63L464.834 326.919L464.834 307.442Z" fill="#562FCD"/>
<path d="M466.148 262.11L510.85 232.518L536.034 232.518L466.148 279.739L466.148 262.11Z" fill="#562FCD"/>
<rect x="455.445" y="358.841" width="270.729" height="16.3697" transform="rotate(-35 455.445 358.841)" fill="#562FCD"/>
<path d="M443.482 415.063L751.413 197.074L760.802 210.483L452.872 428.472L443.482 415.063Z" fill="#562FCD"/>
<path d="M455.445 454.541L791.078 212.813L800.467 226.223L464.834 467.95L455.445 454.541Z" fill="#562FCD"/>
<path d="M459.222 503.65L792.967 268.848L802.356 282.257L468.611 517.059L459.222 503.65Z" fill="#562FCD"/>
<path d="M497.053 530.134L811.171 306.183L820.56 319.592L506.443 543.543L497.053 530.134Z" fill="#562FCD"/>
<path d="M570.717 524.075L792.486 368.791L801.875 382.201L580.106 537.485L570.717 524.075Z" fill="#562FCD"/>
<rect x="646.844" y="522.538" width="270.729" height="16.3697" transform="rotate(-35 646.844 522.538)" fill="#562FCD"/>
<rect x="709.804" y="527.575" width="270.729" height="16.3697" transform="rotate(-35 709.804 527.575)" fill="#562FCD"/>
</g>
<mask id="mask1" mask-type="alpha" maskUnits="userSpaceOnUse" x="463" y="680" width="316" height="294">
<rect x="463" y="680" width="315.746" height="293.1" fill="url(#paint2_linear)" fill-opacity="0.2"/>
</mask>
<g mask="url(#mask1)">
<path d="M464.834 757.442L574.16 680.63L598.994 680.63L464.834 776.919L464.834 757.442Z" fill="#562FCD"/>
<path d="M466.148 712.11L510.85 682.518L536.034 682.518L466.148 729.739L466.148 712.11Z" fill="#562FCD"/>
<rect x="455.445" y="808.841" width="270.729" height="16.3697" transform="rotate(-35 455.445 808.841)" fill="#562FCD"/>
<path d="M443.482 865.063L751.413 647.074L760.802 660.483L452.872 878.472L443.482 865.063Z" fill="#562FCD"/>
<path d="M455.445 904.541L791.078 662.813L800.467 676.223L464.834 917.95L455.445 904.541Z" fill="#562FCD"/>
<path d="M459.222 953.65L792.967 718.848L802.356 732.257L468.611 967.059L459.222 953.65Z" fill="#562FCD"/>
<path d="M497.053 980.134L811.171 756.183L820.56 769.592L506.443 993.543L497.053 980.134Z" fill="#562FCD"/>
<path d="M570.717 974.075L792.486 818.791L801.875 832.201L580.106 987.485L570.717 974.075Z" fill="#562FCD"/>
<rect x="646.844" y="972.538" width="270.729" height="16.3697" transform="rotate(-35 646.844 972.538)" fill="#562FCD"/>
<rect x="709.804" y="977.575" width="270.729" height="16.3697" transform="rotate(-35 709.804 977.575)" fill="#562FCD"/>
</g>
<circle cx="1175.66" cy="329.201" r="6.2007" fill="#CBBBF8" fill-opacity="0.05"/>
<circle cx="1175.66" cy="378.806" r="6.2007" fill="#CBBBF8" fill-opacity="0.05"/>
<circle cx="1228.98" cy="329.201" r="6.2007" fill="#CBBBF8" fill-opacity="0.05"/>
<circle cx="1228.98" cy="378.806" r="6.2007" fill="#CBBBF8" fill-opacity="0.05"/>
<circle cx="1278.59" cy="329.201" r="6.2007" fill="#CBBBF8" fill-opacity="0.05"/>
<circle cx="1278.59" cy="378.806" r="6.2007" fill="#CBBBF8" fill-opacity="0.05"/>
<circle cx="1176.9" cy="428.412" r="6.2007" fill="#CBBBF8" fill-opacity="0.05"/>
<circle cx="1176.9" cy="478.018" r="6.2007" fill="#CBBBF8" fill-opacity="0.05"/>
<circle cx="1230.22" cy="428.412" r="6.2007" fill="#CBBBF8" fill-opacity="0.05"/>
<circle cx="1230.22" cy="478.018" r="6.2007" fill="#CBBBF8" fill-opacity="0.05"/>
<circle cx="1279.83" cy="428.412" r="6.2007" fill="#CBBBF8" fill-opacity="0.05"/>
<circle cx="1279.83" cy="478.018" r="6.2007" fill="#CBBBF8" fill-opacity="0.05"/>
<circle cx="1177.19" cy="477.986" r="6.2007" fill="#CBBBF8" fill-opacity="0.05"/>
<circle cx="1177.19" cy="527.591" r="6.2007" fill="#CBBBF8" fill-opacity="0.05"/>
<circle cx="1230.51" cy="477.986" r="6.2007" fill="#CBBBF8" fill-opacity="0.05"/>
<circle cx="1230.51" cy="527.591" r="6.2007" fill="#CBBBF8" fill-opacity="0.05"/>
<circle cx="1280.12" cy="477.986" r="6.2007" fill="#CBBBF8" fill-opacity="0.05"/>
<circle cx="1280.12" cy="527.591" r="6.2007" fill="#CBBBF8" fill-opacity="0.05"/>
<circle cx="1178.43" cy="577.197" r="6.2007" fill="#CBBBF8" fill-opacity="0.05"/>
<circle cx="1178.43" cy="626.802" r="6.2007" fill="#CBBBF8" fill-opacity="0.05"/>
<circle cx="1231.76" cy="577.197" r="6.2007" fill="#CBBBF8" fill-opacity="0.05"/>
<circle cx="1231.76" cy="626.802" r="6.2007" fill="#CBBBF8" fill-opacity="0.05"/>
<circle cx="1281.36" cy="577.197" r="6.2007" fill="#CBBBF8" fill-opacity="0.05"/>
<circle cx="1281.36" cy="626.802" r="6.2007" fill="#CBBBF8" fill-opacity="0.05"/>
<circle cx="1019.2" cy="329.201" r="6.2007" fill="#CBBBF8" fill-opacity="0.05"/>
<circle cx="1019.2" cy="378.806" r="6.2007" fill="#CBBBF8" fill-opacity="0.05"/>
<circle cx="1072.53" cy="329.201" r="6.2007" fill="#CBBBF8" fill-opacity="0.05"/>
<circle cx="1072.53" cy="378.806" r="6.2007" fill="#CBBBF8" fill-opacity="0.05"/>
<circle cx="1122.13" cy="329.201" r="6.2007" fill="#CBBBF8" fill-opacity="0.05"/>
<circle cx="1122.13" cy="378.806" r="6.2007" fill="#CBBBF8" fill-opacity="0.05"/>
<circle cx="1020.44" cy="428.412" r="6.2007" fill="#CBBBF8" fill-opacity="0.05"/>
<circle cx="1020.44" cy="478.018" r="6.2007" fill="#CBBBF8" fill-opacity="0.05"/>
<circle cx="1073.77" cy="428.412" r="6.2007" fill="#CBBBF8" fill-opacity="0.05"/>
<circle cx="1073.77" cy="478.018" r="6.2007" fill="#CBBBF8" fill-opacity="0.05"/>
<circle cx="1123.37" cy="428.412" r="6.2007" fill="#CBBBF8" fill-opacity="0.05"/>
<circle cx="1123.37" cy="478.018" r="6.2007" fill="#CBBBF8" fill-opacity="0.05"/>
<circle cx="1020.73" cy="477.986" r="6.2007" fill="#CBBBF8" fill-opacity="0.05"/>
<circle cx="1020.73" cy="527.591" r="6.2007" fill="#CBBBF8" fill-opacity="0.05"/>
<circle cx="1074.06" cy="477.986" r="6.2007" fill="#CBBBF8" fill-opacity="0.05"/>
<circle cx="1074.06" cy="527.591" r="6.2007" fill="#CBBBF8" fill-opacity="0.05"/>
<circle cx="1123.67" cy="477.986" r="6.2007" fill="#CBBBF8" fill-opacity="0.05"/>
<circle cx="1123.67" cy="527.591" r="6.2007" fill="#CBBBF8" fill-opacity="0.05"/>
<circle cx="1021.98" cy="577.197" r="6.2007" fill="#CBBBF8" fill-opacity="0.05"/>
<circle cx="1021.97" cy="626.802" r="6.2007" fill="#CBBBF8" fill-opacity="0.05"/>
<circle cx="1075.3" cy="577.197" r="6.2007" fill="#CBBBF8" fill-opacity="0.05"/>
<circle cx="1075.3" cy="626.802" r="6.2007" fill="#CBBBF8" fill-opacity="0.05"/>
<circle cx="1124.91" cy="577.197" r="6.2007" fill="#CBBBF8" fill-opacity="0.05"/>
<circle cx="1124.91" cy="626.802" r="6.2007" fill="#CBBBF8" fill-opacity="0.05"/>
<circle cx="1178.66" cy="653.201" r="6.2007" fill="#CBBBF8" fill-opacity="0.05"/>
<circle cx="1178.66" cy="702.806" r="6.2007" fill="#CBBBF8" fill-opacity="0.05"/>
<circle cx="1231.98" cy="653.201" r="6.2007" fill="#CBBBF8" fill-opacity="0.05"/>
<circle cx="1231.98" cy="702.806" r="6.2007" fill="#CBBBF8" fill-opacity="0.05"/>
<circle cx="1281.59" cy="653.201" r="6.2007" fill="#CBBBF8" fill-opacity="0.05"/>
<circle cx="1281.59" cy="702.806" r="6.2007" fill="#CBBBF8" fill-opacity="0.05"/>
<circle cx="1179.9" cy="752.412" r="6.2007" fill="#CBBBF8" fill-opacity="0.05"/>
<circle cx="1179.9" cy="802.018" r="6.2007" fill="#CBBBF8" fill-opacity="0.05"/>
<circle cx="1233.22" cy="752.412" r="6.2007" fill="#CBBBF8" fill-opacity="0.05"/>
<circle cx="1233.22" cy="802.018" r="6.2007" fill="#CBBBF8" fill-opacity="0.05"/>
<circle cx="1282.83" cy="752.412" r="6.2007" fill="#CBBBF8" fill-opacity="0.05"/>
<circle cx="1282.83" cy="802.018" r="6.2007" fill="#CBBBF8" fill-opacity="0.05"/>
<circle cx="1180.19" cy="801.986" r="6.2007" fill="#CBBBF8" fill-opacity="0.05"/>
<circle cx="1180.19" cy="851.591" r="6.2007" fill="#CBBBF8" fill-opacity="0.05"/>
<circle cx="1233.51" cy="801.986" r="6.2007" fill="#CBBBF8" fill-opacity="0.05"/>
<circle cx="1233.51" cy="851.591" r="6.2007" fill="#CBBBF8" fill-opacity="0.05"/>
<circle cx="1283.12" cy="801.986" r="6.2007" fill="#CBBBF8" fill-opacity="0.05"/>
<circle cx="1283.12" cy="851.591" r="6.2007" fill="#CBBBF8" fill-opacity="0.05"/>
<circle cx="1181.43" cy="901.197" r="6.2007" fill="#CBBBF8" fill-opacity="0.05"/>
<circle cx="1181.43" cy="950.802" r="6.2007" fill="#CBBBF8" fill-opacity="0.05"/>
<circle cx="1234.76" cy="901.197" r="6.2007" fill="#CBBBF8" fill-opacity="0.05"/>
<circle cx="1234.76" cy="950.802" r="6.2007" fill="#CBBBF8" fill-opacity="0.05"/>
<circle cx="1284.36" cy="901.197" r="6.2007" fill="#CBBBF8" fill-opacity="0.05"/>
<circle cx="1284.36" cy="950.802" r="6.2007" fill="#CBBBF8" fill-opacity="0.05"/>
<circle cx="1022.2" cy="653.201" r="6.2007" fill="#CBBBF8" fill-opacity="0.05"/>
<circle cx="1022.2" cy="702.806" r="6.2007" fill="#CBBBF8" fill-opacity="0.05"/>
<circle cx="1075.53" cy="653.201" r="6.2007" fill="#CBBBF8" fill-opacity="0.05"/>
<circle cx="1075.53" cy="702.806" r="6.2007" fill="#CBBBF8" fill-opacity="0.05"/>
<circle cx="1125.13" cy="653.201" r="6.2007" fill="#CBBBF8" fill-opacity="0.05"/>
<circle cx="1125.13" cy="702.806" r="6.2007" fill="#CBBBF8" fill-opacity="0.05"/>
<circle cx="1023.44" cy="752.412" r="6.2007" fill="#CBBBF8" fill-opacity="0.05"/>
<circle cx="1023.44" cy="802.018" r="6.2007" fill="#CBBBF8" fill-opacity="0.05"/>
<circle cx="1076.77" cy="752.412" r="6.2007" fill="#CBBBF8" fill-opacity="0.05"/>
<circle cx="1076.77" cy="802.018" r="6.2007" fill="#CBBBF8" fill-opacity="0.05"/>
<circle cx="1126.37" cy="752.412" r="6.2007" fill="#CBBBF8" fill-opacity="0.05"/>
<circle cx="1126.37" cy="802.018" r="6.2007" fill="#CBBBF8" fill-opacity="0.05"/>
<circle cx="1023.73" cy="801.986" r="6.2007" fill="#CBBBF8" fill-opacity="0.05"/>
<circle cx="1023.73" cy="851.591" r="6.2007" fill="#CBBBF8" fill-opacity="0.05"/>
<circle cx="1077.06" cy="801.986" r="6.2007" fill="#CBBBF8" fill-opacity="0.05"/>
<circle cx="1077.06" cy="851.591" r="6.2007" fill="#CBBBF8" fill-opacity="0.05"/>
<circle cx="1126.67" cy="801.986" r="6.2007" fill="#CBBBF8" fill-opacity="0.05"/>
<circle cx="1126.67" cy="851.591" r="6.2007" fill="#CBBBF8" fill-opacity="0.05"/>
<circle cx="1024.98" cy="901.197" r="6.2007" fill="#CBBBF8" fill-opacity="0.05"/>
<circle cx="1024.97" cy="950.802" r="6.2007" fill="#CBBBF8" fill-opacity="0.05"/>
<circle cx="1078.3" cy="901.197" r="6.2007" fill="#CBBBF8" fill-opacity="0.05"/>
<circle cx="1078.3" cy="950.802" r="6.2007" fill="#CBBBF8" fill-opacity="0.05"/>
<circle cx="1127.91" cy="901.197" r="6.2007" fill="#CBBBF8" fill-opacity="0.05"/>
<circle cx="1127.91" cy="950.802" r="6.2007" fill="#CBBBF8" fill-opacity="0.05"/>
<circle cx="338.656" cy="331.201" r="6.2007" fill="#CBBBF8" fill-opacity="0.05"/>
<circle cx="338.655" cy="380.806" r="6.2007" fill="#CBBBF8" fill-opacity="0.05"/>
<circle cx="391.981" cy="331.201" r="6.2007" fill="#CBBBF8" fill-opacity="0.05"/>
<circle cx="391.981" cy="380.806" r="6.2007" fill="#CBBBF8" fill-opacity="0.05"/>
<circle cx="441.587" cy="331.201" r="6.2007" fill="#CBBBF8" fill-opacity="0.05"/>
<circle cx="441.587" cy="380.806" r="6.2007" fill="#CBBBF8" fill-opacity="0.05"/>
<circle cx="339.896" cy="430.412" r="6.2007" fill="#CBBBF8" fill-opacity="0.05"/>
<circle cx="339.895" cy="480.018" r="6.2007" fill="#CBBBF8" fill-opacity="0.05"/>
<circle cx="393.222" cy="430.412" r="6.2007" fill="#CBBBF8" fill-opacity="0.05"/>
<circle cx="393.222" cy="480.018" r="6.2007" fill="#CBBBF8" fill-opacity="0.05"/>
<circle cx="442.827" cy="430.412" r="6.2007" fill="#CBBBF8" fill-opacity="0.05"/>
<circle cx="442.827" cy="480.018" r="6.2007" fill="#CBBBF8" fill-opacity="0.05"/>
<circle cx="340.189" cy="479.986" r="6.2007" fill="#CBBBF8" fill-opacity="0.05"/>
<circle cx="340.189" cy="529.591" r="6.2007" fill="#CBBBF8" fill-opacity="0.05"/>
<circle cx="393.514" cy="479.986" r="6.2007" fill="#CBBBF8" fill-opacity="0.05"/>
<circle cx="393.514" cy="529.591" r="6.2007" fill="#CBBBF8" fill-opacity="0.05"/>
<circle cx="443.12" cy="479.986" r="6.2007" fill="#CBBBF8" fill-opacity="0.05"/>
<circle cx="443.12" cy="529.591" r="6.2007" fill="#CBBBF8" fill-opacity="0.05"/>
<circle cx="341.429" cy="579.197" r="6.2007" fill="#CBBBF8" fill-opacity="0.05"/>
<circle cx="341.429" cy="628.802" r="6.2007" fill="#CBBBF8" fill-opacity="0.05"/>
<circle cx="394.755" cy="579.197" r="6.2007" fill="#CBBBF8" fill-opacity="0.05"/>
<circle cx="394.755" cy="628.802" r="6.2007" fill="#CBBBF8" fill-opacity="0.05"/>
<circle cx="444.361" cy="579.197" r="6.2007" fill="#CBBBF8" fill-opacity="0.05"/>
<circle cx="444.361" cy="628.802" r="6.2007" fill="#CBBBF8" fill-opacity="0.05"/>
<circle cx="182.201" cy="331.201" r="6.2007" fill="#CBBBF8" fill-opacity="0.05"/>
<circle cx="182.201" cy="380.806" r="6.2007" fill="#CBBBF8" fill-opacity="0.05"/>
<circle cx="235.527" cy="331.201" r="6.2007" fill="#CBBBF8" fill-opacity="0.05"/>
<circle cx="235.527" cy="380.806" r="6.2007" fill="#CBBBF8" fill-opacity="0.05"/>
<circle cx="285.133" cy="331.201" r="6.2007" fill="#CBBBF8" fill-opacity="0.05"/>
<circle cx="285.133" cy="380.806" r="6.2007" fill="#CBBBF8" fill-opacity="0.05"/>
<circle cx="183.441" cy="430.412" r="6.2007" fill="#CBBBF8" fill-opacity="0.05"/>
<circle cx="183.441" cy="480.018" r="6.2007" fill="#CBBBF8" fill-opacity="0.05"/>
<circle cx="236.767" cy="430.412" r="6.2007" fill="#CBBBF8" fill-opacity="0.05"/>
<circle cx="236.767" cy="480.018" r="6.2007" fill="#CBBBF8" fill-opacity="0.05"/>
<circle cx="286.373" cy="430.412" r="6.2007" fill="#CBBBF8" fill-opacity="0.05"/>
<circle cx="286.373" cy="480.018" r="6.2007" fill="#CBBBF8" fill-opacity="0.05"/>
<circle cx="183.735" cy="479.986" r="6.2007" fill="#CBBBF8" fill-opacity="0.05"/>
<circle cx="183.735" cy="529.591" r="6.2007" fill="#CBBBF8" fill-opacity="0.05"/>
<circle cx="237.061" cy="479.986" r="6.2007" fill="#CBBBF8" fill-opacity="0.05"/>
<circle cx="237.061" cy="529.591" r="6.2007" fill="#CBBBF8" fill-opacity="0.05"/>
<circle cx="286.667" cy="479.986" r="6.2007" fill="#CBBBF8" fill-opacity="0.05"/>
<circle cx="286.667" cy="529.591" r="6.2007" fill="#CBBBF8" fill-opacity="0.05"/>
<circle cx="184.976" cy="579.197" r="6.2007" fill="#CBBBF8" fill-opacity="0.05"/>
<circle cx="184.975" cy="628.802" r="6.2007" fill="#CBBBF8" fill-opacity="0.05"/>
<circle cx="238.301" cy="579.197" r="6.2007" fill="#CBBBF8" fill-opacity="0.05"/>
<circle cx="238.301" cy="628.802" r="6.2007" fill="#CBBBF8" fill-opacity="0.05"/>
<circle cx="287.907" cy="579.197" r="6.2007" fill="#CBBBF8" fill-opacity="0.05"/>
<circle cx="287.907" cy="628.802" r="6.2007" fill="#CBBBF8" fill-opacity="0.05"/>
<circle cx="341.656" cy="655.201" r="6.2007" fill="#CBBBF8" fill-opacity="0.05"/>
<circle cx="341.655" cy="704.806" r="6.2007" fill="#CBBBF8" fill-opacity="0.05"/>
<circle cx="394.981" cy="655.201" r="6.2007" fill="#CBBBF8" fill-opacity="0.05"/>
<circle cx="394.981" cy="704.806" r="6.2007" fill="#CBBBF8" fill-opacity="0.05"/>
<circle cx="444.587" cy="655.201" r="6.2007" fill="#CBBBF8" fill-opacity="0.05"/>
<circle cx="444.587" cy="704.806" r="6.2007" fill="#CBBBF8" fill-opacity="0.05"/>
<circle cx="342.896" cy="754.412" r="6.2007" fill="#CBBBF8" fill-opacity="0.05"/>
<circle cx="342.895" cy="804.018" r="6.2007" fill="#CBBBF8" fill-opacity="0.05"/>
<circle cx="396.222" cy="754.412" r="6.2007" fill="#CBBBF8" fill-opacity="0.05"/>
<circle cx="396.222" cy="804.018" r="6.2007" fill="#CBBBF8" fill-opacity="0.05"/>
<circle cx="445.827" cy="754.412" r="6.2007" fill="#CBBBF8" fill-opacity="0.05"/>
<circle cx="445.827" cy="804.018" r="6.2007" fill="#CBBBF8" fill-opacity="0.05"/>
<circle cx="343.189" cy="803.986" r="6.2007" fill="#CBBBF8" fill-opacity="0.05"/>
<circle cx="343.189" cy="853.591" r="6.2007" fill="#CBBBF8" fill-opacity="0.05"/>
<circle cx="396.514" cy="803.986" r="6.2007" fill="#CBBBF8" fill-opacity="0.05"/>
<circle cx="396.514" cy="853.591" r="6.2007" fill="#CBBBF8" fill-opacity="0.05"/>
<circle cx="446.12" cy="803.986" r="6.2007" fill="#CBBBF8" fill-opacity="0.05"/>
<circle cx="446.12" cy="853.591" r="6.2007" fill="#CBBBF8" fill-opacity="0.05"/>
<circle cx="344.429" cy="903.197" r="6.2007" fill="#CBBBF8" fill-opacity="0.05"/>
<circle cx="344.429" cy="952.802" r="6.2007" fill="#CBBBF8" fill-opacity="0.05"/>
<circle cx="397.755" cy="903.197" r="6.2007" fill="#CBBBF8" fill-opacity="0.05"/>
<circle cx="397.755" cy="952.802" r="6.2007" fill="#CBBBF8" fill-opacity="0.05"/>
<circle cx="447.361" cy="903.197" r="6.2007" fill="#CBBBF8" fill-opacity="0.05"/>
<circle cx="447.361" cy="952.802" r="6.2007" fill="#CBBBF8" fill-opacity="0.05"/>
<circle cx="185.201" cy="655.201" r="6.2007" fill="#CBBBF8" fill-opacity="0.05"/>
<circle cx="185.201" cy="704.806" r="6.2007" fill="#CBBBF8" fill-opacity="0.05"/>
<circle cx="238.527" cy="655.201" r="6.2007" fill="#CBBBF8" fill-opacity="0.05"/>
<circle cx="238.527" cy="704.806" r="6.2007" fill="#CBBBF8" fill-opacity="0.05"/>
<circle cx="288.133" cy="655.201" r="6.2007" fill="#CBBBF8" fill-opacity="0.05"/>
<circle cx="288.133" cy="704.806" r="6.2007" fill="#CBBBF8" fill-opacity="0.05"/>
<circle cx="186.441" cy="754.412" r="6.2007" fill="#CBBBF8" fill-opacity="0.05"/>
<circle cx="186.441" cy="804.018" r="6.2007" fill="#CBBBF8" fill-opacity="0.05"/>
<circle cx="239.767" cy="754.412" r="6.2007" fill="#CBBBF8" fill-opacity="0.05"/>
<circle cx="239.767" cy="804.018" r="6.2007" fill="#CBBBF8" fill-opacity="0.05"/>
<circle cx="289.373" cy="754.412" r="6.2007" fill="#CBBBF8" fill-opacity="0.05"/>
<circle cx="289.373" cy="804.018" r="6.2007" fill="#CBBBF8" fill-opacity="0.05"/>
<circle cx="186.735" cy="803.986" r="6.2007" fill="#CBBBF8" fill-opacity="0.05"/>
<circle cx="186.735" cy="853.591" r="6.2007" fill="#CBBBF8" fill-opacity="0.05"/>
<circle cx="240.061" cy="803.986" r="6.2007" fill="#CBBBF8" fill-opacity="0.05"/>
<circle cx="240.061" cy="853.591" r="6.2007" fill="#CBBBF8" fill-opacity="0.05"/>
<circle cx="289.667" cy="803.986" r="6.2007" fill="#CBBBF8" fill-opacity="0.05"/>
<circle cx="289.667" cy="853.591" r="6.2007" fill="#CBBBF8" fill-opacity="0.05"/>
<circle cx="187.976" cy="903.197" r="6.2007" fill="#CBBBF8" fill-opacity="0.05"/>
<circle cx="187.975" cy="952.802" r="6.2007" fill="#CBBBF8" fill-opacity="0.05"/>
<circle cx="241.301" cy="903.197" r="6.2007" fill="#CBBBF8" fill-opacity="0.05"/>
<circle cx="241.301" cy="952.802" r="6.2007" fill="#CBBBF8" fill-opacity="0.05"/>
<circle cx="290.907" cy="903.197" r="6.2007" fill="#CBBBF8" fill-opacity="0.05"/>
<circle cx="290.907" cy="952.802" r="6.2007" fill="#CBBBF8" fill-opacity="0.05"/>
<circle cx="966.656" cy="329.201" r="6.2007" fill="#CBBBF8" fill-opacity="0.05"/>
<circle cx="966.655" cy="378.806" r="6.2007" fill="#CBBBF8" fill-opacity="0.05"/>
<circle cx="1019.98" cy="329.201" r="6.2007" fill="#CBBBF8" fill-opacity="0.05"/>
<circle cx="1019.98" cy="378.806" r="6.2007" fill="#CBBBF8" fill-opacity="0.05"/>
<circle cx="1069.59" cy="329.201" r="6.2007" fill="#CBBBF8" fill-opacity="0.05"/>
<circle cx="1069.59" cy="378.806" r="6.2007" fill="#CBBBF8" fill-opacity="0.05"/>
<circle cx="967.896" cy="428.412" r="6.2007" fill="#CBBBF8" fill-opacity="0.05"/>
<circle cx="967.895" cy="478.018" r="6.2007" fill="#CBBBF8" fill-opacity="0.05"/>
<circle cx="1021.22" cy="428.412" r="6.2007" fill="#CBBBF8" fill-opacity="0.05"/>
<circle cx="1021.22" cy="478.018" r="6.2007" fill="#CBBBF8" fill-opacity="0.05"/>
<circle cx="1070.83" cy="428.412" r="6.2007" fill="#CBBBF8" fill-opacity="0.05"/>
<circle cx="1070.83" cy="478.018" r="6.2007" fill="#CBBBF8" fill-opacity="0.05"/>
<circle cx="968.189" cy="477.986" r="6.2007" fill="#CBBBF8" fill-opacity="0.05"/>
<circle cx="968.189" cy="527.591" r="6.2007" fill="#CBBBF8" fill-opacity="0.05"/>
<circle cx="1021.51" cy="477.986" r="6.2007" fill="#CBBBF8" fill-opacity="0.05"/>
<circle cx="1021.51" cy="527.591" r="6.2007" fill="#CBBBF8" fill-opacity="0.05"/>
<circle cx="1071.12" cy="477.986" r="6.2007" fill="#CBBBF8" fill-opacity="0.05"/>
<circle cx="1071.12" cy="527.591" r="6.2007" fill="#CBBBF8" fill-opacity="0.05"/>
<circle cx="969.43" cy="577.197" r="6.2007" fill="#CBBBF8" fill-opacity="0.05"/>
<circle cx="969.429" cy="626.802" r="6.2007" fill="#CBBBF8" fill-opacity="0.05"/>
<circle cx="1022.76" cy="577.197" r="6.2007" fill="#CBBBF8" fill-opacity="0.05"/>
<circle cx="1022.76" cy="626.802" r="6.2007" fill="#CBBBF8" fill-opacity="0.05"/>
<circle cx="1072.36" cy="577.197" r="6.2007" fill="#CBBBF8" fill-opacity="0.05"/>
<circle cx="1072.36" cy="626.802" r="6.2007" fill="#CBBBF8" fill-opacity="0.05"/>
<circle cx="810.201" cy="329.201" r="6.2007" fill="#CBBBF8" fill-opacity="0.05"/>
<circle cx="810.201" cy="378.806" r="6.2007" fill="#CBBBF8" fill-opacity="0.05"/>
<circle cx="863.527" cy="329.201" r="6.2007" fill="#CBBBF8" fill-opacity="0.05"/>
<circle cx="863.527" cy="378.806" r="6.2007" fill="#CBBBF8" fill-opacity="0.05"/>
<circle cx="913.133" cy="329.201" r="6.2007" fill="#CBBBF8" fill-opacity="0.05"/>
<circle cx="913.133" cy="378.806" r="6.2007" fill="#CBBBF8" fill-opacity="0.05"/>
<circle cx="811.441" cy="428.412" r="6.2007" fill="#CBBBF8" fill-opacity="0.05"/>
<circle cx="811.441" cy="478.018" r="6.2007" fill="#CBBBF8" fill-opacity="0.05"/>
<circle cx="864.767" cy="428.412" r="6.2007" fill="#CBBBF8" fill-opacity="0.05"/>
<circle cx="864.767" cy="478.018" r="6.2007" fill="#CBBBF8" fill-opacity="0.05"/>
<circle cx="914.373" cy="428.412" r="6.2007" fill="#CBBBF8" fill-opacity="0.05"/>
<circle cx="914.373" cy="478.018" r="6.2007" fill="#CBBBF8" fill-opacity="0.05"/>
<circle cx="811.735" cy="477.986" r="6.2007" fill="#CBBBF8" fill-opacity="0.05"/>
<circle cx="811.735" cy="527.591" r="6.2007" fill="#CBBBF8" fill-opacity="0.05"/>
<circle cx="865.061" cy="477.986" r="6.2007" fill="#CBBBF8" fill-opacity="0.05"/>
<circle cx="865.061" cy="527.591" r="6.2007" fill="#CBBBF8" fill-opacity="0.05"/>
<circle cx="914.667" cy="477.986" r="6.2007" fill="#CBBBF8" fill-opacity="0.05"/>
<circle cx="914.667" cy="527.591" r="6.2007" fill="#CBBBF8" fill-opacity="0.05"/>
<circle cx="812.976" cy="577.197" r="6.2007" fill="#CBBBF8" fill-opacity="0.05"/>
<circle cx="812.975" cy="626.802" r="6.2007" fill="#CBBBF8" fill-opacity="0.05"/>
<circle cx="866.301" cy="577.197" r="6.2007" fill="#CBBBF8" fill-opacity="0.05"/>
<circle cx="866.301" cy="626.802" r="6.2007" fill="#CBBBF8" fill-opacity="0.05"/>
<circle cx="915.907" cy="577.197" r="6.2007" fill="#CBBBF8" fill-opacity="0.05"/>
<circle cx="915.907" cy="626.802" r="6.2007" fill="#CBBBF8" fill-opacity="0.05"/>
<circle cx="969.656" cy="653.201" r="6.2007" fill="#CBBBF8" fill-opacity="0.05"/>
<circle cx="969.655" cy="702.806" r="6.2007" fill="#CBBBF8" fill-opacity="0.05"/>
<circle cx="1022.98" cy="653.201" r="6.2007" fill="#CBBBF8" fill-opacity="0.05"/>
<circle cx="1022.98" cy="702.806" r="6.2007" fill="#CBBBF8" fill-opacity="0.05"/>
<circle cx="1072.59" cy="653.201" r="6.2007" fill="#CBBBF8" fill-opacity="0.05"/>
<circle cx="1072.59" cy="702.806" r="6.2007" fill="#CBBBF8" fill-opacity="0.05"/>
<circle cx="970.896" cy="752.412" r="6.2007" fill="#CBBBF8" fill-opacity="0.05"/>
<circle cx="970.895" cy="802.018" r="6.2007" fill="#CBBBF8" fill-opacity="0.05"/>
<circle cx="1024.22" cy="752.412" r="6.2007" fill="#CBBBF8" fill-opacity="0.05"/>
<circle cx="1024.22" cy="802.018" r="6.2007" fill="#CBBBF8" fill-opacity="0.05"/>
<circle cx="1073.83" cy="752.412" r="6.2007" fill="#CBBBF8" fill-opacity="0.05"/>
<circle cx="1073.83" cy="802.018" r="6.2007" fill="#CBBBF8" fill-opacity="0.05"/>
<circle cx="971.189" cy="801.986" r="6.2007" fill="#CBBBF8" fill-opacity="0.05"/>
<circle cx="971.189" cy="851.591" r="6.2007" fill="#CBBBF8" fill-opacity="0.05"/>
<circle cx="1024.51" cy="801.986" r="6.2007" fill="#CBBBF8" fill-opacity="0.05"/>
<circle cx="1024.51" cy="851.591" r="6.2007" fill="#CBBBF8" fill-opacity="0.05"/>
<circle cx="1074.12" cy="801.986" r="6.2007" fill="#CBBBF8" fill-opacity="0.05"/>
<circle cx="1074.12" cy="851.591" r="6.2007" fill="#CBBBF8" fill-opacity="0.05"/>
<circle cx="972.43" cy="901.197" r="6.2007" fill="#CBBBF8" fill-opacity="0.05"/>
<circle cx="972.429" cy="950.802" r="6.2007" fill="#CBBBF8" fill-opacity="0.05"/>
<circle cx="1025.76" cy="901.197" r="6.2007" fill="#CBBBF8" fill-opacity="0.05"/>
<circle cx="1025.76" cy="950.802" r="6.2007" fill="#CBBBF8" fill-opacity="0.05"/>
<circle cx="1075.36" cy="901.197" r="6.2007" fill="#CBBBF8" fill-opacity="0.05"/>
<circle cx="1075.36" cy="950.802" r="6.2007" fill="#CBBBF8" fill-opacity="0.05"/>
<circle cx="813.201" cy="653.201" r="6.2007" fill="#CBBBF8" fill-opacity="0.05"/>
<circle cx="813.201" cy="702.806" r="6.2007" fill="#CBBBF8" fill-opacity="0.05"/>
<circle cx="866.527" cy="653.201" r="6.2007" fill="#CBBBF8" fill-opacity="0.05"/>
<circle cx="866.527" cy="702.806" r="6.2007" fill="#CBBBF8" fill-opacity="0.05"/>
<circle cx="916.133" cy="653.201" r="6.2007" fill="#CBBBF8" fill-opacity="0.05"/>
<circle cx="916.133" cy="702.806" r="6.2007" fill="#CBBBF8" fill-opacity="0.05"/>
<circle cx="814.441" cy="752.412" r="6.2007" fill="#CBBBF8" fill-opacity="0.05"/>
<circle cx="814.441" cy="802.018" r="6.2007" fill="#CBBBF8" fill-opacity="0.05"/>
<circle cx="867.767" cy="752.412" r="6.2007" fill="#CBBBF8" fill-opacity="0.05"/>
<circle cx="867.767" cy="802.018" r="6.2007" fill="#CBBBF8" fill-opacity="0.05"/>
<circle cx="917.373" cy="752.412" r="6.2007" fill="#CBBBF8" fill-opacity="0.05"/>
<circle cx="917.373" cy="802.018" r="6.2007" fill="#CBBBF8" fill-opacity="0.05"/>
<circle cx="814.735" cy="801.986" r="6.2007" fill="#CBBBF8" fill-opacity="0.05"/>
<circle cx="814.735" cy="851.591" r="6.2007" fill="#CBBBF8" fill-opacity="0.05"/>
<circle cx="868.061" cy="801.986" r="6.2007" fill="#CBBBF8" fill-opacity="0.05"/>
<circle cx="868.061" cy="851.591" r="6.2007" fill="#CBBBF8" fill-opacity="0.05"/>
<circle cx="917.667" cy="801.986" r="6.2007" fill="#CBBBF8" fill-opacity="0.05"/>
<circle cx="917.667" cy="851.591" r="6.2007" fill="#CBBBF8" fill-opacity="0.05"/>
<circle cx="815.976" cy="901.197" r="6.2007" fill="#CBBBF8" fill-opacity="0.05"/>
<circle cx="815.975" cy="950.802" r="6.2007" fill="#CBBBF8" fill-opacity="0.05"/>
<circle cx="869.301" cy="901.197" r="6.2007" fill="#CBBBF8" fill-opacity="0.05"/>
<circle cx="869.301" cy="950.802" r="6.2007" fill="#CBBBF8" fill-opacity="0.05"/>
<circle cx="918.907" cy="901.197" r="6.2007" fill="#CBBBF8" fill-opacity="0.05"/>
<circle cx="918.907" cy="950.802" r="6.2007" fill="#CBBBF8" fill-opacity="0.05"/>
<defs>
<filter id="filter0_f" x="0" y="0" width="1346" height="1204" filterUnits="userSpaceOnUse" color-interpolation-filters="sRGB">
<feFlood flood-opacity="0" result="BackgroundImageFix"/>
<feBlend mode="normal" in="SourceGraphic" in2="BackgroundImageFix" result="shape"/>
<feGaussianBlur stdDeviation="125" result="effect1_foregroundBlur"/>
</filter>
<linearGradient id="paint0_linear" x1="301.622" y1="198.859" x2="864.73" y2="827.215" gradientUnits="userSpaceOnUse">
<stop stop-color="#350DA8"/>
<stop offset="0.985656" stop-color="#8F5BFD"/>
</linearGradient>
<linearGradient id="paint1_linear" x1="598.751" y1="393.905" x2="582.574" y2="195.342" gradientUnits="userSpaceOnUse">
<stop stop-color="#5931D1"/>
<stop offset="1" stop-color="#110C2F"/>
</linearGradient>
<linearGradient id="paint2_linear" x1="598.751" y1="843.905" x2="582.574" y2="645.342" gradientUnits="userSpaceOnUse">
<stop stop-color="#5931D1"/>
<stop offset="1" stop-color="#110C2F"/>
</linearGradient>
</defs>
</svg>
