<svg width="878" height="726" viewBox="0 0 878 726" fill="none" xmlns="http://www.w3.org/2000/svg">
<g filter="url(#filter0_dii)">
<rect width="291.692" height="588.618" rx="60" transform="matrix(0.85333 -0.553828 0.898818 0.461986 50.0012 291.59)" fill="#0A090C"/>
</g>
<rect width="257.285" height="555.027" rx="50" transform="matrix(0.853181 -0.553916 0.898695 0.462076 79.8945 281.217)" fill="black"/>
<rect width="257.286" height="556.488" rx="40" transform="matrix(0.853176 -0.553919 0.898691 0.462079 78.877 281.061)" fill="url(#paint0_linear)"/>
<path d="M130.353 247.496L258.773 164.12C268.355 169.046 268.748 177.828 259.652 183.733L164.172 245.723C155.076 251.628 139.934 252.422 130.353 247.496Z" fill="#0E0721"/>
<path d="M296.068 93.8458C295.091 93.3478 293.92 93.4227 293.014 94.0411L86.5762 234.991C84.6877 236.28 84.8784 239.124 86.9222 240.149L564.307 479.74C565.31 480.243 566.511 480.144 567.419 479.483L763.259 336.821C765.069 335.503 764.849 332.74 762.855 331.723L296.068 93.8458Z" fill="url(#paint1_linear)"/>
<path d="M290.053 21.7832C289.083 21.3062 287.931 21.3882 287.038 21.9979L80.5762 162.964C78.6876 164.253 78.8783 167.097 80.9221 168.123L558.249 407.684C559.283 408.203 560.523 408.081 561.436 407.372L756.421 255.86C758.172 254.5 757.894 251.777 755.904 250.799L290.053 21.7832Z" fill="url(#paint2_linear)"/>
<mask id="mask0" mask-type="alpha" maskUnits="userSpaceOnUse" x="91" y="10" width="692" height="430">
<path d="M308.068 31.8458C307.091 31.3478 305.92 31.4227 305.014 32.0411L98.5762 172.991C96.6877 174.28 96.8784 177.124 98.9222 178.149L576.307 417.74C577.31 418.243 578.511 418.144 579.419 417.483L775.259 274.821C777.069 273.503 776.849 270.74 774.855 269.723L308.068 31.8458Z" fill="url(#paint3_linear)"/>
</mask>
<g mask="url(#mask0)">
<path d="M320.804 187.649C320.804 187.649 322.386 188.899 323.825 189.362C325.336 189.721 325.463 190.421 325.787 192.712C326.127 195.09 330.319 193.789 330.319 193.789C330.319 193.789 328.922 191.06 327.842 189.086C326.761 187.113 320.804 187.649 320.804 187.649ZM332.867 189.894C333.154 189.48 330.513 189.868 331.317 188.819C332.121 187.77 332.949 186.354 332.949 186.354L331.876 185.916C330.762 186.75 329.058 189.318 330.083 190.488C331.124 191.746 332.581 190.307 332.867 189.894ZM331.931 197.203C333.959 197.92 337.625 198.702 338.371 199.833C339.046 201.066 339.117 202.951 339.117 202.951C339.117 202.951 341.075 200.789 337.665 198.424C334.167 196.075 331.599 194.371 331.599 194.371C331.599 194.371 331.495 195.293 330.636 195.539C329.761 195.698 328.051 195.736 328.051 195.736L330.372 197.575C330.269 197.504 331.256 196.964 331.931 197.203ZM427.23 275.385C425.814 275.551 422.543 277.95 420.786 277.726C419.116 277.486 417.836 276.905 416.11 277.85C414.383 278.795 414.716 279.638 413.228 280.902C411.74 282.165 410.984 282.483 410.125 282.729C409.266 282.975 408.327 283.777 407.841 284.588C407.284 285.502 405.724 286.869 406.058 287.713C406.375 288.469 408.92 288.55 410.487 287.724C411.951 286.826 424.228 280.266 425.167 279.464C426.106 278.661 426.719 277.556 427.38 276.713C427.921 275.712 428.645 275.219 427.23 275.385ZM521.61 283.604C518.929 284.27 517.068 283.974 515.788 284.387C514.491 284.712 512.78 285.745 512.28 285.474C511.779 285.203 511.557 283.978 510.324 284.653C508.366 285.821 504.468 288.243 504.665 289.834C504.863 291.425 507.756 293.432 507.708 294.164C507.747 294.88 510.801 294.779 512.234 293.706C513.579 292.649 514.183 291.997 515.87 291.331C517.557 290.664 518.551 289.67 519.036 289.854C519.521 290.037 520.134 289.926 520.819 288.718C521.504 287.509 522.148 286.579 523.198 286.389C524.248 286.199 525.123 286.041 525.466 285.436C525.88 284.729 526.55 282.439 526.009 282.446C525.611 282.247 524.306 283.025 521.61 283.604ZM537.497 352.394C537.012 352.21 536.861 350.882 537.093 349.665C537.324 348.448 536.793 347.008 536.506 347.422C536.116 347.763 535.653 350.197 534.722 351.54C533.703 352.9 532.263 352.437 532.048 352.747C531.833 353.057 532.517 353.837 532.405 354.219C532.294 354.601 531.331 354.775 530.568 354.552C529.805 354.328 529.734 353.438 529.336 353.238C528.939 353.039 525.772 354.516 522.567 355.277C519.377 356.126 518.018 355.107 516.339 356.314C515.774 356.688 515.073 357.809 516.615 358.343C518.174 358.964 521.069 357.988 522.828 357.218C524.57 356.361 524.784 357.045 525.778 357.045C526.772 357.046 528.285 355.417 529.319 355.139C530.44 354.846 530.21 355.068 531.18 355.435C532.237 355.786 534.035 354.737 535.531 354.015C537.027 353.292 537.519 354.016 538.792 353.063C540.185 352.269 537.981 352.577 537.497 352.394ZM500.386 343.568C499.011 343.455 499.99 342.374 498.86 342.127C498.113 341.991 495.343 345.655 497.338 346.198C499.247 346.756 503.671 343.244 503.783 342.862C503.704 342.425 501.762 343.68 500.386 343.568ZM440.108 186.295C439.512 186.494 439.257 186.088 438.843 186.796C438.358 187.606 441.253 187.625 442.191 187.816C443.042 188.024 444.561 187.93 445.126 187.556C445.587 187.111 446.383 186.515 446.717 186.364C447.067 186.301 447.815 185.443 447.49 185.14C447.164 184.837 445.574 184.041 444.961 184.152C444.349 184.263 443.609 184.668 443.211 184.469C442.814 184.269 441.144 184.029 440.849 184.896C440.538 185.675 440.705 186.097 440.108 186.295ZM451.396 171.781C452.351 171.065 453.068 170.032 450.46 169.6C447.764 169.185 446.507 169.231 445.49 168.602C444.385 167.989 443.455 166.35 440.846 166.912C438.937 167.348 440.423 170.062 442.426 171.145C444.429 172.228 450.457 172.583 451.396 171.781ZM388.586 169.234C388.093 168.509 385.285 169.47 383.861 170.089C382.421 170.621 381.132 171.487 380.504 171.51C379.804 171.637 382.292 172.903 383.246 173.182C384.2 173.462 384.797 173.263 384.852 174.067C384.907 174.87 386.458 174.951 386.848 174.609C387.238 174.267 387.485 173.138 388.106 172.574C388.727 172.01 387.287 171.547 386.914 170.982C386.437 170.345 388.943 169.711 388.586 169.234ZM372.163 146.902C371.869 146.775 371.647 146.544 371.137 146.726C370.628 146.909 370.509 146.75 370.294 147.06C370.079 147.37 370.699 147.8 371.487 147.657C372.203 147.618 373.268 147.515 373.324 147.325C373.38 147.134 372.37 147.045 372.163 146.902ZM374.731 148.606C374.19 148.614 373.768 148.78 373.728 149.059C373.673 149.25 373.657 149.162 373.601 149.353C373.561 149.631 374.889 149.481 375.454 149.108C376.003 148.647 375.256 148.511 374.731 148.606ZM368.062 154.694C367.768 154.566 367.29 154.924 367.147 155.13C367.003 155.337 367.878 155.179 368.26 155.29C368.745 155.474 370.049 155.689 370.081 155.864C370.113 156.039 371.234 155.746 370.733 155.475C370.232 155.204 368.92 155.442 369.032 155.06C369.159 154.766 369.199 154.488 368.833 154.464C368.483 154.527 368.443 154.805 368.062 154.694ZM336.172 120.793C336.951 121.104 337.697 122.234 337.657 122.512C337.617 122.79 341.22 123.223 341.538 122.984C341.872 122.834 342.707 122.954 343.845 122.748C344.982 122.542 349.101 123.332 349.26 123.213C349.42 123.094 347.687 121.51 347.027 121.358C346.454 121.191 344.824 120.672 344.244 119.964C343.664 119.256 340.221 118.704 339.839 118.593C339.458 118.481 339.275 118.966 338.55 119.459C337.811 119.864 337.016 119.465 335.806 119.775C334.685 120.068 335.392 120.482 336.172 120.793ZM347.15 127.029C346.427 126.528 343.158 125.945 342.912 126.08C342.665 126.215 343.007 126.605 343.261 127.01C343.515 127.416 344.938 127.791 345.606 128.484C346.274 129.176 347.347 129.615 348.905 130.236C350.551 130.842 352.436 130.772 353.828 130.972C355.203 131.084 356.952 132.756 358.288 133.147C359.608 133.45 360.689 133.435 360.832 133.228C360.976 133.022 362.503 132.474 362.527 132.108C362.567 131.83 361.414 131.948 361.239 131.98C361.064 132.012 359.546 131.112 359.085 130.562C358.536 130.029 359.061 129.934 359.38 129.696C359.698 129.457 359.34 128.98 359.524 128.495C359.691 127.922 360.598 127.939 361.266 127.637C362.022 127.32 360.495 126.873 359.819 126.634C359.231 126.379 358.809 126.545 358.491 126.784C358.173 127.022 357.505 126.33 356.965 126.337C356.424 126.345 356.009 128.047 355.731 128.007C355.452 127.967 355.27 126.463 354.913 125.986C354.555 125.508 353.943 125.619 353.815 125.913C353.688 126.207 352.837 126 353.068 125.777C353.299 125.555 351.915 124.902 351.136 124.591C350.357 124.28 350.548 124.336 350.572 123.97C350.509 123.62 347.582 123.427 346.644 123.235C345.705 123.043 344.934 123.273 344.584 123.337C344.234 123.4 342.786 123.391 342.747 123.669C342.707 123.948 343.303 123.749 343.645 124.139C343.987 124.529 347.016 124.794 346.539 125.152C346.149 125.494 342.921 124.632 342.849 124.735C342.777 124.839 344.24 125.93 346.132 126.4C348.025 126.871 348.78 127.548 348.692 127.564C348.692 127.564 347.873 127.531 347.15 127.029ZM365.406 132.039C366.138 132.087 366.623 132.27 367.355 132.319C368.102 132.455 368.595 132.185 368.97 131.755C369.344 131.326 368.636 130.912 368.851 130.602C368.979 130.308 369.885 130.324 369.838 130.062C369.878 129.783 369.249 129.807 368.923 129.504C368.598 129.202 366.602 128.659 366.117 128.476C365.632 128.293 364.669 128.467 364.566 128.395C364.463 128.324 365.559 129.39 364.931 129.414C364.303 129.437 363.444 128.689 363.063 128.577C362.506 128.497 362.204 128.823 362.323 128.982C362.458 129.229 362.76 129.897 363.054 130.025C363.348 130.152 364.23 130.535 364.413 131.044C364.54 131.744 364.675 131.991 365.406 132.039ZM375.134 130.368C375.437 130.042 375.429 129.501 374.857 129.334C374.284 129.167 373.537 129.031 373.004 128.585C372.472 128.139 373.052 128.847 372.614 128.927C372.177 129.006 371.842 129.157 371.842 129.157C371.978 129.403 373.289 130.16 373.965 130.399C374.537 130.567 374.832 130.694 375.134 130.368ZM367.645 126.934C367.708 127.284 368.185 127.921 368.67 128.104C369.155 128.288 370.825 128.528 371.159 128.377C371.493 128.226 372.44 127.964 372.257 127.455C372.059 126.858 371.399 126.707 370.707 126.38C370.103 126.037 369.69 125.751 368.942 125.615C368.211 125.567 367.145 125.669 366.731 125.382C366.302 125.008 365.547 124.332 365.166 124.22C364.784 124.108 364.553 124.331 364.513 124.609C364.489 124.975 365.157 125.668 365.57 125.954C365.983 126.241 367.653 126.481 367.645 126.934ZM364.258 126.192C364.576 125.953 364.727 125.293 362.978 125.61C362.715 125.658 363.939 126.43 364.258 126.192ZM358.017 122.17C358.24 122.401 359.297 122.752 358.963 122.903C358.629 123.054 358.176 123.045 358.382 123.189C358.589 123.332 358.987 123.531 358.724 123.579C358.462 123.626 356.832 123.108 356.681 122.774C356.514 122.352 356.657 122.145 356.26 121.946C355.862 121.747 354.407 121.197 354.447 120.919C354.487 120.64 353.605 120.258 352.595 120.17C351.585 120.081 349.191 120.334 349.119 120.437C349.048 120.541 350.24 121.138 350.55 121.353C350.876 121.656 352.371 121.927 352.737 121.951C353.174 121.872 353.349 121.84 353.381 122.015C353.413 122.19 355.13 122.693 355.058 122.796C354.987 122.9 352.14 122.15 351.997 122.356C351.941 122.547 353.69 123.225 354.644 123.504C355.67 123.68 358.159 123.952 358.779 124.382C359.399 124.812 361.721 125.657 362.723 125.204C363.304 124.918 363.241 124.568 362.549 124.242C361.873 124.003 361.086 124.145 360.975 123.533C360.864 122.92 360.976 122.538 360.769 122.395C360.546 122.164 359.25 122.489 358.852 122.29C358.264 122.035 357.795 121.939 358.017 122.17ZM345.081 118.096C345.773 118.422 345.279 118.692 346.305 118.868C347.331 119.044 347.928 118.846 348.206 118.885C348.484 118.925 350.274 118.33 350.107 118.903C349.939 119.475 350.512 119.643 350.949 119.564C351.315 119.588 352.5 119.644 352.675 119.613C352.85 119.581 352.826 118.953 353.296 119.049C353.765 119.144 353.757 118.604 354.608 118.811C355.546 119.003 356.397 119.21 356.461 119.56C356.524 119.91 357.366 120.571 358.186 120.603C359.005 120.636 359.911 120.653 360.468 120.732C361.025 120.812 362.106 120.797 361.78 120.495C361.455 120.192 360.492 120.367 359.641 120.159C358.806 120.039 359.005 119.642 358.33 119.403C357.566 119.179 356.994 119.012 355.968 118.836C354.942 118.66 353.304 118.595 352.191 118.435C351.165 118.259 350.704 117.71 348.978 117.661C347.165 117.628 344.628 117.093 344.175 117.085C343.666 117.267 344.389 117.769 345.081 118.096ZM350.09 119.81C350.058 119.635 348.007 119.283 347.394 119.394C347.219 119.426 348.443 120.198 348.881 120.119C349.318 120.04 350.122 119.985 350.09 119.81ZM364.673 123.496C364.689 123.583 366.279 124.38 366.454 124.348C366.629 124.317 365.405 122.55 364.92 122.367C364.451 122.271 364.641 123.321 364.673 123.496ZM367.402 122.098C367.744 122.488 366.686 122.137 366.63 122.328C366.59 122.606 368.22 123.125 368.411 123.181C368.69 123.221 368.522 123.793 368.951 124.167C369.484 124.613 369.842 124.096 370.486 124.161C371.13 124.225 371.67 125.211 372.402 125.26C373.134 125.308 372.808 125.005 372.776 124.83C372.745 124.655 372.411 123.812 372.189 123.581C371.966 123.35 371.084 122.968 370.304 122.657C369.525 122.346 369.327 121.75 368.651 121.51C367.975 121.271 367.339 120.754 366.949 121.096C366.878 121.199 367.044 121.621 367.402 122.098ZM374.168 125.03C374.39 125.261 375.114 125.763 374.573 125.77C374.048 125.865 373.316 125.817 373.714 126.016C374.111 126.216 374.915 126.16 375.169 126.566C375.407 126.885 376.17 127.108 376.671 127.379C377.172 127.65 378.405 127.969 378.755 127.905C379.105 127.842 377.371 127.252 377.411 126.974C377.364 126.711 378.127 126.935 377.976 126.6C377.929 126.338 376.752 125.828 376.514 125.509C376.275 125.191 374.924 124.713 374.82 124.641C374.717 124.57 374.733 124.657 374.733 124.657C374.335 124.458 373.929 124.712 374.168 125.03ZM378.645 125.304C379.321 125.544 381.683 126.11 381.523 126.229C381.38 126.436 379.194 125.838 379.066 126.132C378.851 126.442 379.853 126.984 380.044 127.039C380.234 127.095 381.427 127.693 382.015 127.948C382.604 128.203 383.955 128.681 384.249 128.808C384.544 128.936 385.689 128.277 385.88 128.333C386.055 128.301 385.538 128.937 386.341 128.882C387.144 128.827 388.448 129.042 388.448 129.042C388.448 129.042 387.971 129.4 387.868 129.328C387.764 129.257 386.651 129.097 386.404 129.232C386.142 129.279 386.897 129.956 387.279 130.068C387.764 130.251 388.392 130.228 388.392 130.228C388.392 130.228 387.095 130.553 387.596 130.823C388.169 130.991 389.226 131.342 389.87 131.406C390.499 131.383 390.634 131.629 390.459 131.661C390.196 131.708 388.558 131.643 387.707 131.436C386.856 131.229 386.889 130.409 386.229 130.258C385.553 130.019 384.654 129.549 384.495 129.668C384.32 129.699 385.536 130.925 384.67 130.63C383.89 130.319 382.38 129.96 381.926 129.952C381.473 129.944 380.686 130.086 381.258 130.254C381.846 130.509 384.653 131.537 384.653 131.537C384.653 131.537 388.167 132.979 389.034 133.274C389.9 133.569 390.385 133.753 390.799 134.039C391.212 134.326 393.232 134.503 393.614 134.614C393.995 134.726 395.021 134.902 394.401 134.472C393.781 134.042 392.923 133.293 393.67 133.429C394.402 133.477 396.303 133.495 396.788 133.678C397.273 133.862 398.855 134.117 399.539 133.903C400.223 133.689 397.52 132.732 398.443 132.836C399.262 132.869 401.107 133.077 401.297 133.133C401.488 133.189 403.969 133.914 405.257 134.043C406.458 134.187 406.705 134.052 408.343 134.117C409.981 134.182 414.395 135.1 414.554 134.981C414.816 134.933 410.403 134.015 411.119 133.976C411.835 133.937 413.711 134.32 414.96 134.726C416.208 135.133 417.79 135.389 418.331 135.381C418.872 135.374 419.46 135.629 419.619 135.51C419.763 135.303 417.123 134.696 417.234 134.315C417.243 133.861 416.098 133.526 414.706 133.326C413.314 133.126 413.927 133.016 413.219 132.601C412.512 132.187 410.246 131.151 409.276 130.785C408.306 130.418 406.93 130.306 406.414 129.947C405.809 129.605 403.178 128.545 403.416 128.863C403.567 129.198 404.306 129.787 403.837 129.691C403.368 129.595 403.169 128.998 401.611 128.377C400.14 127.739 398.733 127.452 397.62 127.292C396.506 127.132 396.291 127.442 396.291 127.442C396.291 127.442 399.01 128.486 398.47 128.494C397.945 128.589 397.062 128.206 396.426 127.689C395.806 127.259 395.6 127.115 394.876 126.614C394.169 126.199 393.358 125.714 392.61 125.578C391.879 125.53 391.942 125.88 390.622 125.576C389.286 125.185 388.841 124.724 387.919 124.62C386.981 124.428 385.82 124.006 385.207 124.116C384.611 124.315 386.431 124.889 386.829 125.088C387.211 125.2 386.686 125.295 386.98 125.422C387.29 125.637 387.966 125.876 388.745 126.187C389.524 126.498 389.158 126.474 389.381 126.705C389.603 126.936 389.46 127.142 390.342 127.525C391.209 127.82 392.354 128.155 392.895 128.147C393.436 128.14 393.03 128.394 393.706 128.633C394.382 128.872 395.073 129.199 396.186 129.359C397.3 129.519 398.366 129.416 398.835 129.512C399.304 129.608 397.944 129.583 398.532 129.838C399.121 130.093 400.576 130.643 400.663 130.627C400.766 130.699 401.959 131.296 400.52 130.834C399.096 130.459 397.57 130.012 397.57 130.012C397.57 130.012 396.632 129.82 395.502 129.573C394.373 129.326 392.902 128.688 393.141 129.006C393.379 129.325 393.53 129.659 393.824 129.786C394.118 129.914 393.474 129.85 394.341 130.145C395.104 130.368 396.162 130.719 395.342 130.686C394.523 130.654 393.585 130.462 393.275 130.247C392.949 129.945 393.307 129.428 392.616 129.101C391.924 128.775 390.882 128.511 390.278 128.169C389.674 127.826 388.641 127.11 388.839 127.707C389.038 128.303 390.143 128.917 390.071 129.02C389.999 129.123 389.737 129.171 390.619 129.553C391.502 129.936 392.416 130.493 392.519 130.565C392.623 130.637 392.908 131.217 391.628 130.636C390.348 130.054 389.203 129.719 388.997 129.576C388.79 129.432 388.814 129.067 388.989 129.035C389.164 129.003 389.117 128.741 389.013 128.669C388.823 128.613 388.131 128.287 387.996 128.04C387.773 127.809 387.805 127.984 388.02 127.674C388.251 127.452 387.901 127.515 387.837 127.165C387.79 126.902 388.378 127.157 387.862 126.799C387.345 126.441 387.313 126.266 387.067 126.401C386.82 126.536 386.987 126.957 386.645 126.567C386.303 126.177 386.788 126.361 386.287 126.09C385.771 125.732 386.112 126.122 385.302 125.636C384.491 125.15 384.729 125.468 384.483 124.609C384.15 123.766 383.712 123.845 383.036 123.606C382.361 123.367 382.552 123.422 382.552 123.422C381.788 123.199 381.923 123.446 380.547 123.333C379.172 123.221 377.987 123.164 377.963 123.53C377.914 124.262 378.057 125.049 378.645 125.304ZM386.257 134.41C386.655 134.609 385.796 134.855 386.559 135.078C387.322 135.301 388.245 135.405 388.746 135.676C389.318 135.844 390.169 136.051 390.487 135.813C390.821 135.662 390.551 135.169 390.361 135.113C390.17 135.057 389.296 134.221 388.357 134.029C387.419 133.838 383.753 133.055 383.34 132.769C382.926 132.482 382.362 131.861 381.79 131.694C381.201 131.439 379.786 130.611 379.946 130.491C380.105 130.372 380.486 130.484 380.161 130.181C379.922 129.863 380.312 129.521 379.199 129.361C378.07 129.114 377.131 128.922 377.275 128.716C377.418 128.509 377.752 128.358 377.164 128.103C376.575 127.848 376.313 127.896 375.828 127.712C375.343 127.529 373.713 127.011 373.626 127.026C373.172 127.018 374.118 127.751 374.444 128.053C374.77 128.356 374.555 128.666 374.777 128.896C374.912 129.143 375.302 128.801 375.581 128.841C375.859 128.881 376.813 129.161 377.02 129.304C377.226 129.447 377.743 129.806 377.337 130.06C377.019 130.298 376.606 130.011 376.613 130.552C376.621 131.093 376.287 131.244 376.684 131.443C377.082 131.642 377.432 131.579 377.813 131.691C378.107 131.818 377.67 131.897 378.067 132.097C378.481 132.383 379.125 132.447 379.387 132.4C379.666 132.44 380.262 132.241 380.207 132.432C380.063 132.639 379.212 132.432 380.182 132.798C381.137 133.077 383.442 133.835 384.134 134.161C384.826 134.488 385.207 134.6 385.47 134.552C385.804 134.401 385.844 134.123 386.257 134.41ZM381.672 129.546C382.213 129.539 382.785 129.706 382.547 129.388C382.396 129.054 381.514 128.671 380.854 128.519C380.297 128.44 379.772 128.535 380.066 128.662C380.36 128.79 380.639 128.83 380.686 129.092C380.837 129.426 381.219 129.538 381.672 129.546ZM447.609 163.338C447.609 163.338 445.988 162.367 444.668 162.064C443.348 161.76 441.797 161.679 441.733 161.329C441.758 160.964 442.99 161.283 443.356 161.307C443.722 161.331 445.447 161.38 444.859 161.125C444.271 160.87 442.553 160.368 443.285 160.416C444.001 160.377 445.806 160.863 445.233 160.696C444.661 160.528 442.451 159.302 443.787 159.693C445.122 160.083 446.291 161.047 446.489 161.643C446.687 162.24 446.854 162.662 447.617 162.885C448.397 163.196 448.532 163.443 449.097 163.069C449.574 162.712 450.099 162.617 449.757 162.227C449.416 161.837 448.883 161.391 448.47 161.104C448.144 160.802 447.445 159.934 447.516 159.831C447.588 159.727 444.694 158.715 446.348 158.867C448.002 159.02 449.06 159.371 448.98 159.927C448.987 160.468 449.392 161.208 450.299 161.225C451.206 161.241 451.349 161.035 451.007 160.645C450.665 160.255 449.051 159.824 449.131 159.267C449.124 158.726 449.768 158.791 449.768 158.791L452.272 160.145C452.272 160.145 453.505 160.464 453.592 160.448C453.664 160.345 453.616 160.082 454.213 159.884C454.809 159.685 454.555 159.279 454.651 158.81C454.747 158.341 455.43 159.121 455.74 159.336C455.963 159.567 456.543 160.275 457.044 159.552C457.546 158.828 457.483 158.478 457.666 157.993C457.865 157.596 457.992 157.302 458.374 157.413C458.756 157.525 458.738 159.426 459.057 159.188C459.447 158.846 459.98 158.297 460.139 158.178C460.298 158.059 460.107 158.003 459.821 157.422C459.536 156.842 460.346 157.327 460.896 156.866C461.445 156.406 461.596 155.746 462.352 155.428C463.124 155.198 463.609 155.381 464.253 155.445C464.897 155.51 466.193 155.184 467.044 155.392C467.895 155.599 468.245 155.536 470.281 155.8C472.229 156.08 474.288 156.972 472.889 156.232C471.49 155.491 469.343 154.614 468.477 154.319C467.61 154.024 466.092 153.124 465.36 153.076C464.628 153.028 464.342 153.441 463.778 152.82C463.197 152.112 464.502 152.328 463.047 151.778C461.592 151.228 458.028 151.511 458.578 151.05C459.127 150.589 461.973 151.339 462.896 151.444C463.818 151.548 465.782 151.915 465.003 151.604C464.137 151.309 463.119 150.68 462.046 150.242C460.972 149.803 458.714 149.309 458.929 148.999C459.247 148.76 460.138 148.689 459.256 148.307C458.389 148.012 457.658 146.969 456.051 147.079C454.445 147.189 452.712 145.605 451.655 145.254C450.597 144.904 443.656 142.997 442.097 142.376C440.452 141.77 438.647 141.283 437.573 140.845C436.428 140.51 433.717 140.007 434.893 140.517C436.07 141.027 438.217 141.903 437.413 141.958C436.61 142.013 434.702 141.455 434.63 141.558C434.559 141.662 436.721 142.626 435.799 142.522C434.876 142.418 433.19 142.09 433.135 141.287C433.08 140.483 433.335 139.895 432.763 139.728C432.19 139.56 429.988 138.874 430.051 139.224C430.027 139.59 430.416 140.243 429.931 140.059C429.446 139.876 429.049 139.677 428.882 139.255C428.715 138.834 428.326 138.181 427.801 138.276C427.379 138.443 427.784 139.183 426.743 138.919C425.701 138.656 425.454 138.791 425.614 138.672C425.685 138.569 426.894 138.259 425.734 137.837C424.573 137.415 420.884 136.004 421.122 136.322C421.36 136.64 421.424 136.99 420.955 136.895C420.469 136.711 420.684 136.401 419.818 136.106C418.951 135.811 418.72 136.034 418.108 136.145C417.495 136.256 418.338 136.916 417.336 136.375C416.35 135.921 417.17 135.953 415.937 135.634C414.705 135.315 413.846 135.561 413.201 135.497C412.557 135.432 409.448 134.73 410.156 135.144C410.863 135.558 411.038 135.527 412.096 135.878C413.153 136.228 415.881 136.819 415.356 136.914C414.831 137.009 414.043 137.152 413.351 136.825C412.747 136.483 412.676 136.586 412.676 136.586C411.332 136.648 409.765 136.48 408.397 135.914C407.046 135.436 405.026 135.26 404.541 135.076C404.056 134.893 402.617 134.43 402.314 134.756C402.012 135.082 402.329 135.838 403.212 136.221C404.198 136.675 407.998 137.704 407.664 137.855C407.346 138.093 403.514 136.889 403.251 136.936C403.06 136.881 402.138 136.776 402.789 137.381C403.457 138.074 405.318 138.37 404.984 138.521C404.65 138.671 403.83 138.639 404.522 138.966C405.214 139.292 406.43 139.524 407.957 139.971C409.396 140.433 410.573 140.943 411.646 141.381C412.719 141.82 413.53 142.305 413.872 142.695C414.214 143.085 414.619 143.825 414.348 144.326C414.077 144.827 414.179 146.887 413.733 147.42C413.2 147.968 412.357 148.302 413.605 148.708C414.853 149.115 416.213 149.14 416.611 149.339C417.008 149.538 417.748 150.127 417.358 150.469C416.968 150.811 416.76 151.662 416.331 151.288C415.886 150.826 414.368 149.926 413.739 149.949C413.095 149.885 412.57 149.98 412.164 150.234C411.759 150.489 411.154 151.14 412.18 151.316C413.205 151.492 413.842 151.015 414.812 151.382C415.782 151.748 416.076 151.876 415.949 152.17C415.734 152.48 416.72 152.934 415.169 152.854C413.618 152.773 413.22 152.574 412.632 152.319C412.06 152.151 411.169 152.222 411.026 152.429C410.866 152.548 410.261 153.2 409.712 153.661C409.163 154.121 408.233 154.471 408.208 154.837C408.184 155.202 408.629 155.664 408.374 156.252C408.032 156.857 408.35 156.618 407.976 157.048C407.514 157.493 407.236 157.453 407.578 157.843C407.92 158.233 408.731 157.724 408.015 158.758C407.298 159.791 408.244 160.524 408.204 160.802C408.092 161.184 407.321 161.414 408.307 161.868C409.292 162.322 410.612 162.625 410.723 163.238C410.85 163.938 411.112 164.885 411.931 164.917C412.837 164.934 413.299 164.489 414.636 163.885C415.972 163.282 416.649 162.527 417.818 162.496C419.074 162.449 418.851 163.212 420.284 162.14C421.644 161.17 420.308 160.78 422.328 160.956C424.348 161.133 422.662 160.805 424.698 161.07C426.822 161.318 427.927 161.931 428.507 161.645C429.088 161.359 432.532 160.917 434.29 161.141C435.959 161.381 436.301 161.771 437.677 161.883C439.069 162.083 442.083 162.26 442.584 162.531C443.084 162.802 445.423 162.74 446.17 162.876C446.853 163.656 447.609 163.338 447.609 163.338ZM550.38 267.822C551.335 267.107 552.075 266.702 552.13 266.511C552.186 266.32 552.051 266.074 552.051 266.074C551.184 265.779 550.739 266.311 550.214 266.406C549.689 266.501 548.536 266.62 548.153 267.502C547.771 268.385 547.548 269.148 547.492 269.339C547.277 269.649 549.425 268.537 550.38 267.822ZM538.827 274.884C538.548 275.838 537.322 277.054 538.014 277.381C538.689 277.62 540.368 277.407 539.516 278.193C538.752 278.964 540.231 279.148 539.173 279.792C538.131 280.523 538.178 280.785 537.693 280.602C537.208 280.419 537.646 280.34 536.914 280.291C536.182 280.243 535.657 280.338 535.577 280.895C535.497 281.451 535.895 281.651 535.227 281.952C534.558 282.254 533.254 283.032 533.985 283.081C534.629 283.145 536.571 281.89 537.493 281.994C538.4 282.01 538.932 282.456 538.399 283.005C537.866 283.553 537.611 284.141 536.808 284.196C536.092 284.236 535.662 284.856 534.795 284.561C533.929 284.266 534.653 283.773 533.69 283.947C532.744 284.209 532.489 283.803 531.781 284.383C531.55 284.606 531.216 284.757 530.81 285.011C531.423 284.9 532.139 284.861 532.433 284.988C533.371 285.18 534.143 284.95 533.681 285.395C533.22 285.84 532.583 286.317 532.615 286.492C532.646 286.667 533.004 287.144 532.964 287.423C532.924 287.701 534.261 286.103 535.208 285.842C536.154 285.58 535.135 286.939 535.685 286.478C536.234 286.017 537.435 285.167 538.183 284.309C538.947 283.538 538.822 281.844 539.243 281.677C539.752 281.494 540.627 281.336 540.898 280.835C541.153 280.247 539.848 281.025 540.342 279.761C540.836 278.497 540.948 278.115 541.083 277.367C541.219 276.62 541.53 275.841 542.214 275.626C542.898 275.412 545.237 274.356 544.792 273.895C544.347 273.433 544.021 273.13 544.021 273.13C543.33 272.804 544.062 271.858 542.876 272.795C541.691 273.733 540.918 274.957 540.274 274.893C539.702 274.726 539.106 273.93 538.827 274.884ZM529.18 285.487C529.649 285.583 530.317 285.281 530.985 284.979C529.832 285.098 528.711 285.391 529.18 285.487ZM530.058 280.357C529.024 280.635 527.394 281.111 527.385 281.564C527.353 282.384 531.45 280.557 531.832 280.669C532.213 280.781 532.707 280.511 533.168 280.066C533.614 279.533 535.261 279.145 535.094 278.723C535.015 278.285 534.481 278.834 532.795 279.501C531.196 280.152 531.093 280.08 530.058 280.357ZM513.361 295.942C512.693 296.244 513.09 297.437 513.877 297.294C514.665 297.152 514.339 296.849 515.366 296.031C516.376 295.125 516.703 294.433 517.506 294.378C518.397 294.307 517.505 295.372 516.916 296.112C516.224 296.779 515.81 297.487 516.191 297.599C516.573 297.71 516.31 298.752 517.106 298.156C517.989 297.544 518.522 296.996 519 296.638C519.565 296.265 519.533 296.09 519.669 295.342C519.804 294.595 519.343 294.046 519.868 293.951C520.393 293.856 521.674 293.443 521.897 293.674C522.119 293.905 520.989 294.651 521.403 294.938C521.816 295.225 523.454 295.29 523.78 295.592C524.106 295.895 523.891 296.205 523.342 296.666C522.793 297.126 521.822 297.754 523.023 297.898C524.224 298.042 524.804 297.756 525.568 297.98C526.244 298.219 527.428 299.27 527.428 299.27C527.428 299.27 528.463 297.998 526.499 297.63C524.534 297.263 523.19 297.326 523.58 296.984C523.97 296.642 525.975 295.737 524.814 295.315C523.741 294.876 521.522 295.097 522.254 294.151C522.899 293.221 523.702 293.166 521.961 293.03C520.219 292.893 519.519 293.02 518.898 293.584C518.262 294.061 517.761 293.79 518.223 293.345C518.684 292.9 520.141 291.461 520.141 291.461C521.302 290.889 522.383 291.869 523.146 292.092C523.926 292.403 525.858 292.595 526.526 292.293C527.179 291.904 528.062 291.292 528.062 291.292C528.062 291.292 525.795 292.245 525.111 291.465C524.428 290.685 523.824 290.343 523.251 290.175C522.679 290.008 521.581 289.935 520.626 290.65C519.584 291.381 520.22 291.899 518.327 292.422C516.434 292.946 515.94 293.216 515.694 293.351C515.463 293.573 515.789 293.876 515.009 294.559C514.3 295.139 514.03 295.64 513.361 295.942ZM509.23 301.57C509.485 300.982 508.761 300.48 508.761 300.48L507.361 300.733C507.655 300.861 507.87 301.545 508.267 301.744C508.561 301.872 508.975 302.158 509.23 301.57ZM517.77 302.825C517.913 302.619 516.793 301.918 515.639 302.036C514.502 302.242 513.81 301.916 513.404 302.17C512.999 302.424 511.909 302.892 511.909 302.892C513.881 302.806 513.937 302.616 514.684 302.751C515.432 302.887 517.627 303.032 517.77 302.825ZM527.368 304.432C528.84 304.075 528.545 304.942 528.545 304.942C528.545 304.942 529.842 303.622 529.763 303.185C529.771 302.731 531.1 301.587 530.01 302.056C529.008 302.508 528.459 302.969 527.6 303.215C526.653 303.477 525.922 303.428 526.128 303.572C526.279 303.906 527.368 304.432 527.368 304.432ZM542.519 314.251C542.123 313.057 543.69 312.231 543.102 311.976C542.513 311.721 541.106 311.434 541.337 310.217C541.585 309.088 542.635 308.898 543.001 307.928C543.28 306.974 542.932 305.048 542.543 304.396C542.241 303.728 538.823 300.822 538.387 299.907C537.95 298.992 536.001 299.706 534.967 299.984C534.02 300.245 532.604 300.411 532.772 299.839C532.939 299.266 534.467 297.724 533.856 296.841C533.331 295.942 529.323 295.764 529.322 296.758C529.218 297.68 530.165 297.419 530.037 298.707C529.909 299.995 529.447 300.441 530.87 300.815C532.294 301.19 532.682 302.837 532.156 303.926C531.718 305 530.335 304.347 529.555 305.03C528.862 305.698 528.13 306.644 529.275 306.978C530.348 307.417 530.547 308.013 530.872 309.31C531.197 310.607 528.834 312.029 526.797 313.753C524.847 315.462 523.439 316.169 521.459 314.719C519.464 313.183 523.092 311.261 524.446 309.751C525.815 308.328 524.009 308.836 522.379 308.317C520.749 307.799 520.551 307.202 519.127 306.827C517.704 306.452 517.704 306.452 517.011 307.12C516.303 307.7 514.951 308.216 513.058 308.739C511.18 309.35 512.016 308.476 510.72 307.807C509.44 307.225 508.963 307.583 506.004 308.209C503.045 308.835 502.17 307.999 501.303 308.698C500.436 309.398 499.497 310.2 497.723 310.883C496.02 311.462 492.689 310.529 491.734 310.25C490.78 309.971 489.619 310.542 487.781 310.875C485.944 311.208 484.575 312.63 482.14 314.156C479.705 315.681 479.681 317.041 478.757 318.925C477.817 320.722 476.719 321.644 475.111 322.748C473.416 323.868 473.114 324.194 474.274 325.611C475.418 326.94 480.318 326.053 481.351 326.77C482.385 327.487 485.248 327.33 489.312 327.317C493.376 327.304 494.274 327.774 495.514 329.628C496.65 331.411 496.251 332.206 496.537 332.787C496.823 333.368 495.876 333.63 495.725 334.29C495.573 334.95 497.936 334.522 497.354 335.802C496.788 337.17 496.772 338.077 497.519 339.207C498.353 340.321 499.912 339.948 501.279 340.514C502.647 341.08 503.347 340.953 505.438 341.026C507.53 341.099 507.721 341.155 509.503 340.019C511.285 338.883 515.462 337.495 518.7 335.914C521.938 334.334 524.938 331.441 526.379 329.915C527.517 328.715 528.099 326.441 528.133 324.627C528.268 324.874 528.578 325.089 528.625 325.351C528.689 325.701 528.736 325.964 528.847 326.577C528.942 327.102 529.722 326.418 530.343 325.854C530.963 325.29 530.359 324.947 529.874 324.764C529.373 324.493 529.303 323.602 529.223 323.165C529.16 322.815 528.62 321.828 527.968 321.223C528.295 319.537 529.204 317.565 529.968 316.794C531.209 315.666 530.287 315.562 530.462 314.536C530.638 313.51 532.555 312.62 533.16 311.969C533.765 311.317 535.158 309.528 537.33 309.045C539.501 308.561 538.228 310.509 538.139 311.519C537.964 312.545 538.743 312.856 540.237 314.122C541.803 315.284 542.963 316.701 543.472 316.518C544.085 316.408 542.916 315.444 542.519 314.251ZM528.842 323.053C529.334 323.777 528.762 323.61 528.332 324.23C528.26 324.333 528.276 324.421 528.188 324.436C528.213 324.071 528.149 323.721 527.998 323.386C527.832 322.965 527.824 322.424 527.904 321.867C528.333 322.241 528.603 322.735 528.842 323.053ZM549.912 308.665C550.349 308.586 551.511 308.014 550.604 307.997C549.698 307.981 548.624 308.537 547.955 308.838C547.303 309.228 546.762 309.235 546.436 308.933C546.11 308.63 545.769 308.24 545.769 308.24L544.918 308.033C544.759 308.152 544.448 308.931 545.14 309.258C545.744 309.6 546.785 309.864 547.645 309.618C548.607 309.443 548.567 309.722 549.029 309.277C549.419 308.935 549.371 308.673 549.912 308.665ZM553.676 316.479C554.527 315.692 554.312 316.996 554.415 317.068C554.518 317.14 555.505 316.599 555.028 315.963C554.639 315.31 554.209 315.93 553.621 314.681C552.946 313.448 552.779 314.02 552.326 313.018C551.89 312.103 551.707 311.593 551.89 311.108C552.074 310.623 551.501 310.456 551.501 310.456C551.286 310.766 550.188 311.688 551.07 312.07C551.953 312.453 551.619 312.604 552.008 313.256C552.397 313.909 553.089 314.235 553.24 314.569C553.391 314.904 553.899 315.715 553.493 315.97C553.103 316.311 552.459 316.247 552.403 316.438C552.348 316.629 552.952 316.971 553.278 317.274C553.516 317.592 552.68 318.466 552.919 318.785C553.141 319.016 553.499 318.499 553.516 317.592C553.668 316.932 552.824 317.265 553.676 316.479ZM544.231 333.19C544.525 333.318 545.297 333.088 545.162 332.841C545.027 332.594 545.171 331.394 545.004 330.972C544.837 330.55 544.098 329.961 544.385 329.548C544.656 329.047 544.887 327.83 544.887 327.83C544.195 328.498 543.685 329.674 543.852 330.096C544.018 330.518 544.511 331.242 544.343 331.814C544.176 332.387 543.937 333.063 544.231 333.19ZM532.754 292.251C532.809 292.06 532.237 291.892 532.237 291.892C531.593 291.828 531.044 292.289 530.16 292.901C529.277 293.513 528.235 294.243 528.211 294.609C528.187 294.975 528.091 295.444 528.091 295.444C528.091 295.444 529.412 293.759 529.794 293.871C530.176 293.983 530.143 294.802 530.517 294.373C530.891 293.943 530.844 293.681 530.844 293.681C530.844 293.681 531.512 293.379 531.727 293.069C531.854 292.775 531.401 292.767 531.401 292.767C531.401 292.767 532.698 292.441 532.754 292.251ZM517.827 301.64C517.827 301.64 514.694 301.304 514.384 301.089C514.073 300.874 513.636 300.953 513.485 300.619C513.334 300.285 513.23 301.207 512.054 300.697C510.877 300.187 511.283 299.933 510.901 299.821C510.519 299.71 509.66 299.956 509.66 299.956C510.177 300.314 511.226 301.118 512.499 301.159C513.771 301.2 514.932 301.622 515.298 301.646C515.664 301.67 517.827 301.64 517.827 301.64ZM537.376 278.852C537.838 278.407 537.377 277.858 537.083 277.73C537.083 277.73 536.55 278.279 536.525 278.644C536.501 279.01 536.286 279.32 536.286 279.32C536.286 279.32 536.899 279.209 537.376 278.852ZM524.341 193.369C525.105 193.592 526.664 193.22 526.664 193.22C526.664 193.22 526.537 192.52 526.052 192.336C525.567 192.153 524.16 191.866 524.16 191.866C523.976 192.351 523.681 193.217 524.341 193.369ZM447.657 205.534C446.735 205.43 447.482 205.566 446.735 205.43C445.987 205.294 446.568 205.008 445.987 205.294C445.407 205.58 445.502 206.105 445.04 206.55C444.491 207.011 443.648 207.344 444.029 207.456C444.411 207.568 445.071 207.719 445.596 207.624C446.105 207.442 446.813 206.862 447.132 206.623C447.45 206.385 447.45 206.385 447.983 205.836C448.516 205.288 448.453 204.938 448.453 204.938C448.859 204.684 450.171 204.446 449.583 204.191C448.995 203.936 448.47 204.031 448.31 204.15C448.151 204.27 447.912 204.946 447.912 204.946L448.206 205.073C448.135 205.176 448.58 205.638 447.657 205.534ZM459.88 218.143C460.095 217.832 458.974 217.132 458.711 217.179C458.433 217.139 456.532 217.122 456.532 217.122C456.914 217.233 457.868 217.513 458.313 217.974C458.551 218.293 459.665 218.453 459.88 218.143ZM467.615 221.442C467.615 221.442 468.753 221.236 468.562 221.18C468.371 221.124 467.52 220.916 467.139 220.805C466.845 220.677 465.97 220.836 465.97 220.836L465.286 221.05C465.436 221.384 466.128 221.711 466.406 221.751C466.685 221.791 467.615 221.442 467.615 221.442ZM494.648 168.108C495.912 168.602 496.588 168.841 496.301 169.255C496.014 169.668 498.615 169.559 498.925 169.774C499.235 169.989 497.231 169.9 497.231 169.9C497.231 169.9 495.696 169.906 496.968 170.941C498.224 171.889 498.025 172.286 498.319 172.414C498.613 172.541 499.393 171.858 500.196 171.803C500.912 171.764 502.55 171.829 503.338 171.686C504.038 171.559 504.563 171.464 504.673 172.077C504.872 172.674 503.114 173.444 503.615 173.715C504.115 173.985 503.662 173.977 505.141 174.161C506.692 174.242 507.909 174.474 508.418 174.291C508.927 174.109 508.546 173.003 508.045 172.732C507.544 172.461 506.893 171.856 507.139 171.721C507.298 171.602 507.664 171.626 507.887 171.857C508.109 172.088 509.302 172.685 510.327 172.861C511.353 173.037 513.007 173.189 513.429 173.022C513.867 172.943 515.33 173.04 514.121 172.355C513.001 171.654 511.386 171.223 510.52 170.928C509.653 170.633 507.626 169.916 507.522 169.844C507.419 169.772 505.01 168.943 504.676 169.094C504.326 169.158 503.927 169.953 502.957 169.586C501.988 169.219 501.638 169.283 500.827 168.797C500.103 168.295 499.627 167.659 499.317 167.444C499.007 167.229 495.667 166.749 495.667 166.749C495.173 167.019 493.368 167.526 494.648 168.108ZM577.804 200.681C579.283 200.865 579.824 200.858 580.293 200.953C580.762 201.049 581.844 201.034 581.844 201.034C581.844 201.034 581.017 200.461 580.691 200.158C580.365 199.856 580.04 199.553 579.586 199.545C579.133 199.537 578.775 200.053 578.25 200.148C577.725 200.243 576.596 199.996 576.906 200.211C577.2 200.339 577.804 200.681 577.804 200.681ZM583.826 198.506C584.549 199.008 585.05 199.279 585.432 199.391C585.814 199.502 587.786 199.416 587.643 199.623C587.499 199.83 586.044 200.274 587.029 200.728C587.928 201.198 588.349 201.031 589.526 201.541C590.79 202.035 591.689 202.505 591.879 202.561C592.07 202.617 592.977 202.634 592.834 202.84C592.69 203.047 591.688 203.5 591.688 203.5C591.688 203.5 592.674 203.954 594.009 204.345C595.345 204.735 595.727 204.847 596.419 205.174C597.094 205.413 598.47 205.525 598.629 205.406C598.789 205.287 598.638 204.953 597.342 204.284C595.943 203.543 596.173 203.32 595.323 203.113C594.488 202.993 593.828 202.841 593.828 202.841L594.592 202.07C594.592 202.07 593.749 201.409 592.708 201.146C591.578 200.899 591.857 199.944 592.724 200.239C593.591 200.534 595.086 200.806 593.671 199.978C592.359 199.221 592.296 198.871 591.429 198.576C590.634 198.178 589.632 198.63 589.075 198.55C588.502 198.383 587.023 198.199 587.023 198.199C585.926 198.126 583.103 198.005 583.826 198.506ZM676.298 249.094C674.581 247.598 667.944 242.383 665.193 241.163C662.442 239.944 663.366 239.054 661.926 238.592C660.575 238.114 657.544 238.843 657.855 238.064C658.166 237.284 662.722 237.996 662.795 236.898C662.883 235.888 658.247 234.739 656.371 233.362C654.408 232 652.572 230.344 650.115 230.247C647.657 230.149 649.543 229.085 649.798 228.497C650.053 227.908 641.809 223.798 639.463 223.319C637.133 222.927 640.315 221.538 638.629 221.21C636.943 220.883 627.474 217.988 627.91 218.903C628.347 219.818 628.552 221.95 627.582 221.583C626.525 221.232 626.725 218.846 625.055 218.606C623.37 218.279 623.64 218.772 622.502 218.978C621.452 219.168 615.87 218.281 613.771 216.673C611.673 215.064 610.679 215.064 610.091 214.809C609.502 214.554 609.09 212.279 606.991 212.659C604.962 212.935 602.131 213.267 603.038 212.29C603.946 211.312 606.713 211.624 605.29 210.255C603.868 208.886 601.02 209.13 598.66 207.57C596.505 206.152 594.192 204.854 589.261 204.572C589.158 204.5 589.055 204.428 589.039 204.341C588.641 204.142 588.228 203.855 587.775 203.847C587.321 203.838 586.446 203.997 586.168 203.957C585.874 203.829 584.951 203.725 584.188 203.502C583.512 203.263 582.781 203.214 581.811 202.848C580.841 202.481 582.265 201.862 581.271 201.861C580.276 201.86 581.271 201.861 581.071 202.258C580.872 202.656 579.393 202.472 578.558 202.352C577.739 202.319 577.66 201.882 577.056 201.539C576.539 201.181 576.842 200.855 575.919 200.751C574.997 200.647 575.147 200.981 575.258 201.594C575.369 202.206 574.471 201.736 573.708 201.513C573.032 201.274 572.762 200.78 571.958 200.835C571.083 200.994 570.28 201.049 569.811 200.953C569.326 200.77 568.618 200.356 567.497 200.649C566.534 200.823 567.664 201.071 566.041 201.093C565.262 200.782 564.674 200.528 564.364 200.313C564.26 200.241 564.141 200.082 564.038 200.01L564.197 199.891C564.197 199.891 565.875 199.677 566.4 199.582C566.838 199.503 565.852 199.049 565.629 198.818C565.407 198.587 565.041 198.563 564.532 198.746C564.198 198.897 563.554 198.832 562.719 198.712C561.248 197.081 559.381 195.25 555.389 195.159C549.949 195.06 551.554 196.938 549.104 197.381C546.638 197.737 544.905 197.147 544.578 197.839C544.268 198.618 544.259 199.072 542.479 198.219C540.698 197.367 538.416 196.244 537.748 195.551C537.081 194.859 533.663 191.953 540.296 191.656C546.914 191.271 555.469 193.608 556.249 192.925C557.029 192.241 553.633 191.952 550.747 191.481C547.932 190.906 545.714 189.139 539.097 189.523C532.392 189.923 530.459 190.725 531.381 191.824C532.303 192.922 536.882 195.256 536.054 195.677C535.315 196.082 531.896 194.17 528.691 193.937C525.574 193.688 521.852 194.091 521.311 193.104C520.684 192.133 519.611 190.701 518.649 190.875C517.671 190.962 517.184 192.767 515.617 192.599C514.138 192.415 511.425 193.9 509.493 193.707C507.56 193.515 504.454 188.836 504.454 188.836C504.454 188.836 510.527 193.43 513.852 191.834C516.335 190.571 510.158 186.899 506.43 184.773C506.589 184.654 506.764 184.622 506.835 184.519C507.241 184.264 506.605 183.747 506.311 183.619C506.017 183.492 504.697 183.189 503.48 182.957C503.186 182.829 502.789 182.63 502.304 182.447C502.638 182.296 503.234 182.098 503.378 181.891C503.593 181.581 501.319 180.999 501.319 180.999C501.319 180.999 500.006 181.236 498.837 181.267C497.883 180.988 496.857 180.812 495.831 180.636C495.243 180.381 494.464 180.071 493.335 179.823C490.87 179.185 490.75 180.02 490.106 179.956C489.462 179.892 489.239 179.661 488.126 179.501C486.925 179.357 485.994 179.706 486.304 179.921C486.527 180.152 485.158 180.58 484.633 180.675C484.108 180.77 482.574 180.777 482.12 180.769C481.579 180.776 480.187 181.571 479.59 181.769C479.081 181.951 477.61 182.308 476.329 182.721C476.242 182.737 476.242 182.737 476.154 182.753C473.712 182.743 469.427 181.53 466.784 183.906C464.158 186.37 466.13 187.278 467.609 187.462C469.001 187.662 471.633 187.728 471.633 187.728L469.65 191.25C469.65 191.25 469.008 188.203 465.421 188.853C461.921 189.486 461.649 191.976 461.649 191.976C461.649 191.976 456.376 191.303 455.693 190.523C455.097 189.727 458.915 188.856 458.915 188.856C458.915 188.856 456.371 187.78 455.631 188.185C454.891 188.59 455.956 189.482 455.956 189.482C455.956 189.482 455.153 189.537 454.493 189.385C453.905 189.13 452.1 187.649 452.546 187.117C452.992 186.584 452.261 185.541 452.261 185.541C452.261 185.541 454.226 184.915 454.648 184.748C455.069 184.581 455.419 184.518 455.388 184.343C455.268 184.184 453.185 183.657 453.503 183.419C453.822 183.18 455.166 183.118 455.222 182.927C455.349 182.633 452.987 182.066 452.566 182.233C452.144 182.4 450.895 182.987 450.442 182.979C450.076 182.955 450.243 182.382 449.543 182.509C448.843 182.636 449.264 183.463 449.018 183.598C448.787 183.821 447.904 184.432 448.023 184.592C448.142 184.751 449.812 184.991 449.335 185.348C448.857 185.706 447.998 185.952 448.006 186.493C448.013 187.033 448.927 187.591 448.506 187.758C448.084 187.924 446.692 187.724 446.056 188.201C445.419 188.678 444.298 188.971 444.298 188.971L445.1 189.91C445.1 189.91 441.799 190.146 441.847 190.409C441.91 190.759 444.797 191.231 445.457 191.382C446.117 191.534 449.234 192.777 450.339 192.396C451.445 192.015 454.301 190.323 454.532 191.095C454.762 191.867 449.782 193.31 447.834 193.031C445.885 192.751 444.9 192.296 444.637 192.344C444.359 192.304 444.692 193.147 443.754 192.956C442.815 192.764 440.867 192.484 440.446 192.651C440.024 192.818 442.933 194.912 441.421 196.541C439.909 198.17 438.842 199.267 437.562 198.686C436.282 198.104 432.768 196.662 432.076 196.335C431.4 196.096 430.446 195.817 429.881 196.19C429.316 196.563 428.735 197.844 427.677 198.487C426.618 199.13 424.701 200.02 424.414 200.433C424.025 200.775 424.772 200.911 423.889 201.522C423.093 202.118 422.456 202.595 422.456 202.595C422.456 202.595 422.941 202.778 423.689 202.914C424.436 203.05 425.216 203.361 424.786 203.981C424.356 204.601 425.016 204.753 425.906 204.682C426.797 204.611 428.491 205.479 429.628 205.273C430.781 205.155 431.95 205.124 432.316 205.148C432.682 205.172 434.297 204.609 434.703 204.355C435.109 204.1 434.894 203.416 436.613 202.924C438.347 202.52 441.536 202.666 441.997 202.221C442.459 201.776 442.579 200.941 444.305 200.99C445.927 200.967 446.49 202.582 446.928 202.503C447.365 202.424 448.9 202.417 449.513 202.306C450.125 202.195 451.915 201.6 451.715 202.992C451.444 204.487 450.751 206.149 451.696 206.881C452.642 207.614 453.231 207.869 453.063 208.441C452.896 209.014 453.277 209.126 453.253 209.491C453.142 209.873 452.887 210.461 452.553 210.612C452.131 210.779 451.9 211.002 451.184 211.041C450.469 211.08 449.054 210.252 448.322 210.203C447.574 210.068 447.209 210.043 447.169 210.322C447.041 210.616 447.987 211.348 448.082 211.874C448.265 212.383 448.662 212.582 448.662 212.582L449.402 212.177C449.402 212.177 449.569 211.604 450.007 211.525C450.357 211.462 451.144 211.319 451.264 211.478C451.383 211.637 452.329 211.376 452.488 211.257C452.648 211.137 453.348 211.011 453.523 210.979C453.713 211.035 454.398 210.821 454.35 210.558C454.302 210.296 454.08 210.065 454.486 209.811C454.892 209.556 455.369 209.199 455.623 209.605C455.862 209.923 455.925 210.273 455.869 210.464C455.813 210.655 456.442 210.631 456.657 210.321C456.8 210.115 457.071 209.614 456.657 209.327C456.244 209.04 455.855 208.388 455.982 208.094C456.126 207.887 456.825 207.76 456.046 207.449C455.267 207.139 454.846 206.311 455.276 205.691C455.706 205.071 455.603 204.999 455.524 204.562C455.357 204.14 455.477 203.305 456.439 203.131C457.386 202.869 457.369 203.776 457.528 204.651C457.686 205.526 458.902 206.752 458.981 207.189C459.148 207.611 459.998 208.813 459.608 209.154C459.306 209.48 457.706 210.131 457.857 210.465C457.921 210.815 458.007 211.794 457.665 212.398C457.394 212.899 457.458 213.249 457.577 213.408C457.593 213.496 456.877 213.535 456.837 213.813C456.813 214.179 457.25 214.1 456.773 214.457C456.208 214.831 456.295 214.815 456.693 215.014C457.09 215.213 457.36 215.707 457.376 215.794C457.392 215.882 458.164 214.657 458.443 214.697C458.634 214.753 459.167 214.205 459.445 214.245C459.723 214.285 459.794 215.176 460.113 214.937C460.447 214.786 461.115 214.485 461.052 214.135C461.004 213.872 461.14 213.125 461.108 212.95C461.148 212.671 461.284 211.924 461.793 211.741C462.302 211.559 462.079 212.322 462.707 212.299C463.351 212.363 463.972 211.799 464.251 211.838C464.545 211.966 464.648 212.038 465.236 212.293C465.912 212.532 466.095 213.041 466.095 213.041C466.095 213.041 464.989 213.422 464.615 213.851C464.328 214.264 465.116 214.122 464.423 214.79C463.818 215.441 463.484 215.592 463.516 215.767C463.476 216.046 463.468 216.499 463.149 216.737C462.919 216.96 463.054 217.206 463.348 217.334C463.729 217.446 464.302 217.613 464.103 218.011C463.904 218.408 463.951 218.671 464.524 218.838C465.08 218.918 465.789 218.338 466.17 218.45C466.552 218.561 467.116 219.182 467.211 219.707C467.394 220.216 468.61 220.448 469.048 220.369C469.573 220.274 470.313 219.869 470.551 220.187C470.774 220.418 471.362 220.673 471.712 220.61C472.149 220.53 472.34 220.586 472.022 220.825C471.6 220.991 471.234 220.967 470.932 221.293C470.63 221.619 470.455 221.651 470.152 221.976C469.85 222.302 469.229 222.867 468.211 223.232C467.208 223.684 464.471 225.535 463.358 225.375C462.244 225.215 462.46 223.911 460.806 223.759C459.239 223.59 458.165 224.146 457.283 223.764C456.4 223.381 454.58 221.813 454.214 221.789C453.761 221.781 453.857 221.311 454.016 221.192C454.175 221.073 452.768 220.786 452.673 220.261C452.578 219.735 452.324 218.335 450.049 218.747C447.774 219.159 447.941 219.581 447.551 219.922C447.161 220.264 445.944 221.027 445.586 220.549C445.213 219.984 444.713 218.719 444.053 218.568C443.393 218.416 443.457 217.772 443.799 217.167C444.158 216.651 443.18 215.743 442.433 215.607C441.685 215.472 441.129 215.392 441.002 214.692C440.963 213.976 440.748 213.291 441.082 213.141C441.417 212.99 442.506 213.516 442.999 213.246C443.476 212.888 442.642 212.768 442.841 212.37C443.04 211.973 442.865 212.005 442.905 211.726C442.945 211.448 443.001 211.257 443.526 211.162C443.963 211.083 444.647 210.869 444.615 210.694C444.6 210.606 443.637 210.78 443.677 210.502C443.805 210.208 443.845 209.929 443.272 209.762C442.715 209.682 441.665 209.872 441.22 209.41C440.775 208.949 440.338 209.028 439.678 208.876C439.018 208.725 438.525 208.995 438.04 208.811C437.642 208.612 436.609 207.895 435.305 207.68C433.913 207.48 430.502 207.103 429.452 207.293C428.402 207.483 427.773 207.507 427.312 206.958C426.852 206.408 425.086 206.638 425.094 206.184C425.118 205.818 425.095 205.19 425.095 205.19L424.013 205.205C424.013 205.205 422.056 206.373 419.209 206.617C416.361 206.861 415.191 207.887 413.902 208.753C412.613 209.619 410.696 210.508 408.254 210.498C405.813 210.488 402.566 212.522 400.976 212.719C399.385 212.917 393.61 214.957 392.972 216.428C392.422 217.883 391.435 219.417 388.141 221.188C384.935 222.943 381.052 225.454 382.114 230.322C383.176 235.191 384.145 236.552 384.145 236.552C384.145 236.552 388.814 235.887 389.871 237.232C391.015 238.562 395.644 238.176 397.489 238.384C399.247 238.608 399.508 240.549 399.125 241.431C398.743 242.314 405.368 241.476 401.477 244.44C397.586 247.404 396.13 247.848 395.589 248.85C395.047 249.851 394.791 252.428 393.755 254.694C392.719 256.96 391.947 258.185 390.929 258.55C389.911 258.915 390.395 260.092 388.772 261.109C387.133 262.039 383.744 262.29 380.648 265.652C377.552 269.015 378.29 270.598 375.887 273.292C373.395 276.003 371.987 276.71 371.293 279.366C370.687 282.006 370.065 283.564 368.808 284.605C367.535 285.559 366.58 286.274 367.247 286.966C367.899 287.571 370.731 287.239 373.307 288.49C375.867 289.654 382.954 288.371 386.788 286.592C390.623 284.813 393.416 282.771 394.72 282.987C396.024 283.203 398.57 282.29 400.838 280.343C403.09 278.309 406.94 277.612 410.368 277.082C413.9 276.623 417.481 273.444 419.017 271.449C420.554 269.454 422.474 264.588 430.659 262.383C438.844 260.178 446.408 259.532 452.177 255.957C457.945 252.383 458.892 252.121 456.8 252.048C454.781 251.871 448.72 252.335 449.047 250.65C449.375 248.964 451.013 249.028 450.656 247.557C450.299 246.085 449.402 244.621 450.102 243.5C450.803 242.379 451.712 239.413 453.2 238.149C454.688 236.886 455.056 233.927 456.075 232.568C457.11 231.296 457.756 229.372 459.307 229.453C460.857 229.533 458.81 234.694 457.997 236.196C457.097 237.715 454.27 243.559 452.996 245.506C451.634 247.47 451.22 248.178 453.081 248.473C454.942 248.769 463.031 248.028 466.482 248.126C469.846 248.24 478.787 246.712 479.981 245.321C481.175 243.93 479.219 243.109 479.538 241.877C479.857 240.644 482.187 240.041 480.168 239.865C478.148 239.688 474.523 237.633 475.295 236.409C476.051 235.097 476.538 233.292 477.389 233.499C478.24 233.707 476.965 236.649 479.087 237.891C481.21 239.134 482.649 239.596 482.664 240.678C482.695 241.847 491.243 243.644 490.733 245.815C490.222 247.986 490.945 249.481 490.506 251.549C490.154 253.601 486.937 258.792 484.884 261.423C482.933 264.126 481.484 266.106 482.47 266.56C483.456 267.014 488.897 265.125 488.3 266.318C487.702 267.51 484.027 269.17 485.156 269.417C487.724 270.127 487.152 268.965 488.156 266.524C489.248 264.068 490.306 263.424 492.534 261.756C494.778 260.174 497.005 259.5 500.314 258.811C503.623 258.121 512.182 256.482 513.421 258.336C514.661 260.19 514.182 262.536 512.24 263.791C510.299 265.047 511.841 265.581 512.071 266.352C512.214 267.14 513.455 267.006 510.582 269.604C507.693 272.115 506.252 273.642 504.826 277.243C503.4 280.846 502.985 281.553 502.461 280.654C501.937 279.755 502.034 278.291 501.024 277.209C500.031 276.214 500.342 274.44 499.348 275.434C498.353 276.427 498.017 278.566 497.243 281.779C496.469 284.992 496.738 287.474 495.822 289.899C494.889 292.237 494.984 292.762 498.514 295.286C502.043 297.81 508.165 299.684 508.165 299.684C508.165 299.684 504.183 296.157 502.713 294.526C501.243 292.894 500.464 292.583 501.634 291.558C502.804 290.533 504.173 289.11 504.079 286.597C504.002 284.171 506.922 281.835 507.393 279.942C507.879 278.137 508.559 272.41 511.868 271.721C515.265 271.016 513.393 275.15 512.207 276.088C511.109 277.01 514.6 277.824 518.816 276.157C523.12 274.474 524.631 273.839 525.659 271.032C526.703 268.313 527.898 265.927 530.404 265.293C532.909 264.659 533.362 265.661 531.564 266.71C529.75 267.671 528.317 268.743 529.765 268.752C531.212 268.762 533.806 267.117 535.246 266.585C536.686 266.054 541.949 268.173 548.337 266.023C554.725 263.872 558.702 262.881 561.488 259.304C564.275 255.727 563.511 255.504 564.705 255.107C565.914 254.798 566.74 255.371 567.489 254.513C568.253 253.742 566.417 252.086 568.683 252.128C570.95 252.169 572.286 252.56 571.148 253.76C570.009 254.96 572.483 255.145 569.976 256.774C567.486 258.49 567.557 259.381 570.054 259.2C572.464 259.035 574.325 258.336 575.249 256.452C576.173 254.567 575.14 253.851 576.381 253.716C577.621 253.582 579.681 253.48 580.421 253.075C581.161 252.67 582.919 251.9 584.899 252.355C586.879 252.81 591.023 253.235 596.663 250.949C602.319 248.75 605.112 246.708 605.43 247.464C605.731 248.132 599.5 253.146 596.525 254.679C593.533 256.124 593.653 255.289 590.383 257.689C587.112 260.088 581.99 260.744 580.129 260.448C578.356 260.137 572.614 260.363 571.333 260.776C570.052 261.188 568.373 263.39 568.889 263.748C569.406 264.107 572.247 262.327 574.107 262.623C575.968 262.919 578.593 262.444 580.358 263.209C582.123 263.974 583.466 264.905 585.726 263.412C587.986 261.918 589.943 260.75 591.073 260.004C592.203 259.257 594.129 256.92 594.829 256.793C595.529 256.667 596.889 257.686 599.227 257.624C601.549 257.475 606.711 256.54 606.711 256.54C606.711 256.54 600.071 256.296 599.722 255.365C599.388 254.522 599.214 253.559 600.351 253.354C601.401 253.163 602.969 251.343 604.21 251.209C605.379 251.178 604.687 251.846 607.027 249.795C609.366 247.745 611.158 245.162 610.466 244.835C609.774 244.508 604.979 243.478 605.115 242.731C605.251 241.983 604.218 241.267 604.218 241.267C604.218 241.267 612.189 238.378 618.891 240.96C625.594 243.542 628.528 244.276 629.665 244.071C630.787 243.777 636.784 242.963 637.236 243.965C637.689 244.968 640.115 244.89 640.385 245.383C640.655 245.877 637.934 246.821 634.411 246.826C630.888 246.831 627.325 247.115 625.637 248.776C623.966 250.525 621.387 253.251 622.007 253.681C622.627 254.111 626.693 252.11 629.237 252.191C631.695 252.289 632.634 251.486 633.724 251.017C634.71 250.477 636.882 249.994 637.256 249.565C637.63 249.135 637.814 247.656 640.844 247.921C643.874 248.186 647.58 248.69 647.563 249.597C647.547 250.503 652.208 249.298 654.673 249.936C657.122 250.487 660.693 250.744 661.369 250.984C662.132 251.207 663.756 249.196 664.813 249.547C665.871 249.897 670.347 251.166 671.555 252.845C672.691 254.627 678.03 250.678 676.298 249.094ZM481.733 187.617C482.736 187.164 483.611 187.006 484.502 186.935C485.392 186.864 486.243 187.071 486.8 187.151C487.269 187.247 487.913 187.311 488.319 187.057C488.725 186.803 489.035 187.018 489.425 186.676C489.799 186.247 489.035 186.024 490.133 186.096C491.127 186.097 492.511 185.756 492.662 186.09C492.725 186.44 492.765 187.156 491.699 187.259C490.633 187.361 489.949 187.575 489.042 187.559C488.136 187.542 487.706 187.168 487.197 187.351C486.672 187.446 485.932 187.851 486.012 188.288C486.091 188.726 486.011 189.282 485.152 189.528C484.38 189.758 483.084 190.083 482.201 189.701C481.406 189.303 481.144 189.35 480.921 189.119L480.818 189.048C480.651 188.626 480.818 188.053 481.733 187.617ZM488.64 193.325C487.814 192.752 483.583 192.343 482.811 192.573C482.04 192.803 481.475 193.176 480.735 193.581C479.995 193.986 478.945 194.177 478.38 194.55C477.815 194.923 478.356 194.916 478.141 195.226C477.854 195.639 475.444 195.804 474.76 196.019C474.06 196.145 474.514 195.159 473.735 194.848C472.94 194.45 472.193 194.314 471.684 194.497C471.175 194.679 470.427 194.544 469.982 194.082C469.537 193.62 470.475 193.812 470.913 193.733C471.35 193.654 470.937 193.367 469.696 193.501C468.543 193.619 468.344 193.023 468.75 192.769C469.665 192.332 469.983 193.088 471.12 192.882C472.258 192.676 472.718 193.225 474.063 193.163C475.407 193.1 475.598 192.162 476.147 191.701C476.696 191.24 478.645 191.52 479.488 191.186C480.347 190.94 482.693 191.419 483.56 191.714C484.426 192.009 488.195 192.863 490.056 193.159C491.933 193.542 491.448 193.359 491.042 193.613C490.604 193.693 489.467 193.898 488.64 193.325ZM484.24 217.438C483.27 218.065 481.29 217.611 480.041 217.204C478.809 216.885 478.42 215.238 476.806 214.807C475.192 214.376 473.729 214.28 471.828 214.262C469.911 214.158 468.631 213.576 468.942 212.797C469.269 212.105 469.683 211.397 469.914 211.175C470.884 210.547 471.878 210.548 472.459 210.262C473.04 209.976 475.633 209.326 476.921 209.454C478.21 209.583 479.251 210.84 478.805 211.373C478.359 211.905 478.972 211.794 479.703 211.843C480.435 211.891 482.662 212.211 483.098 213.126C483.535 214.041 483.844 215.25 484.17 215.553C484.583 215.839 485.211 216.81 484.24 217.438ZM491.836 227.45C491.573 227.497 490.81 227.274 489.578 226.955C488.433 226.62 488.29 225.832 488.386 225.363C488.482 224.894 487.456 224.718 488.061 224.066C488.666 223.415 489.016 223.351 489.437 223.185C489.843 222.93 489.843 222.93 490.686 222.597C491.53 222.264 491.537 222.805 491.99 222.813C492.444 222.821 492.221 222.59 492.055 222.169C491.888 221.747 491.849 221.031 491.937 220.021C491.938 219.027 492.328 218.685 493.139 218.177C493.951 217.668 492.972 217.755 493.609 217.278C494.158 216.817 495.59 216.739 496.862 216.78C498.135 216.82 498.222 216.805 498.835 216.694C499.447 216.583 498.843 216.24 499.368 216.145C499.893 216.05 500.966 216.489 500.99 217.117C501.013 217.745 500.09 217.641 499.725 217.617C499.375 217.68 498.062 217.918 497.911 217.584C497.761 217.25 497.586 217.281 497.299 217.695C496.996 218.021 497.06 218.371 497.036 218.736C497.012 219.102 496.708 220.422 497.225 220.781C497.742 221.139 496.62 221.432 496.389 221.655C496.071 221.893 495.935 222.641 495.529 222.895C495.124 223.149 494.288 224.024 494.089 224.421C493.89 224.819 494.335 225.28 494.104 225.503C493.77 225.654 492.345 227.267 491.836 227.45ZM568.149 200.26C568.34 200.316 569.135 200.714 569.478 200.11C569.82 199.505 569.55 199.012 569.812 198.965C570.059 198.83 570.735 199.069 571.013 199.109C571.307 199.236 569.63 198.455 569.352 198.415C569.161 198.36 568.962 198.757 569.152 198.813C569.343 198.869 569.908 199.49 569.088 199.457C568.253 199.337 567.665 199.082 567.625 199.361C567.585 199.639 567.958 200.204 568.149 200.26ZM341.631 233.313C341.362 231.825 341.283 230.394 339.343 229.66C337.403 228.927 336.856 226.405 336.73 225.705C336.603 225.005 335.88 223.509 336.78 221.991C337.68 220.472 336.768 216.932 336.697 216.041C336.626 215.15 333.612 214.973 332.859 212.308C332.105 209.643 334.801 210.058 332.058 208.386C329.332 206.801 327.884 206.792 326.294 205.995C324.704 205.199 325.366 203.362 323.911 202.812C322.456 202.262 316.132 203.768 314.835 204.093C313.523 204.331 313.65 204.037 313.253 202.843C312.857 201.65 310.096 202.873 309.063 201.162C308.015 199.363 316.289 196.148 317.156 195.449C318.023 194.75 316.735 194.622 314.652 194.095C312.584 193.656 309.531 192.763 309.531 192.763C309.531 192.763 311.441 191.332 313.136 190.212C314.83 189.092 317.964 188.434 318.355 187.098C318.746 185.763 315.413 185.824 313.369 186.013C311.325 186.202 307.991 189.246 305.376 187.279C302.761 185.313 309.842 180.506 311.203 179.537C312.492 178.671 313.153 177.828 315.746 177.178C318.427 176.512 321.066 178.113 322.608 178.647C324.238 179.165 326.847 178.602 328.501 178.755C330.156 178.907 329.812 180.506 329.373 182.573C328.863 184.744 325.927 185.999 325.927 185.999C325.927 185.999 328.193 187.035 330.405 186.273C332.632 185.598 335.753 180.876 337.551 179.828C339.349 178.779 346.746 178.706 347.923 178.221C349.188 177.721 349.897 176.147 353.747 174.456C357.582 172.677 359.816 174.532 360.11 174.66C360.404 174.787 360.977 173.96 361.272 173.094C361.551 172.139 363.126 171.854 364.558 171.776C365.902 171.713 370.522 171.781 370.522 171.781C370.522 171.781 368.86 172.081 367.937 172.972C367.014 173.862 369.257 173.275 371.595 173.213C373.917 173.064 377.56 173.218 377.56 173.218L377.91 172.16C377.91 172.16 375.978 171.968 374.96 171.339C373.943 170.709 374.635 170.042 375.67 168.77C376.705 167.498 369.452 167.365 369.452 167.365C369.452 167.365 372.586 166.708 374.543 166.534C376.515 166.448 381.078 168.695 382.12 168.958C383.074 169.237 385.707 168.309 387.234 168.755C388.761 169.202 390.225 168.304 390.798 167.478C391.371 166.651 389.933 165.194 389.076 162.457C388.219 159.72 389.883 156.437 389.883 156.437C389.883 156.437 387.529 157.405 385.938 157.603C384.347 157.801 383.489 157.052 383.888 155.263C384.303 153.561 383.079 151.794 381.783 151.125C380.487 150.456 377.037 149.364 377.037 149.364C377.037 149.364 376.344 150.031 375.19 151.144C374.036 152.257 371.571 152.612 371.571 152.612C371.571 152.612 373.176 154.491 371.894 155.898C370.7 157.289 366.04 156.506 366.04 156.506C366.04 156.506 363.771 159.447 363.199 159.279C362.627 159.112 363.201 156.297 364.164 155.128C365.024 153.888 360.889 153.01 359.022 151.179C357.154 149.348 354.341 146.785 356.322 145.251C358.304 143.718 364.499 143.5 366.941 143.51C369.398 143.607 373.169 142.473 373.169 142.473C373.169 142.473 370.949 143.688 369.477 144.044C368.006 144.401 368.674 144.1 369.492 145.126C370.565 146.559 372.578 145.2 373.611 145.917C374.629 146.546 376.625 147.089 376.625 147.089C376.625 147.089 374.002 144.581 374.019 143.674C374.051 142.855 376.206 143.278 377.685 143.462C379.164 143.646 379.801 143.17 379.706 142.645C379.523 142.136 380.223 142.009 381.448 141.787C382.761 141.549 381.704 140.204 382.451 140.34C383.199 140.476 384.971 141.782 384.422 142.243C383.786 142.719 382.911 142.878 383.181 143.371C383.467 143.952 383.863 145.145 383.155 145.726C382.359 146.321 378.072 147.098 380.14 147.537C382.207 147.976 384.926 150.014 385.41 151.192C385.878 152.282 389.964 154.886 390.211 154.751C390.457 154.616 388.909 151.552 388.909 151.552C388.909 151.552 391.365 153.638 392.422 153.989C393.496 154.427 394.49 153.434 394.173 152.678C393.871 152.01 392.394 149.837 393.913 149.743C395.432 149.649 395.049 151.525 395.907 152.274C396.765 153.022 400.098 151.967 400.576 151.609C401.053 151.252 399.13 149.612 397.97 148.195C397.509 147.646 397.326 147.137 397.335 146.683C397.271 146.333 398.337 146.231 398.377 145.952C398.401 145.586 397.368 144.87 397.273 144.345C397.011 143.398 394.261 141.185 392.059 139.505C391.543 139.146 392.092 138.685 391.766 138.383C391.13 137.865 389.635 137.594 389.5 137.347C388.594 136.336 383.458 134.916 383.458 134.916C383.458 134.916 378.973 133.107 376.101 134.712C373.301 136.213 378.325 139.009 378.325 139.009C378.325 139.009 374.259 141.01 373.202 140.659C372.232 140.292 374.317 138.831 374.317 138.831C374.317 138.831 371.877 135.838 371.465 134.557C371.052 133.276 372.643 133.079 374.066 133.454C375.489 133.828 377.582 132.907 377.582 132.907C377.582 132.907 374.354 131.052 372.334 130.875C370.314 130.699 370.043 132.194 367.911 133.393C365.794 134.68 363.663 133.891 360.657 134.254C357.666 134.705 354.749 132.07 354.201 131.537C353.74 130.988 346.511 130.489 344.492 129.318C342.473 128.147 338.808 125.376 335.899 123.282C332.974 121.101 330.549 120.184 328.458 120.111C326.454 120.022 320.386 118.951 314.511 115.948C314.05 115.399 313.502 114.865 312.119 114.212C310.028 113.145 310.569 113.137 308.819 112.46C307.054 111.695 304.804 111.741 304.558 110.881C304.312 110.022 304.495 109.537 302.753 109.401C301.012 109.264 300.025 109.804 298.936 109.278C297.847 108.752 295.963 107.828 294.237 107.779C292.511 107.73 290.984 108.278 289.664 107.974C288.344 107.671 286.499 107.463 287.27 108.227C287.747 108.864 288.526 109.175 288.279 109.31C288.192 109.325 288.104 109.341 287.945 109.46C287.857 109.476 287.77 109.492 287.595 109.524C286.179 109.69 285.558 110.254 284.795 110.031C284.048 109.895 283.674 109.33 283.674 109.33C283.674 109.33 281.931 111.182 281.82 111.563C281.62 111.961 282.36 112.55 281.175 112.494C279.99 112.437 278.868 112.73 278.598 112.237C278.328 111.744 277.033 110.08 276.77 111.122C276.578 112.06 279.95 112.715 278.43 113.804C276.894 114.805 276.283 113.921 276.098 115.401C275.827 116.896 274.873 116.617 276.36 117.342C277.846 118.067 277.026 119.028 279.292 120.064C281.558 121.1 281.55 121.553 282.138 121.808C282.639 122.079 284.905 122.121 283.521 122.462C282.137 122.803 282.32 123.312 278.017 123.006C273.628 122.716 265.684 121.262 265.89 121.406C266.081 121.462 278.263 123.865 280.092 123.986C281.922 124.107 282.908 123.567 285.556 123.72C288.205 123.873 291.164 123.247 290.28 123.859C289.397 124.471 288.228 124.502 287.441 124.644C286.669 124.874 284.457 125.636 286.064 125.526C287.671 125.416 288.728 125.767 290.136 125.06C291.457 124.369 290.241 123.143 293.454 123.917C296.754 124.675 300.023 124.264 301.263 125.124C302.59 125.968 302.113 126.326 303.758 126.932C305.404 127.537 307.748 130.999 307.755 132.534C307.746 132.988 307.826 133.425 307.921 133.95C307.904 134.857 307.943 135.573 308.182 135.891C308.285 135.963 308.404 136.122 308.42 136.21C308.499 136.647 308.459 136.925 308.284 136.957C307.584 137.084 306.329 135.142 306.264 136.781C306.199 138.419 305.873 139.111 306.835 138.937C307.798 138.762 308.673 137.61 309.38 139.018C309.396 139.106 309.499 139.177 309.515 139.265C309.547 139.44 309.507 139.718 309.451 139.909C309.371 140.466 309.657 141.047 309.975 141.802C308.082 141.332 307.995 140.353 308.098 141.419C308.201 142.485 308.717 142.843 309.051 143.687C309.384 144.53 310.782 146.265 310.886 146.337C310.711 146.369 309.804 146.352 309.263 146.359C308.651 146.47 307.704 147.726 305.682 149.538C303.661 151.35 303.486 151.382 302.475 152.288C301.464 153.194 298.186 156.047 297.906 157.995C297.626 159.944 296.608 159.314 297.657 161.113C298.618 162.927 298.292 162.624 298.856 163.245C298.96 163.317 298.975 163.405 299.007 163.58C298.625 164.462 297.98 165.392 297.876 166.315C297.032 167.642 295.648 167.983 296.243 168.779C296.363 168.938 296.482 169.098 296.601 169.257C296.386 169.567 296.274 169.948 296.147 170.243C296.147 170.243 296.059 170.258 296.075 170.346C294.874 171.196 295.105 170.974 295.764 172.119C295.78 172.207 295.811 172.382 295.827 172.469C295.938 173.082 295.874 173.726 295.722 174.386C294.211 175.021 294.696 175.205 294.91 175.889C294.942 176.064 295.061 176.223 295.164 176.295C294.941 177.058 294.774 177.631 295.052 177.671C295.696 177.735 296.413 175.707 297.353 173.91C298.293 172.113 299.282 167.596 300.252 167.963C301.135 168.346 299.716 172.488 298.743 176.099C297.77 179.709 296.68 181.172 296.432 183.295C296.183 185.419 301.381 190.171 303.377 190.714C305.46 191.24 303.44 192.058 305.434 194.589C307.516 197.104 307.133 198.981 306.368 200.746C305.603 202.511 307.422 205.074 309.975 204.702C312.529 204.33 311.812 205.363 310.077 207.756C308.341 210.149 304.929 210.767 301.667 211.719C298.406 212.67 294.721 215.778 293.002 217.264C291.268 218.662 292.413 218.997 290.924 221.255C289.435 223.513 286.489 228.203 287.314 230.765C288.139 233.327 288.853 235.276 286.386 237.62C283.919 239.965 273.583 246.264 272.055 247.806C270.527 249.348 267.527 251.246 264.488 252.429C261.45 253.612 261.712 253.564 259.173 256.012C256.634 258.46 253.046 260.104 247.159 263.519C241.271 266.935 243.017 271.589 245.306 273.253C247.58 274.83 250.57 274.379 250.57 274.379C248.67 273.367 250.327 270.537 251.839 268.908C253.439 267.262 257.16 267.854 258.624 266.956C260.192 266.13 257.767 265.214 258.809 264.483C259.851 263.752 261.847 264.294 262.555 263.714C263.176 263.15 264.839 262.849 266.429 262.651C268.004 262.366 266.295 261.411 267.003 260.831C267.624 260.266 267.966 260.656 269.309 261.588C270.652 262.52 272.594 261.264 274.281 260.598C275.967 259.931 278.901 260.665 280.826 260.316C282.751 259.968 286.577 258.643 289.25 258.43C291.906 258.13 293.975 256.58 298.239 255.176C302.503 253.772 301.573 253.126 305.073 251.499C308.486 249.887 313.687 250.662 315.882 250.807C318.077 250.952 320.798 249.014 322.437 248.084C324.076 247.155 325.356 247.737 325.261 247.212C325.166 246.686 327.029 244.994 328.978 243.285C330.928 241.577 334.372 241.134 338.055 240.015C341.738 238.897 342.391 237.513 343.204 236.011C343.293 234.006 341.884 234.713 341.631 233.313Z" fill="url(#paint4_linear)" fill-opacity="0.2"/>
</g>
<ellipse cx="297.21" cy="222.026" rx="2" ry="1" fill="#EEBE42"/>
<path d="M388.71 209.526C392.044 198.526 401.65 179.526 416.21 179.526C430.21 179.526 433.044 195.193 432.71 199.526" stroke="url(#paint5_linear)"/>
<path d="M338.71 158.026C345.71 122.859 372.51 54.3257 423.71 61.5257C474.91 68.7257 487.377 167.859 487.21 216.526" stroke="url(#paint6_linear)"/>
<path d="M335.71 158.026C343.044 141.526 364.21 110.126 390.21 116.526C416.21 122.926 431.71 166.526 436.21 187.526" stroke="url(#paint7_linear)"/>
<path d="M492.21 216.373C499.544 199.873 516.71 179.126 542.71 185.526C568.71 191.926 578.71 216.373 578.71 222.026" stroke="url(#paint8_linear)"/>
<path d="M387.71 213.026C381.21 199.692 362.31 174.626 338.71 181.026C315.11 187.426 301.544 210.692 297.71 221.526M472.71 254.026C475.21 248.859 482.41 239.426 491.21 243.026C500.01 246.626 504.544 258.859 505.71 264.526M580.21 221.526C577.377 217.026 569.41 209.025 560.21 213.026C551.01 217.026 544.044 223.359 541.71 226.026" stroke="url(#paint9_linear)"/>
<ellipse cx="389.21" cy="213.526" rx="3" ry="1.5" fill="#EECB12"/>
<ellipse cx="432.71" cy="199.026" rx="1.5" ry="1" fill="#F2D17B"/>
<ellipse cx="436.21" cy="188.026" rx="2" ry="1" fill="#F2D17B"/>
<ellipse cx="339.21" cy="158.026" rx="2" ry="1" fill="#FEC251"/>
<ellipse cx="335.21" cy="158.026" rx="2" ry="1" fill="#E39686"/>
<ellipse cx="491.71" cy="216.526" rx="2.5" ry="1.5" fill="#E39686"/>
<ellipse cx="578.71" cy="222.526" rx="2.5" ry="1.5" fill="#E39686"/>
<ellipse cx="541.71" cy="226.526" rx="2.5" ry="1.5" fill="#C061E6"/>
<ellipse cx="472.71" cy="254.526" rx="2.5" ry="1.5" fill="#DC9983"/>
<ellipse cx="505.71" cy="264.526" rx="2.5" ry="1.5" fill="#DC9983"/>
<ellipse cx="486.71" cy="216.526" rx="2.5" ry="1.5" fill="#B849F9"/>
<defs>
<filter id="filter0_dii" x="0.767578" y="137.718" width="876.436" height="588.131" filterUnits="userSpaceOnUse" color-interpolation-filters="sRGB">
<feFlood flood-opacity="0" result="BackgroundImageFix"/>
<feColorMatrix in="SourceAlpha" type="matrix" values="0 0 0 0 0 0 0 0 0 0 0 0 0 0 0 0 0 0 127 0"/>
<feOffset dy="100"/>
<feGaussianBlur stdDeviation="40"/>
<feColorMatrix type="matrix" values="0 0 0 0 0.0825106 0 0 0 0 0.0145139 0 0 0 0 0.183333 0 0 0 1 0"/>
<feBlend mode="normal" in2="BackgroundImageFix" result="effect1_dropShadow"/>
<feBlend mode="normal" in="SourceGraphic" in2="effect1_dropShadow" result="shape"/>
<feColorMatrix in="SourceAlpha" type="matrix" values="0 0 0 0 0 0 0 0 0 0 0 0 0 0 0 0 0 0 127 0" result="hardAlpha"/>
<feOffset dy="2"/>
<feGaussianBlur stdDeviation="10"/>
<feComposite in2="hardAlpha" operator="arithmetic" k2="-1" k3="1"/>
<feColorMatrix type="matrix" values="0 0 0 0 0.0495434 0 0 0 0 0.00833334 0 0 0 0 0.166667 0 0 0 1 0"/>
<feBlend mode="normal" in2="shape" result="effect2_innerShadow"/>
<feColorMatrix in="SourceAlpha" type="matrix" values="0 0 0 0 0 0 0 0 0 0 0 0 0 0 0 0 0 0 127 0" result="hardAlpha"/>
<feOffset dx="-2" dy="-10"/>
<feGaussianBlur stdDeviation="10"/>
<feComposite in2="hardAlpha" operator="arithmetic" k2="-1" k3="1"/>
<feColorMatrix type="matrix" values="0 0 0 0 0.222606 0 0 0 0 0.111649 0 0 0 0 0.454167 0 0 0 1 0"/>
<feBlend mode="normal" in2="effect2_innerShadow" result="effect3_innerShadow"/>
</filter>
<linearGradient id="paint0_linear" x1="75.1421" y1="506.541" x2="-151.547" y2="-86.3576" gradientUnits="userSpaceOnUse">
<stop offset="0.00762196" stop-color="#561674"/>
<stop offset="1" stop-color="#4C28BC"/>
</linearGradient>
<linearGradient id="paint1_linear" x1="500.21" y1="194.943" x2="504.61" y2="453.564" gradientUnits="userSpaceOnUse">
<stop stop-color="#360DCF"/>
<stop offset="1" stop-color="#A530D1"/>
</linearGradient>
<linearGradient id="paint2_linear" x1="445.474" y1="158.916" x2="450.129" y2="390.044" gradientUnits="userSpaceOnUse">
<stop stop-color="#360DCF"/>
<stop offset="1" stop-color="#A530D1"/>
</linearGradient>
<linearGradient id="paint3_linear" x1="512.21" y1="132.943" x2="516.61" y2="391.564" gradientUnits="userSpaceOnUse">
<stop stop-color="#360DCF"/>
<stop offset="1" stop-color="#A530D1"/>
</linearGradient>
<linearGradient id="paint4_linear" x1="512.054" y1="64.9973" x2="408.131" y2="370.066" gradientUnits="userSpaceOnUse">
<stop stop-color="#C2D3FF"/>
<stop offset="0.904" stop-color="#FCFAFE"/>
</linearGradient>
<linearGradient id="paint5_linear" x1="391.71" y1="210.026" x2="446.21" y2="195.026" gradientUnits="userSpaceOnUse">
<stop stop-color="#C751FF"/>
<stop offset="1" stop-color="#FFF851"/>
</linearGradient>
<linearGradient id="paint6_linear" x1="487.21" y1="200.026" x2="324.21" y2="161.526" gradientUnits="userSpaceOnUse">
<stop stop-color="#B849F9"/>
<stop offset="0.617136" stop-color="#FF26AA"/>
<stop offset="1" stop-color="#FEEA39"/>
</linearGradient>
<linearGradient id="paint7_linear" x1="385.96" y1="115.678" x2="385.96" y2="187.526" gradientUnits="userSpaceOnUse">
<stop stop-color="#BD47F4"/>
<stop offset="1" stop-color="#FFD232"/>
</linearGradient>
<linearGradient id="paint8_linear" x1="542.46" y1="174.026" x2="542.46" y2="245.874" gradientUnits="userSpaceOnUse">
<stop stop-color="#BD47F4"/>
<stop offset="1" stop-color="#FFD232"/>
</linearGradient>
<linearGradient id="paint9_linear" x1="562.71" y1="215.026" x2="426.21" y2="222.026" gradientUnits="userSpaceOnUse">
<stop stop-color="#B952FF"/>
<stop offset="1" stop-color="#EEBE41"/>
</linearGradient>
</defs>
</svg>
